<svg width="1651" height="1203" viewBox="0 0 1651 1203" fill="none" xmlns="http://www.w3.org/2000/svg">
<path d="M582.236 0.048047C587.686 0.0608938 593.135 0.0443674 598.585 0.0318303C608.107 0.0138832 617.63 0.0142505 627.152 0.0270661C641.312 0.0460709 655.472 0.0362626 669.632 0.0210246C693.462 -0.00420129 717.292 -0.00473185 741.122 0.00890819C742.207 0.00952915 742.207 0.00952914 743.314 0.0101627C744.039 0.0105773 744.764 0.010992 745.51 0.0114192C767.635 0.0240601 789.76 0.0272804 811.885 0.0213059C813.369 0.0209186 814.854 0.0205328 816.338 0.0201486C822.304 0.0185961 828.27 0.0170028 834.236 0.0153498C850.909 0.0107662 867.582 0.00791214 884.256 0.0064191C885.015 0.00635087 885.774 0.00628263 886.556 0.00621233C910.719 0.00416787 934.883 0.00979086 959.047 0.020667C959.83 0.0210182 960.613 0.0213695 961.42 0.0217314C974.134 0.0274554 986.848 0.0335531 999.563 0.0396822C1050.02 0.0639816 1100.48 0.0628172 1150.94 0.0385293C1163.67 0.0324231 1176.4 0.0263678 1189.12 0.020667C1189.91 0.0203147 1190.69 0.0199625 1191.5 0.0195996C1215.65 0.00881794 1239.81 0.00424735 1263.96 0.0064191C1264.72 0.00648702 1265.48 0.00655493 1266.26 0.00662491C1282.9 0.0081873 1299.55 0.0113555 1316.19 0.0159716C1322.15 0.0176172 1328.11 0.0191826 1334.06 0.0207252C1335.54 0.0211121 1337.02 0.0215058 1338.51 0.0219061C1360.63 0.0278704 1382.76 0.0227995 1404.89 0.0101627C1405.62 0.00974868 1406.34 0.0093347 1407.09 0.00890819C1407.81 0.00849477 1408.53 0.00808136 1409.28 0.00765543C1433.69 -0.00613845 1458.1 -0.00104689 1482.51 0.0253119C1496.58 0.0400042 1510.65 0.0409358 1524.72 0.022081C1534.11 0.0108782 1543.51 0.0178303 1552.91 0.0396049C1558.26 0.0515084 1563.61 0.055546 1568.97 0.037575C1573.84 0.0213809 1578.72 0.0283453 1583.59 0.0534783C1585.34 0.0584979 1587.09 0.0552259 1588.84 0.0424486C1606.81 -0.0795052 1620.58 4.70182 1634.05 17.0029C1640.89 24.1331 1649.63 35.4993 1649.65 45.7872C1649.65 46.6266 1649.65 47.4659 1649.66 48.3307C1649.66 49.2547 1649.66 50.1788 1649.65 51.1308C1649.66 52.1151 1649.66 53.0993 1649.66 54.1134C1649.67 57.4438 1649.67 60.7743 1649.67 64.1047C1649.68 66.5042 1649.68 68.9037 1649.69 71.3031C1649.7 77.2278 1649.71 83.1524 1649.72 89.077C1649.72 96.1724 1649.74 103.268 1649.75 110.363C1649.78 128.344 1649.8 146.325 1649.82 164.307C1649.82 169.183 1649.83 174.06 1649.83 178.937C1649.86 209.245 1649.89 239.553 1649.91 269.861C1649.91 276.888 1649.92 283.914 1649.92 290.94C1649.92 292.249 1649.92 292.249 1649.92 293.585C1649.94 321.805 1649.98 350.024 1650.03 378.244C1650.08 407.288 1650.11 436.333 1650.12 465.378C1650.12 469.495 1650.12 473.612 1650.12 477.729C1650.12 478.944 1650.12 478.944 1650.12 480.184C1650.13 493.141 1650.15 506.097 1650.19 519.054C1650.22 532.128 1650.23 545.202 1650.21 558.277C1650.21 565.34 1650.21 572.403 1650.24 579.466C1650.37 610.079 1649.49 639.605 1643.51 669.69C1643.26 670.973 1643.01 672.255 1642.74 673.576C1631.49 729.268 1607.63 783.172 1569.51 825.69C1568.6 826.728 1567.69 827.766 1566.77 828.804C1547.45 850.527 1523.73 868.369 1498.51 882.69C1497.72 883.144 1496.94 883.597 1496.12 884.064C1449.55 910.69 1449.55 910.69 1435.51 910.69C1435.45 911.736 1435.45 911.736 1435.39 912.803C1432.76 949.754 1420.8 987.326 1403.46 1019.9C1402.52 1021.68 1401.63 1023.47 1400.73 1025.26C1389.28 1047.98 1373.39 1068.74 1356.51 1087.69C1356.05 1088.22 1355.58 1088.74 1355.1 1089.28C1346.11 1099.33 1336.78 1108.96 1326.51 1117.69C1325.54 1118.55 1324.58 1119.41 1323.58 1120.29C1309.28 1132.9 1293.91 1143.98 1277.51 1153.69C1276.74 1154.16 1275.96 1154.62 1275.17 1155.1C1239.21 1176.66 1200.05 1190.22 1158.76 1197.07C1158.03 1197.19 1157.3 1197.31 1156.54 1197.43C1139.15 1200.28 1122.09 1201.99 1104.46 1201.96C1102.6 1201.96 1100.74 1201.97 1098.88 1201.97C1093.8 1201.99 1088.72 1201.99 1083.64 1201.98C1078.11 1201.98 1072.57 1202 1067.03 1202.01C1056.06 1202.03 1045.09 1202.03 1034.12 1202.04C1021.65 1202.04 1009.18 1202.06 996.713 1202.08C964.279 1202.12 931.846 1202.14 899.413 1202.16C888.896 1202.17 878.379 1202.17 867.863 1202.18C867.12 1202.18 866.377 1202.18 865.612 1202.18C862.607 1202.18 859.603 1202.18 856.598 1202.19C805.214 1202.22 753.83 1202.25 702.446 1202.27C698.414 1202.27 694.382 1202.27 690.35 1202.27C689.151 1202.27 689.151 1202.27 687.927 1202.27C679.824 1202.28 671.721 1202.28 663.619 1202.28C661.994 1202.28 660.37 1202.28 658.745 1202.28C606.546 1202.3 554.347 1202.34 502.148 1202.41C464.621 1202.45 427.093 1202.5 389.565 1202.51C388.793 1202.51 388.022 1202.51 387.226 1202.51C370.282 1202.52 353.337 1202.52 336.393 1202.52C329.575 1202.53 322.758 1202.53 315.94 1202.53C315.194 1202.53 314.448 1202.53 313.679 1202.53C289.659 1202.53 265.64 1202.56 241.62 1202.6C217.43 1202.64 193.239 1202.66 169.049 1202.64C154.044 1202.63 139.039 1202.64 124.034 1202.68C114.461 1202.71 104.889 1202.71 95.3158 1202.68C89.8613 1202.67 84.4077 1202.67 78.9533 1202.7C73.9853 1202.73 69.0188 1202.73 64.0508 1202.69C62.2706 1202.68 60.4903 1202.69 58.7102 1202.71C42.4565 1202.9 30.1593 1198.07 18.4092 1186.7C17.0964 1185.37 15.8044 1184.03 14.5142 1182.69C13.9006 1182.08 13.287 1181.48 12.6549 1180.85C3.84062 1171.54 0.199107 1159.51 0.256967 1147.01C0.253461 1146.04 0.249959 1145.08 0.246347 1144.09C0.237027 1140.86 0.241978 1137.63 0.246835 1134.4C0.243099 1132.06 0.238495 1129.73 0.233102 1127.39C0.222134 1121.63 0.220466 1115.88 0.222787 1110.13C0.225061 1103.23 0.215794 1096.34 0.206247 1089.44C0.186896 1075.14 0.181269 1060.84 0.180124 1046.53C0.179204 1035.47 0.175072 1024.41 0.16871 1013.35C0.166915 1010.17 0.165175 1006.98 0.1634 1003.8C0.162958 1003 0.162513 1002.21 0.162057 1001.4C0.149745 979.107 0.141822 956.819 0.142709 934.53C0.14274 933.689 0.142799 932.848 0.142831 931.982C0.142997 927.722 0.143175 923.462 0.143381 919.202C0.14342 918.356 0.143462 917.51 0.143503 916.638C0.143583 914.927 0.14366 913.216 0.143747 911.505C0.14497 884.946 0.130019 858.387 0.102609 831.828C0.0717961 801.96 0.0546745 772.091 0.0565275 742.223C0.0566768 739.028 0.0567707 735.834 0.0568327 732.64C0.056856 731.853 0.0569308 731.067 0.0569548 730.256C0.057016 717.667 0.0442768 705.078 0.0269865 692.488C0.00991695 679.795 0.00812639 667.103 0.0211882 654.41C0.0278691 647.55 0.0280257 640.69 0.010507 633.831C-0.0556333 606.188 0.0556445 579.031 4.51423 551.69C4.81941 549.814 4.81941 549.814 5.13075 547.899C6.41862 540.123 7.86455 532.399 9.51423 524.69C9.72241 523.716 9.9306 522.741 10.1451 521.737C19.4925 479.17 36.3595 438.34 61.5142 402.69C62 402 62.4859 401.309 62.9864 400.597C69.9682 390.76 77.6941 381.934 86.046 373.244C87.8578 371.327 89.5678 369.335 91.2642 367.315C95.282 362.668 99.878 358.706 104.514 354.69C105.471 353.846 106.427 353.002 107.413 352.132C139.858 323.789 179.166 303.941 219.827 290.378C220.572 290.129 221.318 289.88 222.086 289.623C230.5 286.828 238.955 284.222 247.495 281.835C248.655 281.51 248.655 281.51 249.838 281.179C255.259 279.69 255.259 279.69 257.514 279.69C257.589 278.837 257.664 277.984 257.741 277.104C260.805 247.96 269.758 219.427 281.514 192.69C281.867 191.882 282.22 191.073 282.584 190.239C295.962 159.891 315.135 133.021 337.514 108.69C338.994 107.024 340.473 105.357 341.952 103.69C348.384 96.5516 355.108 89.7496 362.421 83.5107C364.823 81.4219 367.128 79.2418 369.452 77.0654C385.738 62.2409 404.365 49.5227 423.514 38.6904C424.203 38.3003 424.891 37.9102 425.6 37.5083C445.134 26.5646 465.913 17.6298 487.514 11.6904C488.391 11.4448 489.268 11.1993 490.172 10.9462C521.105 2.39741 550.332 -0.0601968 582.236 0.048047ZM486.514 147.69C485.357 148.294 484.199 148.897 483.006 149.519C468.342 157.468 455.458 168.115 443.514 179.69C442.956 180.222 442.399 180.755 441.824 181.303C433.757 189.014 426.439 196.997 419.794 205.967C418.544 207.65 417.273 209.315 415.999 210.979C403.876 227.084 393.324 246.174 388.465 265.842C388.151 267.112 387.838 268.382 387.514 269.69C468.272 269.879 549.029 270.054 629.787 270.156C630.982 270.158 632.177 270.159 633.408 270.161C659.38 270.194 685.352 270.224 711.323 270.252C724.059 270.266 736.796 270.28 749.532 270.295C750.799 270.296 752.067 270.297 753.373 270.299C794.46 270.346 835.547 270.428 876.634 270.53C918.854 270.633 961.073 270.701 1003.29 270.723C1009.25 270.727 1015.22 270.73 1021.18 270.734C1022.35 270.735 1023.53 270.736 1024.73 270.736C1043.63 270.749 1062.52 270.8 1081.42 270.866C1100.41 270.93 1119.4 270.955 1138.4 270.939C1149.68 270.931 1160.97 270.953 1172.26 271.019C1179.8 271.06 1187.33 271.062 1194.87 271.031C1199.17 271.014 1203.46 271.015 1207.76 271.064C1227.6 272.264 1227.6 272.264 1244.78 264.389C1246.41 262.531 1247.99 260.634 1249.51 258.69C1251.31 257.148 1253.14 255.641 1255.01 254.19C1259.05 250.902 1263.05 247.563 1267.01 244.19C1271.86 240.069 1276.77 236.02 1281.7 232.003C1284.83 229.429 1287.93 226.815 1291.01 224.19C1295.86 220.069 1300.77 216.02 1305.7 212.003C1309.4 208.966 1313.04 205.871 1316.68 202.774C1320.07 199.895 1323.5 197.058 1326.95 194.253C1331.2 190.798 1335.37 187.263 1339.51 183.69C1344.53 179.371 1349.6 175.139 1354.74 170.968C1357.86 168.408 1360.94 165.804 1364.01 163.19C1368.86 159.069 1373.77 155.02 1378.7 151.003C1382.39 147.972 1386.02 144.884 1389.66 141.792C1394.11 138.013 1398.63 134.323 1403.17 130.663C1405.42 128.773 1407.46 126.775 1409.51 124.69C1328.86 124.639 1248.2 124.591 1167.54 124.563C1166.34 124.563 1165.15 124.563 1163.92 124.562C1137.97 124.553 1112.02 124.545 1086.06 124.537C1073.34 124.533 1060.61 124.53 1047.88 124.526C1046.61 124.525 1045.35 124.525 1044.04 124.524C1003 124.512 961.967 124.489 920.928 124.461C878.75 124.433 836.572 124.415 794.394 124.409C788.434 124.408 782.474 124.407 776.514 124.406C775.341 124.406 774.168 124.405 772.96 124.405C754.092 124.402 735.224 124.388 716.356 124.37C697.379 124.352 678.403 124.345 659.426 124.35C648.157 124.352 636.888 124.346 625.619 124.328C618.081 124.317 610.544 124.316 603.007 124.325C598.719 124.329 594.43 124.329 590.142 124.316C552.934 124.205 519.612 129.929 486.514 147.69ZM1520.76 195.503C1519.27 196.735 1519.27 196.735 1517.75 197.991C1513.93 201.17 1510.14 204.384 1506.35 207.602C1502.05 211.249 1497.7 214.819 1493.33 218.378C1490.2 220.952 1487.1 223.566 1484.01 226.19C1479.16 230.311 1474.26 234.36 1469.33 238.378C1465.63 241.415 1461.99 244.51 1458.35 247.607C1454.95 250.486 1451.53 253.322 1448.08 256.128C1443.83 259.583 1439.66 263.117 1435.51 266.69C1430.5 271.01 1425.43 275.241 1420.29 279.413C1417.17 281.972 1414.09 284.576 1411.01 287.19C1406.16 291.311 1401.26 295.36 1396.33 299.378C1393.2 301.952 1390.1 304.566 1387.01 307.19C1382.16 311.311 1377.26 315.36 1372.33 319.378C1368.63 322.415 1364.99 325.51 1361.35 328.607C1357.95 331.486 1354.53 334.322 1351.08 337.128C1346.83 340.583 1342.66 344.117 1338.51 347.69C1333.5 352.013 1328.42 356.248 1323.28 360.421C1320.77 362.478 1318.3 364.567 1315.83 366.674C1313.07 369.028 1310.3 371.363 1307.51 373.69C1306.94 374.174 1306.36 374.657 1305.77 375.155C1294.7 384.356 1282.99 392.932 1267.97 392.945C1266.69 392.951 1265.4 392.957 1264.08 392.963C1262.66 392.96 1261.25 392.956 1259.83 392.952C1258.31 392.955 1256.8 392.959 1255.28 392.964C1251.1 392.975 1246.92 392.973 1242.74 392.97C1238.19 392.968 1233.65 392.978 1229.1 392.986C1221.14 393 1213.17 393.005 1205.2 393.006C1193.36 393.008 1181.51 393.02 1169.66 393.035C1149.73 393.061 1129.8 393.076 1109.88 393.087C1090.14 393.098 1070.4 393.112 1050.67 393.132C1049.44 393.134 1048.22 393.135 1046.95 393.136C1040.72 393.142 1034.5 393.149 1028.27 393.155C984.136 393.201 940.005 393.237 895.873 393.268C885.176 393.276 874.479 393.284 863.781 393.291C863.118 393.292 862.454 393.292 861.771 393.293C830.929 393.315 800.087 393.342 769.245 393.371C767.243 393.373 765.241 393.375 763.239 393.377C749.969 393.389 736.7 393.402 723.431 393.414C696.4 393.44 669.369 393.464 642.337 393.489C641.094 393.49 639.852 393.491 638.571 393.492C555.552 393.568 472.533 393.63 389.514 393.69C390.47 396.263 391.427 398.834 392.386 401.405C392.655 402.13 392.924 402.854 393.201 403.601C396.067 411.276 399.655 418.47 403.514 425.69C403.842 426.307 404.169 426.923 404.507 427.559C423.624 463.201 455.662 493.441 491.514 511.69C492.202 512.048 492.889 512.406 493.597 512.775C531.197 532.219 574.202 534.852 615.777 534.828C617.989 534.831 620.201 534.834 622.413 534.837C628.448 534.845 634.484 534.846 640.52 534.847C646.375 534.849 652.23 534.855 658.085 534.861C669.324 534.873 680.562 534.882 691.801 534.888C709.653 534.898 727.505 534.918 745.357 534.94C752.241 534.948 759.124 534.957 766.008 534.965C766.773 534.966 767.537 534.967 768.325 534.968C786.502 534.99 804.678 535.01 822.855 535.028C823.649 535.029 824.444 535.03 825.263 535.031C843.794 535.05 862.325 535.067 880.856 535.079C881.652 535.08 882.449 535.08 883.27 535.081C889.691 535.085 896.113 535.089 902.534 535.093C929.063 535.111 955.593 535.138 982.122 535.176C985.876 535.182 989.629 535.187 993.383 535.193C994.121 535.194 994.86 535.195 995.621 535.196C1007.46 535.212 1019.3 535.217 1031.13 535.219C1043.05 535.22 1054.97 535.233 1066.88 535.256C1073.33 535.268 1079.77 535.275 1086.21 535.269C1092.13 535.263 1098.04 535.272 1103.96 535.291C1106.08 535.296 1108.21 535.296 1110.33 535.289C1165.72 535.144 1223.46 551.303 1270.51 580.69C1271.24 581.145 1271.97 581.599 1272.72 582.067C1291.09 593.591 1308.4 606.17 1324.51 620.69C1325.48 621.545 1326.45 622.4 1327.44 623.28C1340.67 635.153 1353.64 647.601 1364.51 661.69C1365.39 662.744 1366.27 663.795 1367.15 664.843C1380.89 681.327 1392.76 699.577 1402.51 718.69C1402.92 719.489 1403.33 720.289 1403.75 721.112C1412.75 738.875 1420.15 757.501 1425.51 776.69C1464.73 759.434 1494.17 718.251 1509.36 679.53C1523.71 641.737 1527.16 603.477 1526.98 563.43C1526.96 558.421 1526.97 553.412 1526.97 548.403C1526.97 539.762 1526.96 531.122 1526.94 522.482C1526.9 509.991 1526.89 497.5 1526.89 485.008C1526.88 464.732 1526.85 444.457 1526.82 424.181C1526.78 404.507 1526.75 384.833 1526.73 365.158C1526.73 363.942 1526.73 362.725 1526.73 361.472C1526.73 355.368 1526.72 349.264 1526.72 343.16C1526.67 292.67 1526.6 242.18 1526.51 191.69C1524.41 191.69 1522.26 194.266 1520.76 195.503ZM252.014 413.065C250.753 413.601 250.753 413.601 249.466 414.148C234.632 420.571 220.628 428.232 207.514 437.69C206.667 438.294 206.667 438.294 205.803 438.91C190.335 450.061 176.361 464.003 165.514 479.69C164.796 480.714 164.078 481.737 163.338 482.792C134.351 525.939 124.851 575.16 124.965 626.275C124.97 630.518 124.952 634.762 124.937 639.005C124.914 646.334 124.905 653.662 124.906 660.991C124.908 671.643 124.887 682.296 124.862 692.948C124.821 710.314 124.797 727.68 124.785 745.046C124.773 761.766 124.753 778.486 124.722 795.206C124.72 796.233 124.718 797.259 124.716 798.317C124.706 803.476 124.696 808.635 124.686 813.793C124.565 876.426 124.492 939.058 124.514 1001.69C125.64 1000.73 126.766 999.767 127.891 998.805C128.518 998.27 129.145 997.734 129.791 997.182C134.063 993.485 137.919 989.428 141.577 985.128C145.028 981.113 148.754 977.412 152.514 973.69C157.9 968.378 157.9 968.378 162.952 962.753C167.015 957.941 171.572 953.609 176.043 949.181C179.724 945.522 183.236 941.813 186.581 937.843C190.024 934.01 193.742 930.444 197.403 926.821C200.363 923.88 203.261 920.946 205.952 917.753C209.405 913.664 213.215 909.953 217.014 906.19C222.689 900.605 222.689 900.605 228.014 894.69C232.052 889.896 236.594 885.587 241.043 881.181C244.724 877.522 248.236 873.813 251.581 869.843C255.022 866.012 258.738 862.448 262.397 858.827C265.988 855.259 269.398 851.622 272.67 847.757C277.867 841.932 283.587 836.548 289.17 831.097C291.264 828.947 293.049 826.741 294.889 824.378C302.063 816.206 314.144 810.227 324.973 809.438C326.811 809.437 326.811 809.437 328.687 809.436C329.378 809.432 330.07 809.429 330.782 809.426C333.097 809.417 335.412 809.423 337.727 809.429C339.412 809.425 341.097 809.421 342.781 809.417C347.426 809.406 352.071 809.407 356.715 809.411C361.762 809.413 366.81 809.403 371.857 809.394C380.707 809.381 389.558 809.375 398.409 809.375C411.569 809.373 424.73 809.36 437.891 809.345C460.028 809.32 482.165 809.304 504.302 809.294C526.226 809.283 548.15 809.269 570.073 809.248C570.754 809.248 571.435 809.247 572.136 809.247C578.354 809.241 584.572 809.235 590.79 809.229C606.247 809.215 621.705 809.201 637.162 809.188C637.866 809.187 638.57 809.186 639.295 809.186C673.538 809.156 707.782 809.134 742.025 809.112C753.909 809.105 765.793 809.097 777.676 809.089C778.413 809.089 779.15 809.089 779.91 809.088C814.17 809.066 848.431 809.038 882.691 809.01C884.915 809.008 887.139 809.006 889.364 809.004C904.103 808.992 918.842 808.979 933.582 808.967C962.91 808.942 992.237 808.917 1021.57 808.893C1022.96 808.892 1024.36 808.891 1025.76 808.89C1112.74 808.819 1199.72 808.759 1304.51 808.69C1303.6 805.86 1302.68 803.032 1301.76 800.206C1301.5 799.417 1301.25 798.627 1300.99 797.814C1298.31 789.665 1294.6 782.21 1290.51 774.69C1290.19 774.087 1289.87 773.484 1289.54 772.863C1280.52 756.067 1268.98 740.715 1255.28 727.452C1253.57 725.75 1252.04 723.985 1250.51 722.128C1247.19 718.2 1243.47 714.963 1239.51 711.69C1239 711.261 1238.49 710.832 1237.96 710.389C1228.31 702.318 1218.26 695.224 1207.51 688.69C1206.85 688.287 1206.19 687.883 1205.51 687.468C1183.87 674.412 1159.47 665.671 1134.51 661.69C1133.33 661.498 1132.15 661.306 1130.94 661.108C1113.65 658.553 1096.19 658.541 1078.76 658.546C1076.62 658.542 1074.49 658.539 1072.36 658.535C1066.55 658.525 1060.74 658.522 1054.93 658.519C1048.64 658.515 1042.36 658.505 1036.07 658.497C1025.19 658.482 1014.31 658.47 1003.43 658.461C986.93 658.446 970.431 658.423 953.933 658.399C947.294 658.389 940.656 658.38 934.017 658.37C932.911 658.368 932.911 658.369 931.783 658.367C914.258 658.342 896.733 658.319 879.208 658.298C878.059 658.296 878.059 658.296 876.887 658.295C859.034 658.273 841.182 658.252 823.33 658.233C822.18 658.232 822.18 658.232 821.006 658.231C817.14 658.227 813.273 658.222 809.406 658.218C808.642 658.218 807.878 658.217 807.091 658.216C805.548 658.214 804.006 658.213 802.463 658.211C776.892 658.184 751.321 658.151 725.751 658.11C722.128 658.105 718.505 658.099 714.883 658.093C713.814 658.092 713.814 658.092 712.723 658.09C701.328 658.073 689.933 658.062 678.538 658.055C667.052 658.048 655.566 658.033 644.08 658.012C637.877 658 631.673 657.992 625.469 657.993C582.302 657.993 539.6 657.527 497.514 646.69C496.247 646.37 496.247 646.37 494.953 646.043C441.268 632.291 391.824 602.779 353.092 563.233C351.339 561.472 351.339 561.472 348.514 559.253C345.496 556.674 343.038 553.976 340.475 550.96C338.344 548.493 336.119 546.131 333.889 543.753C327.25 536.46 321.38 528.61 315.514 520.69C315.006 520.012 314.498 519.334 313.974 518.636C289.546 485.917 274.976 448.554 263.514 409.69C259.221 409.69 255.93 411.401 252.014 413.065ZM356.514 940.69C355.034 942.209 353.537 943.713 352.014 945.19C349.352 947.817 346.802 950.458 344.389 953.315C340.815 957.494 336.919 961.324 333.014 965.19C328.649 969.514 324.408 973.837 320.448 978.538C317.005 982.371 313.286 985.937 309.625 989.56C306.665 992.501 303.767 995.434 301.077 998.628C297.013 1003.44 292.456 1007.77 287.985 1012.2C284.304 1015.86 280.793 1019.57 277.448 1023.54C274.005 1027.37 270.286 1030.94 266.625 1034.56C263.665 1037.5 260.767 1040.43 258.077 1043.63C254.624 1047.72 250.813 1051.43 247.014 1055.19C241.965 1060.2 237.086 1065.24 232.514 1070.69C231.455 1071.93 230.393 1073.17 229.331 1074.41C228.8 1075.03 228.27 1075.65 227.723 1076.28C227.324 1076.75 226.925 1077.21 226.514 1077.69C309.987 1077.76 393.46 1077.82 476.933 1077.86C478.17 1077.86 479.406 1077.86 480.68 1077.86C507.554 1077.87 534.428 1077.88 561.303 1077.89C574.483 1077.9 587.663 1077.9 600.843 1077.91C602.81 1077.91 602.81 1077.91 604.817 1077.91C647.289 1077.93 689.761 1077.96 732.233 1078C775.897 1078.03 819.561 1078.06 863.225 1078.07C869.399 1078.07 875.573 1078.07 881.748 1078.07C882.963 1078.07 884.178 1078.07 885.43 1078.07C904.951 1078.08 924.471 1078.09 943.992 1078.12C963.641 1078.14 983.29 1078.15 1002.94 1078.14C1014.6 1078.14 1026.25 1078.15 1037.91 1078.17C1045.72 1078.19 1053.53 1078.19 1061.34 1078.18C1065.78 1078.17 1070.21 1078.17 1074.65 1078.19C1142.6 1078.45 1206.07 1060.95 1255.26 1012.19C1261.08 1006.32 1266.55 1000.31 1271.51 993.69C1271.97 993.085 1272.42 992.48 1272.89 991.857C1286.27 973.893 1297.39 954.343 1303.51 932.69C1214 932.553 1124.48 932.426 1034.96 932.352C1033.62 932.351 1032.29 932.349 1030.95 932.348C1002.87 932.325 974.798 932.303 946.723 932.283C932.62 932.273 918.517 932.263 904.414 932.253C902.287 932.251 900.16 932.249 898.032 932.248C865.269 932.223 832.506 932.192 799.743 932.141C798.686 932.139 798.686 932.139 797.608 932.138C786.248 932.12 774.888 932.102 763.528 932.083C730.813 932.031 698.098 931.982 665.382 931.961C664.71 931.961 664.037 931.96 663.344 931.96C649.243 931.951 635.141 931.944 621.04 931.939C614.436 931.937 607.833 931.934 601.229 931.931C599.28 931.931 599.28 931.931 597.291 931.93C576.341 931.92 555.392 931.883 534.442 931.836C513.398 931.789 492.354 931.771 471.309 931.782C458.795 931.788 446.282 931.772 433.768 931.724C425.417 931.694 417.067 931.693 408.717 931.716C403.953 931.728 399.19 931.727 394.426 931.691C390.095 931.659 385.765 931.663 381.434 931.697C379.874 931.703 378.315 931.695 376.755 931.672C367.258 931.543 361.795 932.221 356.514 940.69Z" fill="#60B4FA"/>
</svg>
