<svg width="758" height="526" viewBox="0 0 758 526" fill="none" xmlns="http://www.w3.org/2000/svg">
<path d="M128.084 408.118C127.511 408.506 121.575 412.559 111.194 414.378C109.241 414.72 104.631 411.703 103.346 408.385C103.181 407.957 99.236 394.747 98.672 393.475C96.971 389.621 100.553 386.604 100.553 386.604C100.553 386.604 94.951 374.963 99.636 373.678C103.916 372.499 106.84 379.133 107.27 381.274C107.96 384.727 112.298 401.281 113.974 400.749C118.001 399.472 125.89 396.646 125.89 396.646C125.89 396.646 128.81 397.141 129.76 400.269C130.358 402.234 130.547 406.461 128.084 408.118Z" fill="#3A3E3F"/>
<path d="M125.141 397.435C125.141 397.435 126.499 396.367 127.532 398.327C128.568 400.289 129.202 403.215 128.851 405.353C128.585 406.996 128.085 407.636 126.979 407.6C125.839 407.565 124.107 404.462 124.038 402.356C123.965 400.252 124.147 397.757 125.141 397.435Z" fill="#D6EAE9"/>
<path d="M124.678 398.184C124.678 398.184 128.093 395.495 128.923 395.117C131.775 393.811 134.6 395.442 138.16 392.37C141.111 394.317 136.842 397.179 134.596 396.937C134.596 396.937 139.874 399.362 142.978 399.789C145.565 400.147 145.684 399.504 146.369 399.932C147.047 400.36 147.4 402.073 146.545 403.143C144.913 405.183 141.66 406.569 138.021 406.033C134.381 405.497 129.78 403.463 129.78 403.463L124.75 403.998L124.678 398.184Z" fill="#F2C8A5"/>
<path d="M125.855 397.114C125.855 397.114 124.607 397.541 124.997 401.358C125.227 403.595 125.661 405.818 126.016 406.461C126.659 407.618 127.488 407.539 127.462 407.565C127.406 407.618 125.749 407.743 125.749 407.743C125.749 407.743 122.981 406.562 123.182 401.24C123.294 398.271 124.146 397.685 124.146 397.685L125.855 397.114Z" fill="white"/>
<path d="M108.245 498.658L109.457 501.441C109.457 501.441 120.955 506.204 121.659 506.586C122.466 507.018 124.244 507.785 123.97 509.324C123.904 509.689 123.91 509.925 123.668 510.252C122.799 511.405 121.111 511.879 119.553 512.104C116.157 512.608 109.11 511.372 109.11 511.372C107.052 511.064 103.66 509.938 103.293 509.617C103.293 509.617 101.531 509.041 101.193 509.662C101.069 509.883 101.21 510.927 101.226 511.135L96.8795 509.21C96.6635 509.086 96.3335 506.919 96.2695 505.957L96.6085 499.636L108.245 498.658Z" fill="#231F20"/>
<path d="M121.506 511.065C120.609 511.473 119.359 511.657 118.122 511.766C113.181 512.192 105.812 510.292 105.812 510.292C105.077 510.101 102.311 509.329 102.311 509.329C102.311 509.329 101.171 509.21 101.191 509.664C101.194 509.528 101.206 509.65 101.145 509.668C101.031 509.703 101.224 511.137 101.224 511.137L102.439 510.414C102.439 510.414 105.819 511.262 106.411 511.475C106.411 511.475 113.506 513.283 118.48 512.913C120.049 512.795 122.729 511.947 123.717 510.517C123.894 510.259 124.146 509.397 123.979 508.949C123.953 509.028 122.721 510.515 121.506 511.065Z" fill="#282827"/>
<path d="M101.191 509.663L96.4492 507.351C96.4492 507.351 96.7682 509.245 96.8342 509.214L101.176 511.145C101.168 510.993 101.187 510.057 101.191 509.663Z" fill="#282827"/>
<path d="M105.391 426.57L109.755 498.428C110.105 500.883 111.526 501.675 110.846 502.539C108.296 505.756 96.9537 509.01 95.2737 503.841L89.0547 430.438L105.391 426.57Z" fill="#141413"/>
<path d="M69.7789 511.204C69.7789 511.204 69.5549 518.234 69.5399 518.399C69.2949 521.521 72.6489 529.605 77.5499 530.012C79.1479 530.145 79.6689 530.145 80.8359 529.835C82.5299 529.385 84.1889 527.344 83.6299 523.224C83.2969 520.771 80.9669 510.976 80.9669 510.976L69.7789 511.204Z" fill="#383736"/>
<path d="M69.3145 509.45C69.3145 509.45 69.6955 513.487 70.0115 518.738C70.2025 521.864 73.3545 527.585 77.5365 528.666C78.7655 528.984 79.8125 528.842 79.8875 528.84C81.7465 528.738 84.4754 527.859 83.4474 521.403C83.0824 519.097 81.5675 510.217 81.4395 510.211L69.3145 509.45Z" fill="#231F20"/>
<path d="M92.2767 431.673C91.4157 444.389 83.4867 514.051 83.4867 514.051C83.3547 515.839 78.1877 517.898 78.1877 517.898C71.8737 517.653 68.9137 513.703 68.8887 513.074L69.9297 433.37L92.2767 431.673Z" fill="#383736"/>
<path d="M80.3535 382.891C80.3535 382.891 83.6295 377.105 86.6275 375.95C89.6265 374.797 99.2705 375.324 99.2705 375.324C99.2705 375.324 104.416 386.522 104.464 387.285C104.514 388.052 102.071 408.194 102.071 408.194L89.2075 397.975L80.3535 382.891Z" fill="#D7DFE2"/>
<path d="M101.995 375.531C100.511 373.139 97.3752 373.009 95.2822 373.23C97.8452 375.06 101.225 381.011 101.772 389.477C102.057 393.894 101.188 404.406 101.042 404.155C100.906 403.917 92.3502 388.191 89.0412 385.18C88.5742 384.753 84.0812 376.031 84.0812 376.031C84.0812 376.031 70.0292 384.077 68.8902 386.132L67.4082 393.971L68.8902 445.654C69.0662 446.989 68.8262 447.452 70.2122 448.082C70.2122 448.082 83.1052 451.075 91.2602 450.817C97.7112 450.609 108.045 446.445 108.045 446.445C108.222 446.312 108.533 446.2 108.498 445.649L106.11 423.996C106.458 401.046 105.429 381.073 101.995 375.531Z" fill="#3D4244"/>
<path d="M102.558 448.387L100.952 422.978L101.363 405.403C101.363 405.403 100.662 403.851 100.386 403.361L100.314 422.84L101.825 448.651C101.841 448.617 102.526 448.405 102.558 448.387Z" fill="#383736"/>
<path d="M97.7535 379.855C93.1335 384.7 88.4925 378.866 85.3105 375.299L86.6326 358.248L96.9305 366.1L97.7535 379.855Z" fill="#E8C5AC"/>
<path d="M98.3743 388.131C98.2493 387.661 97.9343 387.176 98.0303 386.616L98.3633 384.913L96.0173 381.446L94.7973 381.681L94.1133 385.609L95.7793 386.944C96.1563 387.288 96.6543 387.986 96.6343 388.478L97.8433 399.611L100.821 404.304C100.821 404.304 101.891 400.887 101.846 399.627C101.689 395.189 98.3743 388.131 98.3743 388.131Z" fill="#160B01"/>
<path d="M97.5508 375.436L98.2878 373.514C98.2878 373.514 99.2258 374.017 99.4358 374.161C100.616 374.96 101.26 376.184 101.724 376.959C102.653 378.511 104.983 383.411 104.983 383.411C105.442 384.534 105.203 385.317 104.579 386.077L102.772 388.369L104.63 389.836C105.841 390.657 105.463 392.369 105.098 393.57C103.805 397.806 100.823 404.306 100.823 404.306C100.823 404.306 101.561 396.689 101.417 392.184C101.085 382.008 97.5508 375.436 97.5508 375.436Z" fill="#7A797A"/>
<path d="M95.7145 380.771C95.0735 381.353 95.6285 382.058 96.0215 382.548L98.4785 385.584C99.2545 386.486 99.5215 385.402 99.4815 384.402L99.3445 377.172C98.9865 373.387 97.3395 373.103 97.3395 373.103C97.3395 373.103 97.4325 374.017 97.4035 375.186C97.3615 376.746 97.5495 379.105 95.7145 380.771Z" fill="white"/>
<path d="M85.5893 371.14C85.5893 371.14 85.5313 373.718 85.9873 374.79C88.2363 380.06 94.7943 380.993 94.7943 380.993C95.5623 381.23 95.5533 381.602 95.5093 382.892L95.0383 387.617C94.9893 388.852 94.3433 388.766 93.8223 388.288C93.8223 388.288 88.6303 384.315 87.1603 382.966C83.6983 379.789 83.4543 377.449 84.1743 373.074C84.4933 371.14 85.5893 371.14 85.5893 371.14Z" fill="white"/>
<path d="M84.2305 372.569L81.7205 377.542C81.7205 377.542 81.2645 378.171 81.4185 379.47C81.5255 380.39 81.9855 381.663 81.9855 381.663L85.1305 388.186C85.6655 389.738 86.2735 390.228 87.4745 390.246L91.7215 390.5L90.4145 393.552C89.9655 394.528 90.3285 395.055 91.1665 395.615C99.8405 401.421 101.322 405.249 101.322 405.249C101.322 405.249 101.346 401.054 93.9675 389.389C92.0865 386.411 88.8635 382.195 86.5765 378.783C83.6005 374.342 84.2305 372.569 84.2305 372.569Z" fill="#7A797A"/>
<path d="M99.8343 347.745L99.8313 347.75L90.4093 346.719L88.3273 363.699C88.3273 364.882 88.1583 365.927 88.2383 366.935C88.3273 368.042 88.1793 369.58 89.3873 370.73C89.3873 370.73 90.7863 371.763 92.6153 373.327C93.7553 374.305 95.1943 375.333 96.9013 376.069C98.0233 376.546 100.833 375.644 100.833 375.644C102.655 375.133 102.375 375.117 104.249 370.17C104.249 370.17 107.314 361.116 108.273 358.377C110.995 350.591 108.133 348.459 108.133 348.459L99.8343 347.745Z" fill="#EDC3A4"/>
<path d="M110.2 352.483C110.123 352.737 108.994 356.843 108.624 357.306C108.624 357.306 110.831 350.571 107.163 351.303C107.095 351.319 104.423 352.712 102.773 353.554C101.844 354.027 100.009 354.552 99.8858 354.329C99.7388 354.06 100.742 352.222 98.7848 351.976C96.3438 351.67 94.3638 354.419 93.7018 357.853C93.1928 360.489 92.7968 362.668 92.7778 362.694C92.5918 362.992 89.7318 359.127 89.5418 358.976C89.2108 358.713 88.1538 360.23 88.1538 360.23C88.2158 360.23 86.2098 364.556 86.1978 364.496C86.0148 363.399 84.0128 357.419 83.8518 356.701C81.2248 345.025 91.7388 332.679 108.915 346.922C110.299 348.068 111.426 348.574 110.2 352.483Z" fill="#49260A"/>
<path d="M89.0558 355.7C91.7478 355.281 91.6618 359.425 91.6618 359.425L91.3028 364.044C91.3028 364.044 90.9618 365.728 89.8638 365.722C88.5858 365.716 87.7868 364.758 87.2438 363.181C87.2098 363.093 86.3978 360.861 86.3598 360.72C85.7968 358.761 86.3748 356.122 89.0558 355.7Z" fill="#EDC3A4"/>
<path d="M103.904 371.132C103.904 371.132 103.129 368.129 102.559 367.769C101.978 367.399 101.828 367.524 100.728 367.524C99.6244 367.524 98.2944 367.821 97.9154 368.013C96.1384 368.912 92.8984 373.577 92.8984 373.577L95.2864 375.348C95.2864 375.348 98.1584 370.275 99.0144 369.602C99.6404 369.11 101.54 368.899 102.011 369.541C102.68 370.458 103.294 372.781 103.294 372.781L103.904 371.132Z" fill="#49260A"/>
<path d="M88.256 364.161C88.256 364.161 87.459 367.524 87.459 368.931C87.459 370.335 88.442 371.201 90.333 372.965C92.485 374.981 94.58 376.702 95.774 377.06C97.785 377.672 101.626 376.843 102.437 375.718C102.814 375.2 103.452 372.323 103.452 372.323C103.452 372.323 102.359 374.453 101.65 374.276C101.185 374.159 101.015 373.488 101.015 373.488C101.015 373.488 100.864 372.535 100.004 373.52C99.332 374.286 98.91 374.732 98.672 374.773C96.811 375.101 95.03 374.086 93.266 372.765C91.203 371.218 88.979 368.618 88.854 367.787C88.665 366.567 88.256 364.161 88.256 364.161Z" fill="#49260A"/>
<path d="M99.6152 421.889C99.0433 422.276 93.1073 426.33 82.7242 428.149C80.7732 428.491 76.1612 425.473 74.8772 422.156C74.7112 421.728 69.5643 406.558 69.0913 405.249C64.6063 392.814 65.8042 386.424 70.4872 385.139C74.7673 383.96 77.2613 390.909 77.6893 393.049C78.3773 396.502 83.8292 415.054 85.5052 414.522C89.5312 413.245 97.4202 410.42 97.4202 410.42C97.4202 410.42 100.34 410.915 101.291 414.043C101.89 416.005 102.078 420.232 99.6152 421.889Z" fill="#3A3E3F"/>
<path d="M96.6731 411.206C96.6731 411.206 98.0301 410.138 99.0631 412.097C100.099 414.06 100.733 416.987 100.383 419.124C100.116 420.767 99.6161 421.407 98.5101 421.371C97.3701 421.336 95.6391 418.233 95.5691 416.127C95.4961 414.024 95.6771 411.528 96.6731 411.206Z" fill="#D6EAE9"/>
<path d="M96.2109 411.955C96.2109 411.955 99.6259 409.267 100.455 408.887C102.559 407.924 105.591 408.568 107.803 407.427C108.797 406.912 109.693 406.14 109.693 406.14C109.693 406.14 111.584 407.388 110.193 408.887C108.29 410.941 106.129 410.708 106.129 410.708C106.129 410.708 111.408 413.133 114.511 413.559C117.099 413.918 117.216 413.275 117.901 413.703C118.58 414.131 118.934 415.844 118.078 416.913C116.447 418.954 113.192 420.339 109.554 419.803C105.914 419.267 101.314 417.233 101.314 417.233L96.2839 417.768L96.2109 411.955Z" fill="#F2C8A5"/>
<path d="M97.3856 410.886C97.3856 410.886 96.1376 411.312 96.5286 415.13C96.7596 417.367 97.1936 419.59 97.5486 420.232C98.1906 421.39 99.0186 421.311 98.9936 421.337C98.9386 421.39 97.2796 421.515 97.2796 421.515C97.2796 421.515 94.5126 420.335 94.7136 415.012C94.8256 412.044 95.6766 411.457 95.6766 411.457L97.3856 410.886Z" fill="white"/>
<path d="M215.684 361.161C217.139 362.125 219.398 360.791 220.272 359.466C220.578 359.005 224.606 360.614 225.738 358.63C225.738 358.63 224.785 358.006 223.08 356.971C222.943 356.886 221.662 355.739 220.092 355.945C215.925 356.492 215.249 356.42 214.371 357.744C213.495 359.072 214.233 360.198 215.684 361.161Z" fill="#E8C5AC"/>
<path opacity="0.29" d="M277.476 368.216C276.545 370.078 277.787 372.406 283.063 374.89C291.101 378.674 301.378 383.27 308.206 376.596C312.052 372.837 316.432 367.285 322.019 364.956C327.607 362.628 322.83 356.475 305.568 353.316C281.821 348.972 277.476 368.216 277.476 368.216Z" fill="#231F20"/>
<path d="M302.715 360.888L298.19 363.291L298.143 359.984H305.335L302.715 360.888Z" fill="#231F20"/>
<path d="M304.456 351.114L306.941 353.225C306.941 353.225 318.366 358.773 319.104 359.042C319.591 359.218 320.405 359.827 320.383 360.721C320.375 361.074 320.355 361.297 320.134 361.618C319.348 362.754 317.724 363.266 316.214 363.543C312.922 364.148 305.732 362.805 305.732 362.805C304.94 362.43 300.262 361.617 299.886 361.325C299.886 361.325 298.446 361.28 298.144 361.885C298.036 362.1 298.184 363.089 298.209 363.29L293.909 361.61C293.691 361.503 293.258 359.441 293.14 358.525L292.365 352.434L304.456 351.114Z" fill="#231F20"/>
<path d="M320.158 361.125C319.127 362.423 317.585 362.903 316.081 363.208C311.166 364.202 304.302 361.692 304.302 361.692C302.241 360.975 300.176 360.545 299.551 360.591C299.551 360.591 298.066 360.743 298.117 361.866C298.129 362.098 298.03 361.931 298.067 362.19C298.063 362.058 298.072 361.947 298.097 361.891C298.399 361.288 299.239 361.379 299.239 361.379C300.224 361.379 300.717 361.514 303.63 362.366C303.63 362.366 310.368 364.889 315.206 364.351C316.732 364.182 319.309 363.272 320.203 361.865C320.359 361.619 320.539 361.013 320.351 360.592C320.332 360.663 320.205 361.064 320.158 361.125Z" fill="#60605D"/>
<path d="M298.255 361.379L293.393 359.853C293.393 359.853 293.802 361.65 293.864 361.618L298.21 363.292C298.192 363.149 298.273 361.758 298.255 361.379Z" fill="#60605D"/>
<path d="M288.12 370.443L284.389 372.346V369.032L288.12 370.443Z" fill="#282827"/>
<path d="M307.486 274.173C307.486 274.173 307.966 301.972 308.024 308.847C308.089 316.948 307.983 351.113 307.983 351.113C307.983 353.703 308.279 354.268 307.425 355.032C304.227 357.887 293.974 362.664 292.965 357.043L285.598 281.468L307.486 274.173Z" fill="#141413"/>
<path d="M292.519 361.529L300.069 367.868C300.069 367.868 303.883 370.928 305.287 371.744C305.922 372.112 306.362 372.929 306.408 373.726C306.437 374.233 306.306 374.733 305.959 375.102C305.075 376.043 303.257 376.777 301.76 377.118C297.324 378.127 292.822 375.371 292.822 375.371C292.083 374.902 287.077 371.672 286.708 371.373C285.667 370.533 284.718 370.205 284.343 370.768C284.343 370.768 284.389 372.146 284.389 372.346L280.19 369.459C280.19 369.459 279.918 367.896 279.918 366.973V360.833L292.519 361.529Z" fill="#231F20"/>
<path d="M306.411 373.926C305.504 375.324 303.208 376.051 301.723 376.447C296.505 377.835 292.684 374.733 292.684 374.733C291.25 373.847 287.243 371.294 286.838 371.071C286.838 371.071 284.517 369.335 284.393 370.691C284.372 370.922 284.334 370.967 284.34 371.229C284.352 371.098 284.434 370.997 284.453 370.938C284.739 370.046 287.074 371.761 287.074 371.761C287.409 372.096 291.969 375.194 292.708 375.664C292.708 375.664 296.964 378.935 301.915 377.456C303.385 377.017 305.25 376.433 306.157 375.037C306.404 374.655 306.452 373.86 306.411 373.926Z" fill="#60605D"/>
<path d="M284.394 370.69C284.394 370.69 282.4 369.589 281.723 369.249C280.138 368.45 279.947 367.863 279.947 367.863C279.947 367.863 280.076 369.617 280.142 369.592C280.142 369.592 280.193 370.08 281.098 370.618C281.92 371.104 284.394 372.345 284.394 372.345V370.69Z" fill="#60605D"/>
<path d="M297.002 277.398C297.002 277.398 296.482 311.029 296.464 317.716C296.439 327.161 296.618 362.468 296.618 362.468C296.594 364.33 295.777 364.922 294.269 365.719C285.066 370.582 280.357 366.736 280.357 366.736C279.617 366.315 279.68 365.821 279.617 365.173C279.617 365.173 276.664 321.456 274.692 294.063C274.534 291.867 274.422 279.549 274.422 279.549L297.002 277.398Z" fill="#383736"/>
<path d="M350.129 258.23C349.555 262.849 346.223 264.431 346.223 264.431C346.223 264.431 326.928 258.322 320.388 254.267C314.895 250.863 306.988 243.074 306.988 243.074C306.988 243.074 297.66 235.569 300.457 229.991C302.057 226.799 306.448 222.802 312.168 228.085C314.803 230.514 322.882 241.706 327.491 245.098C332.306 248.64 349.382 254.711 349.382 254.711C349.382 254.711 350.373 256.27 350.129 258.23Z" fill="#141413"/>
<path d="M290.526 228.434C290.526 228.434 294.935 224.056 297.926 223.773C300.915 223.491 309.458 226.399 309.458 226.399C309.458 226.399 311.262 237.772 311.113 238.473C310.966 239.175 306.596 276.077 306.596 276.077C306.596 276.077 305.46 279.101 300.947 280.205C296.761 281.226 290.51 282.642 284.431 280.133C278.767 277.793 290.526 228.434 290.526 228.434Z" fill="#EDEDED"/>
<path d="M305.686 229.932C300.307 233.127 298.217 227.591 296.252 223.579L298.668 211.522L308.561 217.326L305.686 229.932Z" fill="#E8C5AC"/>
<path d="M304.172 205.967C306.621 206.486 306.397 208.893 306.397 208.893L305.357 213.813C305.357 213.813 305.009 214.856 304.048 214.851C302.594 214.84 302.25 213.493 301.907 212.021C301.887 211.939 301.512 209.793 301.49 209.665C301.163 207.845 301.854 205.475 304.172 205.967Z" fill="#FFE8D9"/>
<path d="M296.933 261.629C296.994 254.36 298.951 235.397 296.943 232.311C294.051 227.866 294.331 224.751 294.42 224.77C295.216 224.392 277.532 229.653 277.363 232.182L272.321 285.694C272.171 286.865 272.597 287.702 273.394 288.492C273.394 288.492 276.295 291.887 281.106 293.542C284.042 294.551 289.452 295.256 293.315 294.257L296.933 261.629Z" fill="#282827"/>
<path d="M312.602 228.652C311.987 227.065 306.897 223.795 306.397 223.51C308.246 225.802 309.714 234.525 308.67 241.012C308.213 243.842 308.081 257.159 306.92 260.065L305.359 291.215C307.027 290.424 310.321 287.358 310.321 287.358C311.639 285.693 311.587 283.709 311.886 282.293L312.896 253.495C313.453 245.495 313.826 231.797 312.602 228.652Z" fill="#282827"/>
<path d="M304.594 237.366C304.57 236.914 304.639 236.585 304.828 236.094L305.456 234.595L303.972 230.743L302.841 230.727L301.438 234.431L302.578 236.182C302.857 236.569 303.014 237.454 302.902 237.898C302.902 237.898 302.239 253.079 299.267 268.601C298.952 270.248 302.224 275.704 302.224 275.704C302.224 275.704 304.827 270.473 305.292 268.45C306.986 261.093 304.594 237.366 304.594 237.366Z" fill="#FF5E48"/>
<path d="M307.52 225.815L309.031 224.523C309.031 224.523 309.757 225.203 309.902 225.393C310.392 226.033 310.872 228.163 310.872 228.163L312.558 235.115C312.687 236.241 312.709 236.783 312.027 237.635L309.935 239.477L311.365 241.797C312.293 243.273 311.908 244.124 311.359 245.572L306.92 260.066C306.92 260.066 308.014 248.423 308.413 243.601C309.306 232.818 307.52 225.815 307.52 225.815Z" fill="#7A797A"/>
<path d="M303.995 230.216C303.271 230.571 303.597 231.353 303.825 231.892L305.266 235.242C305.739 236.253 306.252 235.342 306.468 234.431L307.874 227.8C308.375 223.572 306.895 223.794 306.895 223.794C306.895 223.794 306.616 224.124 306.505 224.994C306.322 226.442 306.469 229.005 303.995 230.216Z" fill="white"/>
<path d="M296.873 220.641C296.873 220.641 296.5 221.319 296.757 222.381C297.795 226.688 303.111 230.183 303.111 230.183C303.746 230.591 303.643 230.925 303.279 232.073L301.662 236.204C301.308 237.305 300.746 237.063 300.4 236.501C300.4 236.501 296.73 231.617 295.748 230.03C293.437 226.301 293.322 226.468 295.31 222.829C296.51 220.635 296.873 220.641 296.873 220.641Z" fill="white"/>
<path d="M295.244 222.814L293.103 224.49C293.103 224.49 292.46 225.01 292.309 225.217C291.796 225.909 292.015 226.825 292.015 226.825L292.185 234.839C292.273 236.368 292.411 236.918 293.46 237.344L296.57 239.25L294.13 242.326C293.203 243.457 293.538 244.533 293.732 245.713L296.761 262.876C296.761 262.876 299.524 245.007 297.473 233.562C296.711 229.294 295.244 222.814 295.244 222.814Z" fill="#7A797A"/>
<path d="M309.809 199.506V199.51L300.182 198.572L298.31 215.46C298.321 216.664 298.141 217.389 298.233 218.416C298.335 219.545 298.734 220.626 299.98 221.781C299.98 221.781 306.527 226.985 308.509 227.378C309.703 227.613 311.197 227.452 312.461 225.955C313.058 225.247 312.916 225.62 314.591 223.039C315.586 221.504 316.234 219.945 316.429 218.947L318.304 208.016L319.426 201.419L309.809 199.506Z" fill="#FFE1CC"/>
<path d="M320.111 198.697C320.981 199.83 320.552 199.642 319.243 203.866C319.148 204.173 318.8 205.136 318.805 205.073C319.027 202.058 318.437 200.718 317.374 201.483C314.976 203.216 312.077 205.593 310.853 206.586C309.928 207.335 309.185 206.714 308.272 205.881C307.317 205.012 307.09 204.733 306.664 204.682C304.391 204.42 304.452 206.648 303.906 208.834L303.224 211.079C301.958 212.952 301.316 211.411 301.171 210.544C301.171 210.544 301.252 208.76 299.055 208.85C297.174 208.928 298.121 213.395 298.207 213.627C298.207 213.627 297.581 219.269 297.238 218.305C295.896 214.523 294.493 210.745 294.142 209.59C290.21 196.644 300.937 188.087 312.599 192.962C314.781 193.875 320.111 198.697 320.111 198.697Z" fill="#543211"/>
<path d="M299.435 208.711C301.927 208.966 301.961 211.385 301.961 211.385L301.454 216.385C301.454 216.385 301.222 217.463 300.266 217.559C298.818 217.704 298.328 216.404 297.834 214.976C297.803 214.894 297.199 212.804 297.164 212.677C296.646 210.902 297.079 208.471 299.435 208.711Z" fill="#FFE1CC"/>
<path d="M349.503 256.209C349.503 256.209 349.548 255.026 348.771 255.338C347.994 255.65 346.037 259.474 345.933 262.133C345.884 263.352 346.028 263.464 346.466 263.549C346.741 263.605 347.399 262.887 347.399 262.887C347.399 262.887 347.562 262.896 348.23 261.227C348.893 259.558 349.503 256.209 349.503 256.209Z" fill="white"/>
<path d="M348.529 256.574C348.529 256.574 356.38 255.835 358.322 256.318C360.266 256.803 363.718 261.839 363.718 261.839C363.718 261.839 364.411 264.97 363.616 266.176C362.822 267.382 360.237 269.793 358.481 267.806C356.725 265.823 355.094 264.642 353.832 264.74C352.569 264.839 347.364 262.802 346.968 261.378C346.302 258.964 348.529 256.574 348.529 256.574Z" fill="#E8C5AC"/>
<path d="M353.845 258.296C353.845 258.296 357.527 260.442 358.125 260.842C358.725 261.242 359.944 264.103 360.192 264.56C360.485 265.106 360.706 265.3 359.991 265.602C359.451 265.831 358.436 265.764 357.59 264.592C356.743 263.419 356.314 262.929 356.314 262.929C356.314 262.929 354.518 263.242 352.916 263.074C351.313 262.905 349.35 261.944 348.984 260.715C348.497 259.073 349.972 256.634 353.845 258.296Z" fill="#EACEB5"/>
<path d="M755.029 64.7043C754.481 65.0753 748.799 68.9543 738.862 70.6963C736.993 71.0243 732.579 68.1353 731.35 64.9603C731.191 64.5503 727.415 51.9053 726.875 50.6883C725.247 46.9993 728.677 44.1113 728.677 44.1113C728.677 44.1113 723.314 32.9683 727.798 31.7383C731.895 30.6093 734.694 36.9613 735.106 39.0093C735.766 42.3143 739.919 58.1603 741.524 57.6523C745.378 56.4293 752.929 53.7253 752.929 53.7253C752.929 53.7253 755.724 54.1993 756.634 57.1933C757.207 59.0713 757.387 63.1173 755.029 64.7043Z" fill="#3A3E3F"/>
<path d="M752.212 54.4773C752.212 54.4773 753.511 53.4553 754.5 55.3313C755.491 57.2093 756.099 60.0113 755.764 62.0583C755.509 63.6303 755.03 64.2433 753.971 64.2083C752.879 64.1743 751.222 61.2043 751.156 59.1883C751.086 57.1743 751.259 54.7863 752.212 54.4773Z" fill="#D6EAE9"/>
<path d="M751.77 55.1943C751.77 55.1943 755.038 52.6213 755.833 52.2583C757.847 51.3363 760.749 51.9523 762.865 50.8603C763.818 50.3683 764.675 49.6293 764.675 49.6293C764.675 49.6293 766.486 50.8243 765.154 52.2593C763.332 54.2253 761.263 54.0013 761.263 54.0013C761.263 54.0013 766.316 56.3223 769.286 56.7303C771.763 57.0743 771.876 56.4583 772.531 56.8683C773.18 57.2773 773.52 58.9183 772.7 59.9413C771.138 61.8943 768.023 63.2203 764.54 62.7083C761.057 62.1953 756.652 60.2483 756.652 60.2483L751.837 60.7603L751.77 55.1943Z" fill="#F2C8A5"/>
<path d="M752.896 54.1713C752.896 54.1713 751.702 54.5793 752.076 58.2343C752.297 60.3753 752.712 62.5043 753.051 63.1183C753.666 64.2263 754.459 64.1503 754.435 64.1763C754.382 64.2273 752.795 64.3473 752.795 64.3473C752.795 64.3473 750.146 63.2173 750.338 58.1213C750.445 55.2803 751.26 54.7193 751.26 54.7193L752.896 54.1713Z" fill="white"/>
<path d="M736.037 151.373L737.199 154.037C737.199 154.037 748.205 158.597 748.879 158.962C749.65 159.376 751.353 160.11 751.09 161.583C751.027 161.933 751.033 162.158 750.801 162.472C749.97 163.575 748.354 164.03 746.863 164.245C743.611 164.727 736.865 163.544 736.865 163.544C734.896 163.249 731.647 162.171 731.296 161.864C731.296 161.864 729.611 161.312 729.287 161.907C729.168 162.118 729.303 163.118 729.318 163.317L725.159 161.473C724.952 161.356 724.637 159.281 724.574 158.359L724.899 152.309L736.037 151.373Z" fill="#231F20"/>
<path d="M748.733 163.249C747.874 163.64 746.678 163.815 745.495 163.919C740.765 164.327 733.711 162.509 733.711 162.509C733.008 162.325 730.36 161.587 730.36 161.587C730.36 161.587 729.268 161.473 729.288 161.907C729.291 161.776 729.302 161.893 729.243 161.911C729.135 161.944 729.319 163.317 729.319 163.317L730.481 162.625C730.481 162.625 733.716 163.438 734.284 163.641C734.284 163.641 741.076 165.371 745.837 165.017C747.339 164.905 749.905 164.092 750.852 162.723C751.021 162.476 751.262 161.651 751.102 161.223C751.077 161.298 749.896 162.722 748.733 163.249Z" fill="#282827"/>
<path d="M729.287 161.907L724.748 159.694C724.748 159.694 725.053 161.507 725.116 161.477L729.271 163.325C729.265 163.18 729.283 162.284 729.287 161.907Z" fill="#282827"/>
<path d="M733.309 82.3672L737.486 151.153C737.821 153.502 739.182 154.26 738.53 155.089C736.089 158.168 725.233 161.282 723.624 156.335L717.672 86.0692L733.309 82.3672Z" fill="#141413"/>
<path d="M699.22 163.381C699.22 163.381 699.005 170.111 698.991 170.27C698.756 173.258 701.968 180.997 706.658 181.386C708.186 181.513 708.686 181.513 709.804 181.216C711.426 180.785 713.013 178.832 712.479 174.888C712.161 172.54 709.93 163.163 709.93 163.163L699.22 163.381Z" fill="#383736"/>
<path d="M698.771 161.704C698.771 161.704 699.136 165.567 699.439 170.595C699.622 173.587 702.638 179.064 706.642 180.098C707.818 180.402 708.822 180.266 708.892 180.264C710.672 180.166 713.285 179.325 712.3 173.146C711.95 170.939 710.501 162.438 710.378 162.433L698.771 161.704Z" fill="#231F20"/>
<path d="M720.754 87.2512C719.929 99.4252 712.341 166.108 712.341 166.108C712.213 167.819 707.269 169.79 707.269 169.79C701.224 169.556 698.389 165.774 698.367 165.173L699.363 88.8772L720.754 87.2512Z" fill="#383736"/>
<path d="M709.34 40.5543C709.34 40.5543 712.477 35.0162 715.347 33.9092C718.218 32.8052 727.45 33.3102 727.45 33.3102C727.45 33.3102 732.374 44.0293 732.421 44.7593C732.47 45.4923 730.132 64.7743 730.132 64.7743L717.819 54.9923L709.34 40.5543Z" fill="#D7DFE2"/>
<path d="M730.058 33.5102C728.637 31.2202 725.635 31.0963 723.632 31.3083C726.086 33.0593 729.321 38.7563 729.844 46.8603C730.117 51.0893 729.151 61.9153 729.011 61.6743C728.881 61.4463 720.825 45.6292 717.659 42.7472C717.211 42.3382 712.91 33.9882 712.91 33.9882C712.91 33.9882 700.794 40.7453 699.703 42.7133L700.018 55.9113L698.369 100.459C698.537 101.736 698.308 102.18 699.635 102.783C699.635 102.783 711.977 105.824 719.783 105.578C725.959 105.379 735.85 101.392 735.85 101.392C736.019 101.265 736.318 101.158 736.284 100.63L733.998 79.9033C734.329 57.9343 733.344 38.8152 730.058 33.5102Z" fill="#3D4244"/>
<path d="M730.595 103.251L729.057 78.9293L729.45 62.1063C729.45 62.1063 728.779 60.6203 728.515 60.1523L728.447 78.7973L729.892 103.504C729.908 103.471 730.564 103.268 730.595 103.251Z" fill="#383736"/>
<path d="M725.995 37.6492C721.573 42.2882 717.131 36.7022 714.084 33.2882L715.351 16.9662L725.208 24.4832L725.995 37.6492Z" fill="#E8C5AC"/>
<path d="M726.59 45.5712C726.472 45.1222 726.17 44.6572 726.262 44.1212L726.581 42.4912L724.336 39.1722L723.168 39.3982L722.514 43.1582L724.109 44.4352C724.469 44.7652 724.946 45.4332 724.926 45.9042L726.084 56.5612L728.935 61.0542C728.935 61.0542 729.96 57.7832 729.917 56.5762C729.766 52.3272 726.59 45.5712 726.59 45.5712Z" fill="#160B01"/>
<path d="M725.803 33.4193L726.509 31.5793C726.509 31.5793 727.405 32.0603 727.608 32.1983C728.737 32.9633 729.355 34.1343 729.799 34.8763C730.688 36.3623 732.918 41.0523 732.918 41.0523C733.358 42.1263 733.128 42.8763 732.53 43.6053L730.801 45.7983L732.58 47.2023C733.74 47.9873 733.377 49.6263 733.027 50.7763C731.79 54.8313 728.934 61.0533 728.934 61.0533C728.934 61.0533 729.643 53.7613 729.502 49.4483C729.187 39.7103 725.803 33.4193 725.803 33.4193Z" fill="#7A797A"/>
<path d="M724.044 38.5262C723.431 39.0842 723.961 39.7582 724.337 40.2272L726.69 43.1332C727.433 43.9962 727.687 42.9592 727.649 42.0012L727.519 35.0812C727.175 31.4582 725.6 31.1852 725.6 31.1852C725.6 31.1852 725.688 32.0602 725.662 33.1792C725.62 34.6722 725.8 36.9322 724.044 38.5262Z" fill="white"/>
<path d="M714.351 29.3073C714.351 29.3073 714.296 31.7743 714.733 32.8013C716.885 37.8463 723.163 38.7393 723.163 38.7393C723.897 38.9663 723.889 39.3233 723.847 40.5573L723.397 45.0793C723.35 46.2623 722.732 46.1793 722.233 45.7213C722.233 45.7213 717.263 41.9183 715.856 40.6273C712.543 37.5853 712.308 35.3463 712.998 31.1573C713.302 29.3073 714.351 29.3073 714.351 29.3073Z" fill="white"/>
<path d="M713.051 30.9172L710.649 35.6782C710.649 35.6782 710.213 36.2812 710.361 37.5252C710.464 38.4052 710.904 39.6242 710.904 39.6242L713.914 45.8672C714.427 47.3532 715.007 47.8222 716.158 47.8402L720.222 48.0832L718.972 51.0052C718.542 51.9402 718.889 52.4442 719.692 52.9802C727.995 58.5382 729.414 62.2022 729.414 62.2022C729.414 62.2022 729.437 58.1862 722.373 47.0202C720.573 44.1702 717.486 40.1332 715.299 36.8682C712.448 32.6142 713.051 30.9172 713.051 30.9172Z" fill="#7A797A"/>
<path d="M727.985 6.91226L727.983 6.91725L718.963 5.93126L716.971 22.1853C716.971 23.3173 716.81 24.3183 716.886 25.2833C716.971 26.3423 716.829 27.8143 717.987 28.9153C717.987 28.9153 719.327 29.9043 721.077 31.4003C722.168 32.3363 723.546 33.3203 725.179 34.0253C726.254 34.4813 728.943 33.6193 728.943 33.6193C730.689 33.1293 730.42 33.1143 732.213 28.3793C732.213 28.3793 735.148 19.7133 736.066 17.0903C738.672 9.63726 735.933 7.59625 735.933 7.59625L727.985 6.91226Z" fill="#EDC3A4"/>
<path d="M737.91 11.4483C737.836 11.6913 736.755 15.6223 736.4 16.0653C736.4 16.0653 738.515 9.61826 735.004 10.3193C734.938 10.3343 732.38 11.6673 730.801 12.4733C729.913 12.9263 728.154 13.4283 728.037 13.2153C727.895 12.9573 728.855 11.1973 726.984 10.9633C724.646 10.6703 722.751 13.3013 722.118 16.5893C721.632 19.1123 721.251 21.1973 721.233 21.2233C721.055 21.5083 718.317 17.8093 718.135 17.6643C717.819 17.4123 716.807 18.8643 716.807 18.8643C716.867 18.8643 714.945 23.0063 714.935 22.9483C714.76 21.8983 712.843 16.1743 712.69 15.4863C710.174 4.30925 720.239 -7.50974 736.681 6.12526C738.004 7.22126 739.082 7.70626 737.91 11.4483Z" fill="#A89678"/>
<path d="M717.67 14.5273C720.246 14.1273 720.164 18.0923 720.164 18.0923L719.82 22.5133C719.82 22.5133 719.494 24.1253 718.441 24.1203C717.218 24.1143 716.453 23.1973 715.934 21.6883C715.901 21.6043 715.124 19.4663 715.087 19.3323C714.549 17.4583 715.103 14.9303 717.67 14.5273Z" fill="#EDC3A4"/>
<path d="M723.518 83.2022C722.882 83.3862 716.28 85.3193 706.29 83.9063C704.411 83.6403 702.348 80.7732 701.341 77.5212C696.596 62.2002 695.971 50.1132 695.971 50.1132C695.971 50.1132 695.971 41.3372 703.491 42.1202C707.717 42.5602 708.463 50.5342 708.221 52.6092C707.827 55.9562 711.17 72.3112 712.853 72.3232C716.897 72.3512 724.914 72.1122 724.914 72.1122C724.914 72.1122 727.427 73.4262 727.366 76.5552C727.329 78.5182 726.25 82.4212 723.518 83.2022Z" fill="#3A3E3F"/>
<path d="M723.997 72.6063C723.997 72.6063 725.548 72.0353 725.909 74.1253C726.272 76.2173 725.983 79.0693 725.033 80.9133C724.304 82.3303 723.659 82.7643 722.663 82.4053C721.636 82.0353 720.977 78.6983 721.536 76.7613C722.093 74.8223 722.995 72.6053 723.997 72.6063Z" fill="#D6EAE9"/>
<path d="M721.508 80.3323C722.37 81.5093 725.837 84.3642 727.194 84.0552C728.517 83.7542 733.939 78.2063 733.68 76.7533C733.465 75.5463 728.871 75.4232 727.721 75.0902C725.765 74.5232 723.466 72.6523 722.734 74.6843C722.353 75.7373 721.625 80.2973 721.508 80.3323Z" fill="#F2C8A5"/>
<path d="M643.42 140.473C643.649 142.176 641.5 143.608 639.95 143.812C639.408 143.886 639.106 148.147 636.862 148.3C636.862 148.3 636.717 147.187 636.532 145.229C636.517 145.074 636.049 143.447 636.906 142.141C639.177 138.682 639.404 138.053 640.956 137.842C642.507 137.637 643.19 138.772 643.42 140.473Z" fill="#E8C5AC"/>
<path d="M579.528 148.647C580.163 148.457 594.611 124.978 594.599 121.573C594.597 121.133 593.511 107.981 593.571 106.651C593.744 102.623 589.498 101.181 589.498 101.181C589.498 101.181 592.466 88.2552 587.841 88.7422C583.614 89.1822 581.291 96.7132 581.653 98.7702C582.242 102.088 583.362 117.046 582.463 118.47C579.81 122.67 571.302 141.584 571.302 141.584C571.302 141.584 570.643 141.822 572.388 144.42C573.48 146.051 576.808 149.47 579.528 148.647Z" fill="#3A3E3F"/>
<path d="M571.765 141.867C571.765 141.867 570.196 142.387 571.216 144.246C572.235 146.109 574.238 148.16 576.13 149.009C577.582 149.663 578.357 149.601 578.913 148.699C579.485 147.77 577.922 144.75 576.278 143.582C574.637 142.415 572.548 141.242 571.765 141.867Z" fill="#D6EAE9"/>
<path d="M573.735 142.196C573.735 142.196 569.786 143.505 569.045 143.967C567.165 145.139 566.079 147.9 564 149.063C563.064 149.585 561.975 149.893 561.975 149.893C561.975 149.893 561.973 152.063 563.907 151.742C566.552 151.307 567.505 149.458 567.505 149.458C567.505 149.458 566.654 154.953 565.357 157.656C564.28 159.912 563.703 159.666 563.683 160.44C563.666 161.207 564.847 162.396 566.155 162.275C568.645 162.05 571.47 160.183 572.963 156.994C574.456 153.805 575.26 149.056 575.26 149.056L578.343 145.322L573.735 142.196Z" fill="#F2C8A5"/>
<path d="M571.133 142.268C571.133 142.268 572.133 141.497 574.975 143.824C576.64 145.188 578.186 146.709 578.512 147.33C579.098 148.454 578.597 149.074 578.631 149.067C578.701 149.051 579.678 147.793 579.678 147.793C579.678 147.793 580.196 144.96 575.838 142.311C573.41 140.834 572.491 141.204 572.491 141.204L571.133 142.268Z" fill="white"/>
<path d="M596.67 203.638L595.508 206.302C595.508 206.302 584.502 210.862 583.828 211.227C583.057 211.641 581.354 212.375 581.617 213.848C581.68 214.198 581.674 214.423 581.906 214.737C582.737 215.84 584.353 216.295 585.844 216.51C589.096 216.992 595.842 215.809 595.842 215.809C597.811 215.514 601.06 214.436 601.411 214.129C601.411 214.129 603.097 213.577 603.42 214.172C603.539 214.383 603.404 215.383 603.389 215.582L607.548 213.738C607.755 213.621 608.07 211.546 608.133 210.624L607.808 204.574L596.67 203.638Z" fill="#231F20"/>
<path d="M583.974 215.514C584.833 215.905 586.029 216.08 587.212 216.184C591.943 216.592 598.996 214.774 598.996 214.774C599.699 214.59 602.347 213.852 602.347 213.852C602.347 213.852 603.439 213.738 603.419 214.172C603.416 214.041 603.405 214.158 603.464 214.176C603.572 214.209 603.388 215.582 603.388 215.582L602.226 214.89C602.226 214.89 598.991 215.703 598.423 215.906C598.423 215.906 591.631 217.636 586.87 217.282C585.368 217.17 582.802 216.357 581.855 214.988C581.686 214.741 581.445 213.916 581.605 213.488C581.63 213.564 582.811 214.988 583.974 215.514Z" fill="#282827"/>
<path d="M603.42 214.172L607.959 211.959C607.959 211.959 607.654 213.772 607.591 213.742L603.436 215.59C603.442 215.446 603.424 214.549 603.42 214.172Z" fill="#282827"/>
<path d="M599.4 134.632L593.879 176.261L595.224 203.418C594.889 205.767 593.528 206.525 594.18 207.354C596.621 210.433 607.477 213.547 609.086 208.6L610.847 179.961L618.889 139.884L599.4 134.632Z" fill="#141413"/>
<path d="M633.488 215.647C633.488 215.647 633.703 222.377 633.717 222.536C633.952 225.524 630.739 233.263 626.049 233.652C624.521 233.779 624.021 233.779 622.903 233.482C621.281 233.051 619.694 231.098 620.228 227.154C620.546 224.806 622.777 215.429 622.777 215.429L633.488 215.647Z" fill="#383736"/>
<path d="M633.936 213.969C633.936 213.969 633.571 217.832 633.268 222.86C633.085 225.852 630.069 231.329 626.065 232.363C624.889 232.667 623.885 232.531 623.815 232.529C622.035 232.431 619.422 231.589 620.407 225.411C620.757 223.204 622.206 214.703 622.329 214.698L633.936 213.969Z" fill="#231F20"/>
<path d="M611.953 139.516C612.778 151.69 620.366 218.373 620.366 218.373C620.494 220.084 625.438 222.055 625.438 222.055C631.483 221.821 634.318 218.039 634.34 217.438L633.344 141.142L611.953 139.516Z" fill="#383736"/>
<path d="M606.283 91.3153C606.283 91.3153 601.345 87.2993 598.269 87.3133C595.193 87.3313 586.779 91.1623 586.779 91.1623C586.779 91.1623 586.095 102.937 586.318 103.635C586.539 104.336 595.736 121.443 595.736 121.443L603.643 107.849L606.283 91.3153Z" fill="#D7DFE2"/>
<path d="M584.424 92.2963C584.913 89.6463 587.664 88.4373 589.607 87.9053C587.959 90.4293 587.021 96.9133 589.483 104.651C590.768 108.689 595.61 118.421 595.652 118.146C595.69 117.887 597.436 100.222 599.336 96.3853C599.604 95.8413 600.57 86.4983 600.57 86.4983C600.57 86.4983 614.618 91.0923 616.35 92.5273L634.341 141.162C634.65 142.413 633.747 143.726 632.732 144.771C632.732 144.771 627.23 148.996 619.87 151.608C614.046 153.671 598.494 151.335 598.494 151.335C598.29 151.278 597.973 151.287 597.812 150.783L598.055 136.085C589.747 115.745 583.294 98.4333 584.424 92.2963Z" fill="#3D4244"/>
<path d="M608.617 152.347L601.526 130.165L595.396 118.708C595.396 118.708 595.48 117.079 595.555 116.548L602.044 129.819L609.378 152.391L608.617 152.347Z" fill="#383736"/>
<path d="M592.044 102.266C591.99 101.805 592.103 101.262 591.821 100.796L590.93 99.3943L591.813 95.4853L592.983 95.2703L594.961 98.5343L593.941 100.304C593.725 100.742 593.525 101.538 593.714 101.969L596.515 112.317L595.497 117.54C595.497 117.54 593.351 114.866 592.952 113.727C591.546 109.715 592.044 102.266 592.044 102.266Z" fill="#160B01"/>
<path d="M588.352 90.6613L588.527 88.0033L587.024 89.2043C587.024 89.2043 586.365 89.9793 586.226 90.1813C585.454 91.3053 585.304 92.6213 585.16 93.4733C584.874 95.1813 584.504 100.361 584.504 100.361C584.485 101.521 584.973 102.136 585.794 102.597L588.203 104.01L587.057 105.966C586.262 107.12 587.198 108.514 587.942 109.458C590.57 112.784 595.496 117.54 595.496 117.54C595.496 117.54 592.181 111.006 590.741 106.938C587.491 97.7533 588.352 90.6613 588.352 90.6613Z" fill="#7A797A"/>
<path d="M589.363 91.3093C593.785 95.9483 598.227 90.3623 601.274 86.9483L600.007 70.6263L590.15 78.1433L589.363 91.3093Z" fill="#E8C5AC"/>
<path d="M591.314 92.1863C591.927 92.7443 591.397 93.4183 591.021 93.8873L588.668 96.7933C587.925 97.6563 587.671 96.6193 587.709 95.6613L587.839 88.7413C588.183 85.1183 589.758 84.8453 589.758 84.8453C589.758 84.8453 589.67 85.7203 589.696 86.8393C589.738 88.3323 589.559 90.5923 591.314 92.1863Z" fill="white"/>
<path d="M601.008 82.9673C601.008 82.9673 601.063 85.4343 600.626 86.4613C598.474 91.5063 592.196 92.3993 592.196 92.3993C591.462 92.6263 591.47 92.9833 591.512 94.2173L591.962 98.7393C592.009 99.9223 592.627 99.8403 593.126 99.3813C593.126 99.3813 598.096 95.5783 599.503 94.2873C602.816 91.2453 603.051 89.0063 602.361 84.8173C602.058 82.9673 601.008 82.9673 601.008 82.9673Z" fill="white"/>
<path d="M587.374 60.5713L587.376 60.5763L596.395 59.5903L598.387 75.8443C598.387 76.9763 598.548 77.9773 598.472 78.9423C598.387 80.0013 598.529 81.4733 597.371 82.5743C597.371 82.5743 596.031 83.5633 594.281 85.0593C593.19 85.9953 591.812 86.9793 590.179 87.6843C589.104 88.1403 586.415 87.2783 586.415 87.2783C584.669 86.7883 584.938 86.7733 583.146 82.0383C583.146 82.0383 580.211 73.3723 579.293 70.7493C576.687 63.2963 579.426 61.2553 579.426 61.2553L587.374 60.5713Z" fill="#EDC3A4"/>
<path d="M577.449 65.1073C577.523 65.3503 578.604 69.2813 578.959 69.7243C578.959 69.7243 576.845 63.2773 580.356 63.9783C580.422 63.9933 582.98 65.3263 584.559 66.1323C585.447 66.5853 587.205 67.0872 587.322 66.8742C587.464 66.6162 586.504 64.8562 588.375 64.6222C590.713 64.3292 592.608 66.9603 593.241 70.2483C593.727 72.7713 594.108 74.8563 594.126 74.8823C594.304 75.1673 597.042 71.4683 597.224 71.3233C597.54 71.0713 598.552 72.5233 598.552 72.5233C598.492 72.5233 600.414 76.6653 600.424 76.6073C600.599 75.5573 602.516 69.8323 602.669 69.1453C605.185 57.9683 595.12 46.1493 578.678 59.7843C577.355 60.8813 576.277 61.3653 577.449 65.1073Z" fill="#A89678"/>
<path d="M597.69 68.1873C595.114 67.7873 595.196 71.7523 595.196 71.7523L595.54 76.1733C595.54 76.1733 595.866 77.7853 596.919 77.7803C598.142 77.7743 598.907 76.8573 599.426 75.3483C599.459 75.2643 600.236 73.1263 600.273 72.9923C600.812 71.1173 600.257 68.5903 597.69 68.1873Z" fill="#EDC3A4"/>
<path d="M601.275 82.9673L605.246 86.5263C605.246 86.5263 605.871 86.9293 606.186 88.1413C606.41 88.9983 603.957 97.9263 603.957 97.9263C604.02 99.4973 603.651 100.145 602.585 100.58L598.889 102.286L601.116 104.553C601.856 105.267 601.717 105.863 601.165 106.654C595.455 114.853 595.468 118.782 595.468 118.782C595.468 118.782 593.985 115.05 596.498 102.079C597.138 98.7703 600.5 93.1633 601.349 89.3263C602.454 84.3283 601.275 82.9673 601.275 82.9673Z" fill="#7A797A"/>
<path d="M458.42 174.872C458.968 175.243 464.65 179.122 474.587 180.864C476.456 181.192 480.87 178.303 482.099 175.128C482.258 174.718 486.035 162.073 486.574 160.856C488.202 157.168 484.772 154.279 484.772 154.279C484.772 154.279 490.135 143.136 485.651 141.906C481.554 140.777 478.755 147.129 478.343 149.178C477.683 152.483 473.53 168.329 471.925 167.821C468.071 166.598 460.52 163.894 460.52 163.894C460.52 163.894 457.725 164.368 456.815 167.362C456.242 169.239 456.063 173.285 458.42 174.872Z" fill="#3A3E3F"/>
<path d="M461.236 164.645C461.236 164.645 459.937 163.622 458.948 165.498C457.957 167.376 457.349 170.178 457.684 172.225C457.939 173.797 458.418 174.41 459.477 174.375C460.569 174.341 462.226 171.371 462.292 169.355C462.362 167.342 462.189 164.954 461.236 164.645Z" fill="#D6EAE9"/>
<path d="M461.68 165.362C461.68 165.362 458.411 162.789 457.617 162.425C455.603 161.503 452.701 162.119 450.585 161.027C449.632 160.535 448.775 159.796 448.775 159.796C448.775 159.796 446.964 160.991 448.296 162.426C450.118 164.392 452.187 164.168 452.187 164.168C452.187 164.168 447.134 166.489 444.164 166.897C441.687 167.241 441.574 166.625 440.919 167.035C440.27 167.444 439.93 169.085 440.75 170.108C442.311 172.061 445.427 173.387 448.91 172.875C452.393 172.363 456.798 170.415 456.798 170.415L461.613 170.927L461.68 165.362Z" fill="#F2C8A5"/>
<path d="M460.553 164.338C460.553 164.338 461.747 164.746 461.373 168.401C461.152 170.542 460.737 172.671 460.398 173.285C459.783 174.393 458.99 174.317 459.014 174.343C459.067 174.394 460.654 174.514 460.654 174.514C460.654 174.514 463.303 173.384 463.111 168.289C463.004 165.448 462.189 164.887 462.189 164.887L460.553 164.338Z" fill="white"/>
<path opacity="0.29" d="M739.075 160.055L845.102 98.7952L842.6 94.4662L729.453 159.84C728.647 159.836 727.847 159.83 727.005 159.83C709.008 159.83 695.051 165.273 695.051 171.485C695.051 173.626 695.818 176.033 697.557 178.268L631.042 216.699C625.259 213.937 616.167 212.095 605.702 212.095C586.738 212.095 577.07 213.241 574.091 217.325C571.881 220.351 580.357 222.55 583.383 222.898C599.363 224.756 593.789 226.55 593.789 229.962C593.789 232.105 595.634 234.008 598.562 235.464L518.395 281.783C518.395 281.739 518.399 281.695 518.399 281.652C518.399 275.44 504.442 269.997 486.445 269.997C467.481 269.997 457.813 271.144 454.834 275.227C452.624 278.253 461.1 280.452 464.126 280.8C480.106 282.658 474.532 284.452 474.532 287.864C474.532 292.583 483.451 296.137 493.271 296.299L483.079 302.188L479.066 299.872L464.864 291.673C462.658 290.398 459.097 290.398 456.906 291.673L449.236 296.128C446.726 297.588 445.464 299.628 445.805 301.685L448.47 317.657L439.984 322.59C431.671 322.048 422.513 321.775 412.686 321.775C375.119 321.775 351.918 334.772 351.918 347.863C351.918 348.599 351.982 349.326 352.095 350.05L346.078 353.5C343.877 354.759 343.877 356.824 346.075 358.11L366.796 369.374L123.116 510.167C118.371 508.66 110.405 508.164 98.44 508.164C81.752 508.164 68.81 513.212 68.81 518.972C68.81 523.927 73.239 530.414 85.101 532.131L0 581.301V587.111L94.616 532.435C102.679 531.785 109.487 528.702 109.487 524.732C109.487 524.444 109.444 524.169 109.377 523.905L119.321 518.159C122.195 517.782 129.39 515.86 127.878 513.214L371.093 372.667L372.408 373.719L383.308 379.901C385.506 381.189 389.068 381.21 391.267 379.95L398.962 375.539C400.509 374.652 401.58 373.542 402.107 372.342C403.804 372.392 405.533 372.425 407.319 372.425C428.383 372.425 446.108 371.643 446.108 361.448C446.108 354.256 434.478 350.472 467.83 346.555C474.146 345.813 491.839 341.186 487.226 334.805C483.569 329.745 472.129 326.134 455.293 324.015L457.365 322.818L485.006 324.317C488.551 324.504 492.071 323.767 494.582 322.307L502.251 317.85C504.443 316.577 504.432 314.513 502.225 313.24L488.078 305.072L506.052 294.688C510.031 293.455 512.927 291.627 514.904 289.573L604.922 237.563C607.493 238.103 610.321 238.411 613.221 238.411C631.216 238.411 637.656 229.96 637.656 223.749C637.656 222.371 636.967 221.031 635.701 219.78L701.452 181.791C705.337 184.342 711.178 186.145 719.486 186.145C729.577 186.145 738.918 182.525 738.918 177.695C738.918 174.284 733.344 172.49 749.324 170.632C752.35 170.283 760.826 168.085 758.616 165.059C756.352 161.956 750.21 160.552 739.075 160.055Z" fill="#231F20"/>
<path d="M477.41 261.541L476.248 264.205C476.248 264.205 465.242 268.764 464.568 269.13C463.796 269.544 462.094 270.278 462.357 271.751C462.42 272.101 462.414 272.326 462.646 272.64C463.477 273.744 465.093 274.198 466.584 274.413C469.836 274.895 476.582 273.712 476.582 273.712C478.551 273.417 481.8 272.339 482.151 272.032C482.151 272.032 483.837 271.48 484.16 272.075C484.279 272.286 484.144 273.286 484.129 273.485L488.288 271.641C488.495 271.524 488.81 269.449 488.873 268.527L488.548 262.477L477.41 261.541Z" fill="#231F20"/>
<path d="M464.715 273.417C465.574 273.808 466.77 273.983 467.953 274.087C472.683 274.495 479.737 272.677 479.737 272.677C480.44 272.493 483.087 271.755 483.087 271.755C483.087 271.755 484.179 271.641 484.159 272.075C484.156 271.944 484.145 272.061 484.204 272.079C484.312 272.112 484.128 273.485 484.128 273.485L482.966 272.793C482.966 272.793 479.731 273.606 479.163 273.809C479.163 273.809 472.371 275.539 467.61 275.185C466.108 275.073 463.542 274.26 462.595 272.891C462.426 272.644 462.185 271.819 462.345 271.391C462.371 271.466 463.552 272.89 464.715 273.417Z" fill="#282827"/>
<path d="M484.16 272.075L488.699 269.862C488.699 269.862 488.394 271.675 488.331 271.645L484.176 273.493C484.183 273.348 484.164 272.452 484.16 272.075Z" fill="#282827"/>
<path d="M480.142 192.535L475.965 261.321C475.63 263.67 474.269 264.428 474.921 265.257C477.362 268.336 488.218 271.45 489.827 266.503L498.549 197.419L480.142 192.535Z" fill="#141413"/>
<path d="M514.229 273.549C514.229 273.549 514.444 280.279 514.458 280.438C514.693 283.426 511.481 291.165 506.791 291.554C505.263 291.681 504.763 291.681 503.646 291.384C502.024 290.953 500.437 289 500.971 285.056C501.289 282.708 503.52 273.331 503.52 273.331L514.229 273.549Z" fill="#383736"/>
<path d="M514.678 271.872C514.678 271.872 514.313 275.735 514.01 280.763C513.827 283.755 510.811 289.232 506.807 290.266C505.631 290.57 504.627 290.434 504.557 290.432C502.777 290.334 500.164 289.493 501.149 283.314C501.499 281.107 502.948 272.606 503.071 272.601L514.678 271.872Z" fill="#231F20"/>
<path d="M492.695 197.418C493.52 209.592 501.108 276.275 501.108 276.275C501.236 277.986 506.18 279.957 506.18 279.957C512.225 279.723 515.06 275.941 515.082 275.34L512.219 197.418H492.695Z" fill="#383736"/>
<path d="M504.109 150.722C504.109 150.722 500.972 145.184 498.102 144.077C495.231 142.974 485.999 143.478 485.999 143.478C485.999 143.478 481.075 154.197 481.028 154.927C480.979 155.66 483.317 174.942 483.317 174.942L495.631 165.16L504.109 150.722Z" fill="#D7DFE2"/>
<path d="M515.083 165.711C515.288 159.57 513.043 155.517 513.043 155.517C511.952 153.549 500.541 144.157 500.541 144.157C500.541 144.157 496.24 152.507 495.792 152.916C492.626 155.798 484.569 171.615 484.439 171.843C484.299 172.083 483.333 161.257 483.606 157.029C484.129 148.926 487.364 143.228 489.818 141.477C487.815 141.265 484.813 141.389 483.392 143.679C480.106 148.984 479.12 168.103 479.453 190.073L477.167 210.801C477.133 211.328 477.432 211.436 477.601 211.563C477.601 211.563 487.493 215.549 493.668 215.749C501.002 215.98 515.082 212.151 515.626 211.435C515.207 208.34 513.412 194.944 512.844 188.524C512.22 181.461 514.817 173.634 515.083 165.711Z" fill="#3D4244"/>
<path d="M482.854 213.418L484.392 189.096L483.998 172.273C483.998 172.273 484.669 170.787 484.933 170.319L485.001 188.964L483.556 213.671C483.541 213.639 482.885 213.436 482.854 213.418Z" fill="#383736"/>
<path d="M487.453 147.817C491.875 152.456 496.317 146.87 499.364 143.456L498.097 127.134L488.24 134.651L487.453 147.817Z" fill="#E8C5AC"/>
<path d="M486.861 155.739C486.979 155.29 487.281 154.825 487.189 154.289L486.87 152.659L489.115 149.34L490.283 149.566L490.937 153.326L489.342 154.603C488.982 154.933 488.505 155.601 488.525 156.072L487.367 166.729L484.516 171.222C484.516 171.222 483.491 167.95 483.535 166.744C483.686 162.495 486.861 155.739 486.861 155.739Z" fill="#160B01"/>
<path d="M487.646 143.586L486.94 141.746C486.94 141.746 486.043 142.227 485.841 142.365C484.712 143.13 484.094 144.302 483.65 145.043C482.761 146.529 480.531 151.219 480.531 151.219C480.092 152.293 480.321 153.043 480.919 153.772L482.649 155.965L480.87 157.369C479.71 158.154 480.073 159.793 480.423 160.943C481.66 164.998 484.516 171.22 484.516 171.22C484.516 171.22 483.807 163.928 483.948 159.615C484.263 149.879 487.646 143.586 487.646 143.586Z" fill="#7A797A"/>
<path d="M489.406 148.694C490.019 149.252 489.489 149.926 489.113 150.395L486.76 153.301C486.017 154.164 485.763 153.127 485.801 152.169L485.931 145.249C486.275 141.626 487.85 141.353 487.85 141.353C487.85 141.353 487.762 142.228 487.788 143.347C487.83 144.84 487.65 147.1 489.406 148.694Z" fill="white"/>
<path d="M499.097 139.475C499.097 139.475 499.152 141.942 498.715 142.969C496.563 148.014 490.285 148.907 490.285 148.907C489.551 149.134 489.559 149.491 489.601 150.725L490.051 155.247C490.098 156.43 490.716 156.348 491.215 155.889C491.215 155.889 496.185 152.086 497.592 150.795C500.905 147.753 501.14 145.514 500.45 141.325C500.146 139.475 499.097 139.475 499.097 139.475Z" fill="white"/>
<path d="M500.398 141.085L502.8 145.846C502.8 145.846 503.235 146.448 503.088 147.693C502.984 148.573 502.545 149.792 502.545 149.792L499.535 156.035C499.022 157.521 498.442 157.99 497.291 158.008L493.227 158.251L494.477 161.173C494.907 162.108 494.56 162.612 493.757 163.148C485.454 168.706 484.035 172.37 484.035 172.37C484.035 172.37 484.013 168.354 491.076 157.188C492.876 154.338 495.963 150.301 498.15 147.036C501.001 142.782 500.398 141.085 500.398 141.085Z" fill="#7A797A"/>
<path d="M485.463 117.08L485.465 117.085L494.485 116.099L496.477 132.353C496.477 133.485 496.638 134.486 496.562 135.451C496.477 136.51 496.619 137.982 495.461 139.083C495.461 139.083 494.121 140.072 492.371 141.568C491.28 142.505 489.902 143.488 488.268 144.193C487.193 144.649 484.504 143.787 484.504 143.787C482.758 143.297 483.027 143.282 481.234 138.547C481.234 138.547 478.299 129.881 477.381 127.258C474.775 119.805 477.514 117.764 477.514 117.764L485.463 117.08Z" fill="#EDC3A4"/>
<path d="M475.539 121.616C475.613 121.859 476.694 125.79 477.049 126.233C477.049 126.233 474.935 119.786 478.446 120.487C478.512 120.502 481.07 121.835 482.649 122.641C483.537 123.094 485.294 123.596 485.412 123.383C485.554 123.125 484.594 121.365 486.465 121.131C488.803 120.838 490.698 123.469 491.331 126.757C491.817 129.28 492.198 131.365 492.216 131.391C492.394 131.676 495.132 127.977 495.314 127.832C495.63 127.58 496.642 129.032 496.642 129.032C496.582 129.032 498.504 133.174 498.514 133.116C498.689 132.066 500.606 126.341 500.759 125.654C503.275 114.477 493.21 102.658 476.768 116.293C475.445 117.389 474.367 117.874 475.539 121.616Z" fill="#49260A"/>
<path d="M495.779 124.695C493.203 124.295 493.285 128.26 493.285 128.26L493.629 132.681C493.629 132.681 493.955 134.293 495.008 134.287C496.231 134.281 496.996 133.364 497.515 131.855C497.548 131.771 498.325 129.633 498.362 129.499C498.9 127.626 498.346 125.098 495.779 124.695Z" fill="#EDC3A4"/>
<path d="M481.564 139.467C481.564 139.467 482.307 136.592 482.852 136.247C483.408 135.894 483.552 136.014 484.605 136.014C485.661 136.014 486.933 136.298 487.297 136.481C488.997 137.342 492.098 141.807 492.098 141.807L489.814 143.503C489.814 143.503 487.064 138.646 486.246 138.003C485.646 137.532 483.828 137.33 483.377 137.943C482.736 138.822 482.149 141.045 482.149 141.045L481.564 139.467Z" fill="#49260A"/>
<path d="M496.545 132.794C496.545 132.794 497.308 136.014 497.308 137.359C497.308 138.703 496.367 139.532 494.557 141.22C492.497 143.149 490.492 144.797 489.348 145.14C487.423 145.725 483.747 144.932 482.97 143.855C482.61 143.359 481.998 140.605 481.998 140.605C481.998 140.605 483.044 142.644 483.723 142.474C484.167 142.363 484.331 141.72 484.331 141.72C484.331 141.72 484.476 140.808 485.298 141.75C485.942 142.483 486.345 142.91 486.573 142.948C488.354 143.262 490.059 142.292 491.748 141.026C493.723 139.546 495.853 137.057 495.972 136.261C496.152 135.097 496.545 132.794 496.545 132.794Z" fill="#49260A"/>
<path d="M459.412 179.262C458.025 179.262 456.78 178.296 456.48 176.886C456.135 175.265 457.17 173.672 458.791 173.327C461.402 172.772 465.327 172.757 470.76 172.736C480.158 172.7 494.363 172.646 510.639 169.425C521.341 167.306 532.83 163.516 544.994 159.502C554.147 156.483 563.611 153.36 573.408 150.727C589.68 146.354 606.991 143.855 623.467 143.501C660.395 142.708 684.328 119.925 709.666 95.8043C720.501 85.4903 731.704 74.8243 744.033 65.9763C758.654 55.4833 768.331 51.8593 780.583 47.2703L783.605 46.1383C789.051 44.3233 794.777 42.6683 800.838 40.9173C814.606 36.9403 828.842 32.8263 839.748 26.6913C841.191 25.8783 843.02 26.3913 843.833 27.8353C844.646 29.2793 844.134 31.1083 842.689 31.9203C831.176 38.3963 816.599 42.6083 802.502 46.6803C796.52 48.4093 790.87 50.0413 785.554 51.8113L782.686 52.8883C770.851 57.3203 761.503 60.8213 747.53 70.8493C735.539 79.4543 724.489 89.9733 713.801 100.147C688.75 123.995 662.846 148.654 623.594 149.497C607.593 149.84 590.778 152.268 574.963 156.517C565.329 159.106 555.946 162.202 546.872 165.196C534.527 169.269 522.867 173.116 511.801 175.306C494.959 178.639 480.409 178.695 470.78 178.732C465.898 178.751 462.043 178.765 460.037 179.192C459.829 179.241 459.619 179.262 459.412 179.262Z" fill="#1E94D6"/>
<path d="M396.775 246.143C396.771 246.084 396.765 246.026 396.759 245.968C396.745 245.832 396.73 245.693 396.708 245.555C396.698 245.494 396.69 245.435 396.68 245.373C396.653 245.205 396.62 245.033 396.581 244.861C396.575 244.84 396.571 244.815 396.565 244.793C396.52 244.602 396.467 244.406 396.412 244.215C396.393 244.157 396.378 244.1 396.358 244.042C396.313 243.901 396.266 243.762 396.217 243.621C396.193 243.557 396.17 243.495 396.148 243.431C396.09 243.278 396.028 243.126 395.962 242.975C395.944 242.935 395.928 242.892 395.912 242.852C395.908 242.846 395.905 242.836 395.903 242.83C395.889 242.806 395.878 242.782 395.865 242.756C395.764 242.53 395.655 242.31 395.541 242.089C395.501 242.013 395.459 241.939 395.419 241.862C395.316 241.676 395.208 241.493 395.097 241.313C395.057 241.249 395.019 241.182 394.977 241.12C394.828 240.884 394.67 240.656 394.504 240.434C394.472 240.389 394.438 240.349 394.406 240.306C394.268 240.125 394.127 239.95 393.978 239.779C393.953 239.749 393.929 239.715 393.903 239.686C393.868 239.646 393.83 239.611 393.796 239.571C393.695 239.463 393.596 239.356 393.492 239.251C393.426 239.185 393.357 239.114 393.291 239.05C393.184 238.945 393.072 238.847 392.962 238.75C392.896 238.689 392.83 238.63 392.761 238.573C392.64 238.471 392.516 238.376 392.391 238.284C392.331 238.241 392.272 238.192 392.213 238.149C392.026 238.019 391.838 237.895 391.648 237.785L343.334 209.895C341.898 209.064 340.598 208.987 339.659 209.533C334.627 212.456 329.596 215.382 324.566 218.305C325.504 217.758 326.803 217.835 328.241 218.667L376.553 246.558C376.744 246.667 376.933 246.79 377.117 246.921C377.18 246.964 377.238 247.014 377.3 247.06C377.422 247.152 377.545 247.244 377.668 247.345C377.736 247.403 377.804 247.464 377.875 247.524C377.98 247.621 378.088 247.716 378.193 247.818C378.265 247.886 378.334 247.957 378.403 248.029C378.503 248.13 378.602 248.236 378.699 248.34C378.762 248.411 378.825 248.482 378.884 248.552C379.033 248.723 379.176 248.902 379.315 249.081C379.347 249.124 379.379 249.161 379.411 249.204C379.575 249.428 379.733 249.657 379.886 249.893C379.927 249.955 379.964 250.02 380.004 250.082C380.113 250.262 380.221 250.447 380.323 250.633C380.364 250.709 380.408 250.784 380.447 250.863C380.558 251.072 380.662 251.285 380.76 251.5C380.78 251.544 380.803 251.588 380.821 251.633C380.835 251.66 380.844 251.687 380.855 251.715C380.927 251.878 380.993 252.043 381.055 252.209C381.078 252.269 381.098 252.326 381.121 252.387C381.172 252.532 381.219 252.675 381.266 252.819C381.282 252.874 381.301 252.929 381.317 252.985C381.374 253.179 381.426 253.372 381.47 253.567C381.477 253.589 381.481 253.613 381.486 253.633C381.524 253.805 381.558 253.977 381.587 254.145C381.597 254.206 381.605 254.266 381.613 254.327C381.635 254.468 381.651 254.604 381.663 254.741C381.671 254.8 381.676 254.856 381.679 254.915C381.695 255.105 381.702 255.292 381.702 255.476L381.671 266.949C381.661 270.287 380.493 272.821 378.461 274C383.493 271.078 388.524 268.152 393.557 265.229C395.589 264.048 396.755 261.515 396.765 258.179L396.798 246.704C396.799 246.52 396.79 246.332 396.775 246.143Z" fill="#60B4FA"/>
<path d="M376.555 246.557C379.409 248.204 381.713 252.197 381.703 255.475L381.672 266.948C381.66 270.702 380.187 273.436 377.666 274.376L356.242 282.396C355.086 282.828 353.672 282.561 352.26 281.743C350.848 280.929 349.436 279.564 348.287 277.804L326.976 245.111C324.469 241.269 323.016 236.845 323.027 233.091L323.059 221.618C323.068 218.341 325.387 217.016 328.243 218.667L376.555 246.557Z" fill="#1E94D6"/>
<path d="M374.109 267.791C374.126 267.746 374.144 267.701 374.161 267.654C374.222 267.485 374.284 267.307 374.342 267.123C374.354 267.087 374.365 267.049 374.376 267.014C374.424 266.86 374.466 266.703 374.51 266.543C374.527 266.483 374.541 266.421 374.558 266.358C374.6 266.199 374.637 266.037 374.673 265.87C374.683 265.825 374.696 265.781 374.703 265.733C374.745 265.528 374.785 265.315 374.82 265.099C374.831 265.04 374.84 264.979 374.848 264.92C374.872 264.752 374.897 264.584 374.917 264.412C374.927 264.344 374.937 264.273 374.942 264.202C374.967 263.989 374.987 263.769 375.002 263.551C375.003 263.535 375.003 263.522 375.006 263.504C375.021 263.272 375.029 263.037 375.034 262.801C375.037 262.727 375.037 262.655 375.037 262.58C375.04 262.399 375.037 262.215 375.03 262.035C375.03 261.967 375.03 261.896 375.026 261.83C375.016 261.588 375.003 261.344 374.982 261.099C374.978 261.051 374.971 261.005 374.966 260.959C374.947 260.757 374.922 260.553 374.896 260.352C374.885 260.274 374.872 260.197 374.862 260.122C374.83 259.923 374.795 259.726 374.757 259.529C374.743 259.473 374.734 259.419 374.725 259.365C374.672 259.122 374.613 258.878 374.545 258.635C374.528 258.571 374.509 258.508 374.49 258.444C374.434 258.258 374.377 258.071 374.313 257.887C374.29 257.813 374.262 257.739 374.235 257.664C374.155 257.441 374.067 257.219 373.971 256.998C373.963 256.982 373.959 256.967 373.951 256.949C373.951 256.947 373.949 256.942 373.949 256.942C373.85 256.721 373.743 256.504 373.631 256.29C373.596 256.223 373.559 256.158 373.523 256.091C373.44 255.938 373.354 255.787 373.262 255.641C373.216 255.567 373.173 255.495 373.125 255.423C373.031 255.276 372.931 255.129 372.827 254.984C372.781 254.923 372.738 254.859 372.691 254.798C372.539 254.595 372.381 254.399 372.212 254.202H372.211C372.205 254.198 372.2 254.192 372.197 254.186C372.033 254.001 371.861 253.819 371.679 253.644C371.62 253.586 371.558 253.53 371.495 253.471C371.363 253.347 371.225 253.227 371.087 253.108C371.014 253.044 370.94 252.985 370.864 252.926C370.718 252.808 370.566 252.695 370.411 252.584C370.34 252.531 370.269 252.48 370.196 252.43C369.964 252.272 369.728 252.117 369.475 251.975C362.366 247.871 344.049 237.252 335.706 232.321C328.42 228.014 321.477 232.385 320.647 232.866C320.647 232.866 306.028 242.596 298.994 247.796C298.158 248.415 306.539 247.112 308.156 248.047C316.549 252.894 335.196 263.659 342.305 267.765C342.556 267.91 342.793 268.062 343.024 268.218C343.099 268.269 343.17 268.322 343.242 268.374C343.396 268.483 343.548 268.599 343.693 268.716C343.768 268.775 343.843 268.835 343.916 268.897C344.057 269.017 344.193 269.138 344.325 269.262C344.386 269.32 344.45 269.375 344.509 269.433C344.69 269.609 344.863 269.792 345.026 269.976C345.031 269.984 345.037 269.988 345.042 269.992C345.211 270.187 345.369 270.384 345.521 270.588C345.567 270.648 345.611 270.711 345.657 270.773C345.759 270.918 345.862 271.064 345.955 271.213C346.004 271.285 346.049 271.355 346.091 271.428C346.184 271.578 346.271 271.729 346.356 271.885C346.392 271.948 346.428 272.012 346.463 272.078C346.574 272.294 346.682 272.512 346.779 272.734C346.783 272.748 346.79 272.761 346.797 272.773C346.895 273 346.983 273.226 347.068 273.455C347.094 273.527 347.118 273.6 347.143 273.672C347.206 273.858 347.266 274.047 347.321 274.235C347.338 274.299 347.357 274.361 347.376 274.423C347.442 274.668 347.503 274.909 347.556 275.157C347.568 275.209 347.574 275.262 347.587 275.314C347.624 275.513 347.66 275.712 347.692 275.911C347.703 275.989 347.716 276.065 347.726 276.139C347.755 276.345 347.778 276.546 347.797 276.75C347.803 276.798 347.808 276.843 347.813 276.89C347.834 277.134 347.849 277.376 347.858 277.619C347.861 277.688 347.861 277.758 347.862 277.824C347.869 278.008 347.87 278.189 347.869 278.371C347.868 278.443 347.868 278.517 347.866 278.59C347.861 278.826 347.852 279.063 347.838 279.295C347.835 279.311 347.834 279.326 347.832 279.342C347.818 279.563 347.797 279.778 347.773 279.994C347.768 280.064 347.757 280.133 347.75 280.202C347.727 280.374 347.703 280.543 347.68 280.711C347.67 280.771 347.661 280.83 347.652 280.891C347.617 281.106 347.577 281.318 347.535 281.526C347.524 281.573 347.513 281.615 347.505 281.661C347.468 281.827 347.431 281.989 347.39 282.148C347.374 282.211 347.357 282.274 347.34 282.336C347.3 282.495 347.255 282.651 347.207 282.803C347.196 282.841 347.186 282.88 347.173 282.915C347.116 283.1 347.054 283.276 346.992 283.446C346.974 283.492 346.957 283.538 346.94 283.583C346.891 283.712 346.84 283.837 346.788 283.958C346.766 284.006 346.749 284.052 346.728 284.095C346.659 284.247 346.59 284.398 346.516 284.538C346.057 285.418 342.035 293.046 335.745 296.699L362.916 280.909C369.204 277.256 373.228 269.627 373.686 268.747C373.759 268.61 373.829 268.461 373.897 268.306C373.918 268.261 373.937 268.216 373.956 268.169C374.008 268.045 374.06 267.92 374.109 267.791Z" fill="#60B4FA"/>
<path d="M342.311 267.766C349.336 271.823 348.399 280.924 346.517 284.536C345.786 285.94 335.953 304.567 322.332 296.703C308.428 288.676 298.286 256.897 297.464 254.639C295.04 247.973 301.808 244.379 308.529 248.26C316.92 253.107 335.201 263.66 342.311 267.766Z" fill="#1E94D6"/>
<path d="M329.039 278.467C329.03 278.389 329.022 278.312 329.011 278.234C328.967 277.903 328.912 277.572 328.832 277.239C328.828 277.223 328.824 277.208 328.82 277.194C328.744 276.87 328.647 276.549 328.541 276.223C328.518 276.147 328.491 276.071 328.466 275.991C328.348 275.661 328.222 275.328 328.077 275C328.074 274.994 328.072 274.988 328.07 274.98C328.056 274.953 328.042 274.922 328.027 274.894C327.91 274.635 327.785 274.379 327.654 274.127C327.609 274.042 327.562 273.956 327.515 273.871C327.396 273.656 327.272 273.444 327.143 273.232C327.097 273.161 327.054 273.089 327.008 273.015C326.835 272.745 326.654 272.482 326.464 272.226C326.426 272.175 326.386 272.129 326.349 272.08C326.192 271.873 326.03 271.674 325.862 271.477C325.833 271.442 325.802 271.4 325.772 271.367C325.73 271.32 325.685 271.277 325.644 271.23C325.533 271.108 325.421 270.99 325.306 270.872C325.225 270.791 325.145 270.709 325.064 270.631C324.943 270.516 324.821 270.405 324.699 270.295C324.617 270.225 324.54 270.152 324.457 270.083C324.32 269.97 324.181 269.865 324.041 269.762C323.969 269.707 323.898 269.652 323.825 269.6C323.613 269.45 323.396 269.309 323.176 269.183C321.523 268.227 320.025 268.138 318.946 268.766L313.932 271.676C315.016 271.049 316.513 271.139 318.165 272.094C318.385 272.221 318.601 272.362 318.815 272.512C318.885 272.563 318.957 272.617 319.026 272.671C319.169 272.776 319.308 272.884 319.447 272.997C319.527 273.064 319.604 273.135 319.683 273.202C319.808 273.314 319.934 273.426 320.056 273.546C320.134 273.623 320.212 273.7 320.29 273.78C320.407 273.899 320.522 274.021 320.636 274.148C320.708 274.225 320.778 274.305 320.849 274.386C321.018 274.583 321.182 274.786 321.342 274.993C321.378 275.042 321.416 275.089 321.451 275.138C321.642 275.392 321.823 275.658 321.997 275.929C322.044 275.999 322.087 276.071 322.132 276.146C322.26 276.355 322.385 276.566 322.502 276.783C322.55 276.869 322.597 276.954 322.644 277.041C322.774 277.29 322.897 277.541 323.012 277.795C323.03 277.835 323.049 277.875 323.067 277.913C323.209 278.239 323.337 278.568 323.453 278.899C323.48 278.98 323.507 279.06 323.533 279.14C323.636 279.456 323.73 279.774 323.805 280.089C323.811 280.11 323.818 280.132 323.822 280.152C323.9 280.484 323.956 280.812 323.998 281.14C324.011 281.22 324.019 281.301 324.027 281.38C324.064 281.71 324.088 282.038 324.088 282.357C324.083 284.23 323.421 285.549 322.356 286.167L327.366 283.256C328.432 282.635 329.094 281.317 329.101 279.445C329.101 279.125 329.075 278.797 329.039 278.467Z" fill="#60B4FA"/>
<path d="M318.165 272.094C321.447 273.989 324.1 278.581 324.088 282.358C324.077 286.129 321.408 287.649 318.127 285.755C314.841 283.858 312.189 279.264 312.199 275.494C312.211 271.717 314.879 270.197 318.165 272.094Z" fill="#176FFF"/>
<path d="M482.05 192.998C482.068 192.953 482.085 192.907 482.103 192.861C482.166 192.689 482.227 192.515 482.286 192.332C482.297 192.295 482.308 192.256 482.32 192.222C482.365 192.069 482.41 191.912 482.455 191.752C482.47 191.692 482.485 191.627 482.5 191.567C482.542 191.407 482.579 191.245 482.615 191.078C482.624 191.034 482.638 190.987 482.646 190.943C482.69 190.735 482.728 190.523 482.763 190.307C482.774 190.248 482.783 190.187 482.791 190.127C482.816 189.961 482.842 189.791 482.858 189.62C482.869 189.549 482.878 189.482 482.885 189.41C482.907 189.194 482.927 188.978 482.943 188.759C482.945 188.744 482.946 188.729 482.948 188.711C482.964 188.481 482.973 188.244 482.977 188.006C482.979 187.936 482.979 187.861 482.98 187.788C482.981 187.607 482.979 187.424 482.976 187.24C482.973 187.172 482.972 187.105 482.969 187.034C482.96 186.795 482.946 186.552 482.924 186.306C482.92 186.259 482.914 186.212 482.908 186.166C482.89 185.964 482.864 185.761 482.837 185.558C482.827 185.482 482.815 185.404 482.803 185.328C482.773 185.129 482.738 184.932 482.699 184.736C482.688 184.681 482.68 184.626 482.668 184.572C482.614 184.329 482.555 184.084 482.488 183.842C482.469 183.779 482.451 183.716 482.431 183.653C482.378 183.465 482.319 183.279 482.256 183.094C482.231 183.02 482.205 182.946 482.179 182.871C482.098 182.648 482.01 182.426 481.914 182.205C481.907 182.189 481.902 182.172 481.894 182.156C481.893 182.154 481.891 182.152 481.89 182.15C481.793 181.929 481.686 181.712 481.576 181.498C481.541 181.43 481.503 181.366 481.468 181.299C481.383 181.149 481.298 180.995 481.205 180.848C481.16 180.776 481.115 180.702 481.07 180.631C480.972 180.483 480.873 180.336 480.77 180.193C480.724 180.131 480.681 180.067 480.633 180.006C480.482 179.804 480.321 179.606 480.154 179.411C480.148 179.406 480.143 179.402 480.139 179.396C479.976 179.211 479.802 179.031 479.622 178.853C479.563 178.794 479.501 178.738 479.439 178.681C479.306 178.556 479.17 178.437 479.03 178.316C478.957 178.255 478.884 178.193 478.807 178.134C478.661 178.017 478.51 177.904 478.356 177.792C478.281 177.74 478.213 177.688 478.137 177.636C477.907 177.48 477.669 177.327 477.418 177.183C470.307 173.078 450.839 161.953 442.496 157.02C435.211 152.714 428.267 157.081 427.437 157.562L406.9 169.5C407.726 169.018 408.9 169.1 410.517 170.035C418.912 174.881 443.137 188.868 450.249 192.974C450.499 193.12 450.738 193.271 450.968 193.427C451.041 193.478 451.112 193.532 451.186 193.582C451.338 193.691 451.493 193.807 451.638 193.924C451.711 193.983 451.786 194.045 451.86 194.106C452.003 194.225 452.136 194.348 452.269 194.471C452.33 194.529 452.393 194.585 452.452 194.643C452.635 194.82 452.806 195 452.97 195.184C452.974 195.192 452.981 195.197 452.984 195.2C453.154 195.395 453.313 195.595 453.464 195.796C453.51 195.857 453.555 195.921 453.599 195.984C453.702 196.127 453.803 196.273 453.9 196.422C453.946 196.494 453.991 196.566 454.037 196.639C454.127 196.788 454.215 196.939 454.299 197.092C454.334 197.158 454.371 197.223 454.406 197.288C454.517 197.502 454.625 197.721 454.722 197.943C454.727 197.957 454.734 197.97 454.739 197.986C454.836 198.21 454.927 198.437 455.009 198.667C455.035 198.736 455.061 198.809 455.084 198.881C455.149 199.069 455.208 199.255 455.263 199.445C455.284 199.508 455.301 199.57 455.319 199.632C455.385 199.875 455.446 200.119 455.497 200.365C455.51 200.418 455.519 200.47 455.528 200.523C455.568 200.722 455.603 200.922 455.635 201.121C455.646 201.197 455.657 201.273 455.668 201.348C455.695 201.553 455.72 201.756 455.74 201.96C455.745 202.006 455.751 202.053 455.756 202.098C455.776 202.34 455.789 202.586 455.798 202.828C455.803 202.896 455.803 202.965 455.805 203.033C455.809 203.215 455.811 203.396 455.811 203.578C455.809 203.651 455.809 203.724 455.807 203.799C455.801 204.034 455.793 204.271 455.779 204.502C455.778 204.519 455.774 204.534 455.774 204.549C455.758 204.77 455.739 204.988 455.716 205.201C455.708 205.272 455.699 205.343 455.69 205.412C455.67 205.582 455.646 205.75 455.621 205.919C455.612 205.979 455.603 206.039 455.594 206.098C455.558 206.315 455.521 206.526 455.477 206.735C455.467 206.78 455.455 206.823 455.447 206.87C455.412 207.034 455.372 207.198 455.332 207.356C455.316 207.419 455.301 207.482 455.285 207.544C455.241 207.702 455.195 207.859 455.151 208.011C455.137 208.049 455.128 208.087 455.117 208.123C455.056 208.307 454.998 208.483 454.933 208.655C454.917 208.702 454.898 208.747 454.881 208.791C454.831 208.919 454.78 209.045 454.729 209.166C454.711 209.214 454.689 209.259 454.669 209.302C454.601 209.458 454.531 209.606 454.458 209.745C453.999 210.626 449.975 218.252 443.687 221.905L470.858 206.116C477.145 202.464 481.169 194.838 481.628 193.955C481.7 193.817 481.77 193.667 481.839 193.515C481.86 193.472 481.88 193.424 481.898 193.376C481.949 193.254 482 193.129 482.05 192.998Z" fill="#1E94D6"/>
<path d="M450.252 192.974C457.278 197.029 456.339 206.131 454.458 209.743C453.726 211.147 443.894 229.774 430.273 221.911C416.369 213.882 406.92 184.201 406.23 181.898C404.759 176.963 403.801 166.155 410.521 170.036C418.915 174.881 443.141 188.868 450.252 192.974Z" fill="#C6C7C8"/>
<path d="M469.76 198.193C469.755 198.134 469.749 198.076 469.744 198.018C469.731 197.88 469.715 197.742 469.694 197.604C469.684 197.542 469.677 197.484 469.666 197.423C469.638 197.253 469.604 197.083 469.567 196.911C469.561 196.889 469.557 196.866 469.551 196.843C469.508 196.651 469.454 196.454 469.399 196.262C469.381 196.206 469.362 196.148 469.342 196.092C469.299 195.949 469.251 195.812 469.201 195.669C469.179 195.606 469.157 195.544 469.133 195.48C469.076 195.327 469.012 195.173 468.949 195.024C468.931 194.983 468.915 194.941 468.896 194.901C468.894 194.891 468.891 194.883 468.887 194.878C468.876 194.854 468.864 194.827 468.849 194.804C468.748 194.579 468.64 194.357 468.527 194.137C468.487 194.06 468.445 193.986 468.405 193.911C468.302 193.725 468.195 193.541 468.084 193.362C468.044 193.296 468.004 193.231 467.965 193.169C467.814 192.935 467.656 192.703 467.491 192.482C467.46 192.438 467.425 192.397 467.391 192.355C467.254 192.174 467.112 191.999 466.964 191.828C466.939 191.798 466.914 191.764 466.887 191.733C466.852 191.693 466.816 191.658 466.78 191.62C466.679 191.509 466.581 191.402 466.48 191.298C466.412 191.231 466.342 191.163 466.276 191.096C466.169 190.993 466.059 190.894 465.948 190.798C465.882 190.737 465.815 190.677 465.747 190.621C465.624 190.52 465.501 190.425 465.377 190.333C465.317 190.287 465.259 190.241 465.197 190.198C465.011 190.066 464.823 189.944 464.632 189.833L416.319 161.941C414.881 161.114 413.584 161.035 412.644 161.581C407.612 164.504 402.58 167.428 397.549 170.354C398.489 169.808 399.787 169.885 401.224 170.713L449.537 198.606C449.726 198.716 449.915 198.84 450.102 198.97C450.163 199.013 450.222 199.062 450.284 199.107C450.407 199.199 450.529 199.292 450.65 199.39C450.721 199.452 450.791 199.511 450.857 199.574C450.965 199.67 451.073 199.764 451.177 199.865C451.247 199.935 451.318 200.004 451.387 200.076C451.487 200.178 451.584 200.282 451.683 200.39C451.746 200.461 451.808 200.531 451.869 200.602C452.017 200.773 452.16 200.951 452.299 201.131C452.331 201.172 452.364 201.211 452.395 201.254C452.559 201.476 452.717 201.707 452.87 201.942C452.909 202.005 452.948 202.068 452.986 202.13C453.097 202.314 453.205 202.497 453.308 202.685C453.35 202.759 453.392 202.836 453.432 202.912C453.541 203.125 453.647 203.336 453.743 203.552C453.764 203.597 453.786 203.639 453.805 203.686C453.817 203.709 453.826 203.74 453.839 203.765C453.909 203.929 453.975 204.096 454.038 204.262C454.06 204.32 454.082 204.379 454.103 204.44C454.155 204.583 454.203 204.727 454.248 204.872C454.266 204.927 454.285 204.981 454.301 205.038C454.356 205.229 454.41 205.425 454.455 205.618C454.461 205.641 454.463 205.665 454.47 205.686C454.506 205.858 454.54 206.028 454.57 206.198C454.581 206.258 454.589 206.318 454.598 206.379C454.618 206.517 454.635 206.655 454.648 206.792C454.653 206.852 454.659 206.909 454.664 206.968C454.677 207.157 454.686 207.343 454.686 207.529L454.655 219.002C454.643 222.34 453.478 224.874 451.446 226.053C456.477 223.127 461.509 220.205 466.54 217.28C468.571 216.1 469.737 213.569 469.749 210.232L469.78 198.758C469.782 198.568 469.773 198.383 469.76 198.193Z" fill="#60B4FA"/>
<path d="M449.54 198.607C452.392 200.254 454.696 204.248 454.688 207.526L454.657 218.999C454.643 222.751 453.171 225.485 450.652 226.425L429.225 234.446C428.071 234.879 426.655 234.611 425.243 233.795C423.832 232.981 422.421 231.615 421.272 229.856L399.959 197.16C397.453 193.317 396.002 188.895 396.012 185.143L396.044 173.67C396.054 170.392 398.373 169.066 401.226 170.715L449.54 198.607Z" fill="#1E94D6"/>
<path d="M411.493 185.662L411.481 189.154L380.615 207.094L380.626 203.601L411.493 185.662Z" fill="#1E94D6"/>
<mask id="mask0_277_1768" style="mask-type:luminance" maskUnits="userSpaceOnUse" x="373" y="201" width="8" height="7">
<path d="M373.844 205.46C373.847 204.296 373.851 203.132 373.852 201.967C373.851 202.559 374.243 203.151 375.024 203.602C376.576 204.499 379.083 204.499 380.627 203.601L380.616 207.094C379.072 207.99 376.565 207.99 375.015 207.094C374.232 206.643 373.842 206.052 373.844 205.46Z" fill="white"/>
</mask>
<g mask="url(#mask0_277_1768)">
<path d="M380.626 203.601L380.615 207.094C379.071 207.99 376.564 207.99 375.014 207.094C374.231 206.643 373.84 206.052 373.842 205.46L373.85 201.967C373.849 202.559 374.241 203.151 375.022 203.602C376.574 204.498 379.082 204.498 380.626 203.601Z" fill="#1E94D6"/>
</g>
<path d="M411.494 185.662L380.627 203.6C379.083 204.498 376.575 204.498 375.024 203.601C373.471 202.705 373.462 201.253 375.006 200.355L405.874 182.417L411.494 185.662Z" fill="#60B4FA"/>
<path d="M403.067 233.697L400.049 231.941L424.437 218.08L427.455 219.833L403.067 233.697Z" fill="#60B4FA"/>
<mask id="mask1_277_1768" style="mask-type:luminance" maskUnits="userSpaceOnUse" x="397" y="231" width="7" height="10">
<path d="M401.085 240.354L398.065 238.6C397.561 238.305 397.247 237.684 397.246 236.795C397.24 235.014 398.494 232.84 400.049 231.941L403.068 233.697C401.514 234.592 400.261 236.768 400.265 238.551C400.267 239.436 400.58 240.061 401.085 240.354Z" fill="white"/>
</mask>
<g mask="url(#mask1_277_1768)">
<path d="M401.085 240.354L398.065 238.6C397.561 238.305 397.247 237.684 397.246 236.795C397.24 235.014 398.494 232.84 400.049 231.941L403.068 233.697C401.514 234.592 400.261 236.768 400.265 238.551C400.267 239.436 400.58 240.061 401.085 240.354Z" fill="#60B4FA"/>
</g>
<path d="M427.455 219.833L427.473 226.295L403.084 240.155C401.53 241.052 400.268 240.334 400.264 238.551C400.26 236.769 401.513 234.592 403.067 233.697L427.455 219.833Z" fill="#1E94D6"/>
<path d="M445.224 205.274L445.215 208.765L414.346 226.702L414.357 223.211L445.224 205.274Z" fill="#1E94D6"/>
<mask id="mask2_277_1768" style="mask-type:luminance" maskUnits="userSpaceOnUse" x="407" y="221" width="8" height="7">
<path d="M407.574 225.068C407.577 223.908 407.58 222.744 407.584 221.58C407.582 222.17 407.972 222.762 408.755 223.212C410.306 224.108 412.812 224.108 414.357 223.211L414.345 226.702C412.801 227.599 410.295 227.599 408.743 226.705C407.964 226.254 407.572 225.66 407.574 225.068Z" fill="white"/>
</mask>
<g mask="url(#mask2_277_1768)">
<path d="M414.355 223.211L414.343 226.702C412.799 227.599 410.293 227.599 408.741 226.705C407.962 226.254 407.57 225.66 407.572 225.068L407.582 221.58C407.58 222.17 407.97 222.762 408.753 223.212C410.305 224.108 412.81 224.108 414.355 223.211Z" fill="#1E94D6"/>
</g>
<path d="M445.224 205.274L414.358 223.212C412.813 224.109 410.307 224.109 408.756 223.213C407.201 222.317 407.193 220.863 408.736 219.969L439.602 202.031L445.224 205.274Z" fill="#60B4FA"/>
<path opacity="0.29" d="M229.791 442.896C213.564 444.784 219.224 446.602 219.224 450.068C219.224 454.973 210.791 457.166 200.547 457.166C182.273 457.166 173.398 449.835 173.398 443.529C173.398 437.221 184.684 430.965 202.962 430.965C222.218 430.965 234.314 433.057 237.339 437.205C239.585 440.276 232.862 442.54 229.791 442.896Z" fill="#231F20"/>
<path d="M215.124 423.337L216.304 426.043C216.304 426.043 227.482 430.671 228.166 431.043C228.949 431.463 230.677 432.209 230.411 433.705C230.347 434.059 230.353 434.29 230.115 434.606C229.273 435.728 227.632 436.19 226.116 436.407C222.817 436.896 215.966 435.698 215.966 435.698C213.968 435.395 210.666 434.302 210.311 433.992C210.311 433.992 208.597 433.431 208.27 434.035C208.148 434.249 208.075 435.012 208.091 435.214L204.079 433.594C203.868 433.476 203.549 431.367 203.484 430.433L203.814 424.288L215.124 423.337Z" fill="#231F20"/>
<path d="M228.017 435.394C227.143 435.793 225.931 435.97 224.728 436.077C219.924 436.492 212.761 434.644 212.761 434.644C212.047 434.458 209.36 433.707 209.36 433.707C209.36 433.707 208.542 433.563 208.152 433.97C208.152 434.085 208.256 435.473 208.256 435.473L209.481 434.761C209.481 434.761 212.768 435.586 213.345 435.792C213.345 435.792 220.241 437.549 225.075 437.189C226.6 437.077 229.206 436.25 230.169 434.861C230.34 434.61 230.553 434.002 230.391 433.567C230.363 433.646 229.197 434.862 228.017 435.394Z" fill="#282827"/>
<path d="M208.271 434.034L203.662 431.786C203.662 431.786 203.972 433.627 204.037 433.595L208.257 435.474C208.248 435.326 208.266 434.416 208.271 434.034Z" fill="#282827"/>
<path d="M212.352 353.262L216.596 423.113C216.934 425.5 218.32 426.271 217.655 427.11C215.175 430.235 204.154 433.401 202.516 428.376L196.473 357.021L212.352 353.262Z" fill="#141413"/>
<path d="M177.735 435.53C177.735 435.53 177.518 442.365 177.503 442.525C177.264 445.561 180.533 453.338 185.288 453.814C185.996 453.888 188.483 453.641 188.483 453.641C188.483 453.641 191.733 453.521 191.122 447.356C190.884 444.963 188.611 435.31 188.611 435.31L177.735 435.53Z" fill="#383736"/>
<path d="M177.281 433.827C177.281 433.827 177.654 437.749 177.961 442.854C178.147 445.895 181.541 452.329 185.732 452.579C186.816 452.64 187.673 452.532 187.744 452.53C189.552 452.431 192.021 451.72 191.023 445.445C190.665 443.205 189.195 434.572 189.07 434.567L177.281 433.827Z" fill="#231F20"/>
<path d="M199.605 358.22C198.764 370.584 191.061 438.3 191.061 438.3C190.931 440.037 185.91 442.038 185.91 442.038C179.771 441.802 176.893 437.961 176.871 437.35L177.882 359.873L199.605 358.22Z" fill="#383736"/>
<path d="M216.812 348.835L218.251 343.592C218.251 343.592 220.061 342.802 225.667 343.773C228.297 344.229 230.48 345.63 230.48 345.63C230.48 345.63 233.679 347.881 232.488 351.307C231.881 353.049 230.401 353.492 230.401 353.492C229.14 353.821 227.707 352.926 226.382 352.605C225.061 352.285 220.656 352.12 220.656 352.12C218.524 351.877 216.845 349.916 216.812 348.835Z" fill="#E8C5AC"/>
<path d="M220.236 347.056C218.902 351.513 216.92 351.541 216.553 351.961C216.261 351.884 203.597 348.572 201.444 340.552C199.917 334.845 198.351 320.347 198.351 320.347C198.351 320.347 194.333 306.08 199.989 302.898C201.818 301.868 205.814 301.345 208.206 303C209.763 304.078 211.863 309.237 212.22 312.835C213.238 323.121 208.758 333.27 209.12 335.093C211.314 338.301 220.855 341.809 220.855 341.809C220.855 341.809 221.158 343.975 220.236 347.056Z" fill="#2C3133"/>
<path d="M187.488 310.057C187.488 310.057 190.985 304.622 193.957 303.663C196.932 302.706 206.263 303.745 206.263 303.745C206.263 303.745 210.645 314.894 210.65 315.637C210.656 316.384 207.189 335.8 207.189 335.8L195.262 325.18L187.488 310.057Z" fill="#D7DFE2"/>
<path d="M208.893 304.096C207.585 301.694 204.548 301.394 202.504 301.497C204.894 303.413 207.847 309.372 207.917 317.618C207.954 321.919 206.357 332.844 206.231 332.592C206.109 332.354 198.843 315.858 195.798 312.754C195.366 312.316 191.481 303.604 191.481 303.604C191.481 303.604 179.375 312.477 178.159 314.412C178.159 314.412 174.932 316.528 174.471 319.92C174.01 323.313 177.769 342.084 177.638 347.087C177.507 352.09 176.73 368.974 176.73 368.974C176.826 370.279 176.572 370.716 177.88 371.402C177.88 371.402 186.441 376.387 194.371 376.581C200.643 376.731 210.898 373.253 210.898 373.253C211.075 373.133 211.384 373.041 211.381 372.504L210.245 351.359C211.834 329.101 211.924 309.661 208.893 304.096Z" fill="#3D4244"/>
<path d="M205.385 374.855L205.294 350.088L206.651 333.053C206.651 333.053 206.055 331.508 205.815 331.018L204.686 349.919L204.66 375.069C204.873 375.028 205.28 374.915 205.385 374.855Z" fill="#383736"/>
<path d="M204.928 307.854C200.438 312.564 195.927 306.89 192.83 303.424L192.84 291.546L204.129 294.482L204.928 307.854Z" fill="#E8C5AC"/>
<path d="M204.689 316.128C204.596 315.664 204.316 315.176 204.439 314.639L204.856 313.004L202.768 309.511L201.573 309.674L200.695 313.447L202.241 314.833C202.586 315.189 203.031 315.892 202.984 316.369L203.552 327.238L206.185 331.958C206.185 331.958 207.411 328.701 207.436 327.474C207.525 323.157 204.689 316.128 204.689 316.128Z" fill="#160B01"/>
<path d="M204.586 303.761L205.408 301.937C205.408 301.937 206.289 302.475 206.486 302.626C207.588 303.465 208.145 304.688 208.552 305.465C209.37 307.02 211.365 311.904 211.365 311.904C211.749 313.021 211.475 313.765 210.826 314.471L208.947 316.594L210.669 318.123C211.804 318.982 211.343 320.626 210.921 321.77C209.437 325.811 206.187 331.956 206.187 331.956C206.187 331.956 207.325 324.603 207.424 320.223C207.658 310.333 204.586 303.761 204.586 303.761Z" fill="#7A797A"/>
<path d="M202.512 308.839C201.858 309.369 202.358 310.082 202.712 310.58L204.93 313.661C205.637 314.58 205.954 313.54 205.967 312.565L206.232 305.545C206.089 301.85 204.507 301.486 204.507 301.486C204.507 301.486 204.546 302.377 204.455 303.51C204.328 305.021 204.383 307.323 202.512 308.839Z" fill="white"/>
<path d="M192.906 299.069C192.906 299.069 193.012 301.436 193.399 302.503C195.292 307.743 201.604 309.004 201.604 309.004C202.339 309.279 202.309 309.638 202.195 310.888L201.481 315.446C201.367 316.645 200.744 316.525 200.266 316.031C200.266 316.031 195.442 311.891 194.09 310.502C190.904 307.231 190.579 304.894 191.732 300.739C192.13 299.295 192.906 299.069 192.906 299.069Z" fill="white"/>
<path d="M191.799 300.498L189.092 305.188C189.092 305.188 188.616 305.774 188.697 307.046C188.752 307.942 189.127 309.202 189.127 309.202L191.825 315.704C192.257 317.24 192.821 317.748 193.986 317.831L198.091 318.309L196.658 321.199C196.17 322.124 196.492 322.654 197.274 323.245C205.379 329.351 206.607 333.147 206.607 333.147C206.607 333.147 206.858 329.078 200.334 317.353C198.671 314.363 195.77 310.093 193.739 306.659C191.092 302.184 191.799 300.498 191.799 300.498Z" fill="#7A797A"/>
<path d="M201.959 277.037L201.961 277.041L192.4 277.698L193.363 294.964C193.57 296.137 193.593 297.209 193.85 298.199C194.136 299.285 194.701 300.275 196.107 301.202C196.107 301.202 198.011 302.144 200.115 303.365C201.359 304.086 205.058 305.088 206.762 304.035C207.724 303.439 209.31 303.58 210.644 299.614C210.724 299.374 211.227 295.807 211.254 294.801L211.655 283.961L211.669 277.332L201.959 277.037Z" fill="#FFE1CC"/>
<path d="M210.673 274.479C212.938 276.167 211.554 280.981 211.55 280.944C211.359 278.919 209.155 277.752 208.193 278.224C206.317 279.146 200.392 282.162 199.736 282.608C197.862 283.884 197.705 286.643 197.889 288.143L197.987 289.65C198.038 290.433 198.225 291.321 197.451 291.287C196.633 291.248 196.68 290.931 196.399 290.107C196.399 290.107 195.115 287.478 192.981 287.927C191.159 288.311 192.814 292.52 192.936 292.733L192.892 297.87C192.677 297.827 192.037 296.67 191.01 294.774C189.115 291.276 188.849 290.517 188.304 289.45C182.038 277.181 191.589 267.042 203.783 269.901C206.063 270.437 210.673 274.479 210.673 274.479Z" fill="#A89678"/>
<path d="M193.332 287.727C195.806 287.566 196.237 289.925 196.237 289.925L196.559 294.898C196.559 294.898 196.51 295.987 195.589 296.237C194.199 296.615 193.508 295.426 192.79 294.11C192.747 294.037 191.816 292.091 191.762 291.975C190.963 290.325 190.989 287.878 193.332 287.727Z" fill="#FFE1CC"/>
<path d="M292.499 289.075C293.299 290.515 295.767 290.377 297.075 289.645C297.534 289.393 300.205 292.491 302.014 291.321C302.014 291.321 301.489 290.383 300.51 288.776C300.431 288.647 299.86 287.129 298.45 286.619C294.724 285.268 294.189 284.913 292.881 285.642C291.571 286.371 291.7 287.636 292.499 289.075Z" fill="#FFE8D9"/>
<path d="M0 579.459C18.99 567.452 48.395 509.78 69.91 467.582C81.622 444.612 90.872 426.468 95.762 420.898C111.64 402.808 132.992 392.811 152.922 394.151C157.396 394.452 161.767 395.099 165.993 395.725C185.084 398.552 200.164 400.783 212.535 371.189C215.916 363.1 219.206 356.355 222.592 350.571C241.918 317.552 289.33 290.245 315.873 276.906C317.35 276.162 319.155 276.759 319.9 278.239C320.644 279.719 320.046 281.523 318.566 282.267C292.617 295.308 246.315 321.917 227.769 353.602C224.52 359.153 221.347 365.663 218.07 373.503C203.9 407.401 184.179 404.483 165.114 401.66C161.004 401.052 156.754 400.423 152.517 400.137C134.475 398.924 114.924 408.16 100.271 424.856C95.876 429.862 86.32 448.605 75.255 470.307C52.019 515.883 23.099 572.605 2.649 584.874C2.166 585.164 0.525 586.114 0 586.114V579.459Z" fill="#1E94D6"/>
<path d="M489.002 198.884C489.629 199.096 499.364 197.086 508.822 194.445C510.649 193.935 514.196 190.303 514.534 186.915C514.578 186.477 516.482 163.705 516.088 160.06C515.756 156.981 514.42 153.616 509.771 153.624C505.521 153.627 503.849 160.818 503.999 162.902C504.243 166.263 504.301 181.86 502.78 182.581C498.548 184.586 488.1 187.742 488.1 187.742C488.1 187.742 485.532 188.943 485.453 192.071C485.402 194.035 486.308 197.983 489.002 198.884Z" fill="#4A4F51"/>
<path d="M488.994 188.276C488.994 188.276 487.47 187.637 487.015 189.709C486.56 191.783 486.721 194.646 487.589 196.529C488.254 197.977 488.879 198.439 489.891 198.124C490.934 197.8 491.74 194.496 491.267 192.536C490.798 190.576 489.995 188.32 488.994 188.276Z" fill="#D6EAE9"/>
<path d="M489.611 188.85C489.611 188.85 485.775 187.241 484.912 187.102C482.725 186.75 480.093 188.117 477.762 187.628C476.712 187.407 475.69 186.923 475.69 186.923C475.69 186.923 474.263 188.557 475.929 189.585C478.209 190.994 480.143 190.228 480.143 190.228C480.143 190.228 475.892 193.811 473.137 194.997C470.842 195.988 470.569 195.425 470.046 195.995C469.529 196.562 469.639 198.234 470.702 199.002C472.727 200.468 476.083 200.917 479.305 199.494C482.526 198.072 486.251 195.021 486.251 195.021L491.029 194.231L489.611 188.85Z" fill="#F2C8A5"/>
<path d="M488.254 188.163C488.254 188.163 489.514 188.238 490.127 191.86C490.485 193.982 490.652 196.145 490.489 196.827C490.191 198.059 489.407 198.197 489.437 198.215C489.502 198.25 491.063 197.943 491.063 197.943C491.063 197.943 493.315 196.148 491.772 191.288C490.912 188.578 489.977 188.254 489.977 188.254L488.254 188.163Z" fill="white"/>
<path d="M645.241 137.894L640.755 138.447L639.112 139.139L639.892 144.836C639.892 144.836 639.896 145.62 639.197 146.769C638.924 147.226 638.2 148.437 638.2 148.437C638.2 148.437 637.825 151.294 640.422 150.601C641.263 150.38 642.457 149.973 642.457 149.973C643.591 149.81 645.47 149.319 646.725 149.062C649.619 148.472 648.884 145.033 648.884 145.033L648.497 141.637C648.305 139.733 647.291 137.642 645.241 137.894Z" fill="#FFE1CC"/>
<path d="M644.295 141.314C646.061 141.297 647.179 140.595 647.179 140.595C647.179 140.595 648.697 139.781 648.718 138.329C648.78 133.986 646.744 119.05 645.929 113.712C645.037 107.85 624.072 96.0292 624.072 96.0292C624.134 96.0962 616.176 87.9472 611.315 92.2222C607.238 95.8072 609.845 100.18 612.985 103.749C615.455 106.56 633.834 117.049 633.834 117.049L638.351 139.249C638.351 139.249 640.199 141.354 644.295 141.314Z" fill="#585E60"/>
<path d="M729.689 83.0793C728.522 84.1053 728.967 81.0593 729.068 80.5823C729.287 79.5433 729.572 78.5663 730.287 77.7043C731.517 76.2183 733.705 74.9513 735.537 75.9813C737.68 77.1883 737.263 79.3493 735.908 80.9223C734.826 82.1803 732.862 84.6443 731.067 84.7123C730.189 84.7463 729.322 84.0433 729.189 83.2033L729.689 83.0793Z" fill="#F2C8A5"/>
<path d="M724.742 72.5253C724.742 72.5253 723.48 72.5443 722.707 76.1353C722.255 78.2393 721.991 80.3923 722.125 81.0813C722.367 82.3253 723.144 82.4983 723.113 82.5153C723.048 82.5473 721.502 82.1713 721.502 82.1713C721.502 82.1713 719.331 80.2773 721.089 75.4913C722.068 72.8223 723.016 72.5403 723.016 72.5403L724.742 72.5253Z" fill="white"/>
<path d="M725.863 79.4993C726.078 79.4103 726.711 80.2553 727.034 80.4023C727.562 80.6423 728.003 80.4543 728.511 80.2623C729.098 80.0393 729.588 79.8263 730.14 79.5123C730.575 79.2643 731.107 79.0113 731.57 79.3323C733.418 80.6163 729.734 83.7943 728.511 84.0333C727.489 84.2323 726.582 83.4003 725.705 82.9203C725.12 82.6003 724.484 82.3703 723.926 82.0573C722.789 81.4183 723.191 81.1283 723.368 80.0583L725.863 79.4993Z" fill="#F2C8A5"/>
<path d="M289.623 288.138L293.381 285.992L296.931 287.345C296.931 287.345 298.1 291.208 299.297 291.694C299.766 291.883 300.584 292.204 300.584 292.204C300.584 292.204 302.69 294.721 300.299 295.677C299.528 295.985 298.682 295.816 298.682 295.816C297.719 296.338 295.994 297.037 294.883 297.56C292.325 298.766 290.913 295.705 290.913 295.705L289.267 292.879C288.325 291.304 287.904 289.121 289.623 288.138Z" fill="#FFE8D9"/>
<path d="M292.642 290.139C291.112 290.851 289.857 290.706 289.857 290.706C289.857 290.706 288.207 290.63 287.588 289.382C285.744 285.651 278.976 268.78 277.476 263.828C275.83 258.394 273.678 243.492 273.678 243.492C273.678 243.492 271.265 232.942 277.278 231.254C282.284 229.851 284.439 234.23 285.667 238.616C286.636 242.063 289.312 261.724 289.312 261.724L296.932 285.898C296.932 285.898 296.202 288.483 292.642 290.139Z" fill="#383736"/>
<path d="M212.521 361.682L215.012 357.829L216.371 356.636L221.233 359.869C221.233 359.869 222.097 360.486 223.39 360.047C223.766 359.919 224.399 360.005 224.399 360.005C224.399 360.005 228.031 361.5 226.249 363.565C225.672 364.236 224.794 364.483 224.794 364.483C224.143 365.447 222.861 366.949 222.071 367.982C220.251 370.366 217.429 368.174 217.429 368.174L214.498 366.317C212.847 365.296 211.386 363.448 212.521 361.682Z" fill="#FFE1CC"/>
<path d="M216.066 362.334C215.27 363.938 214.134 364.65 214.134 364.65C214.134 364.65 212.718 365.678 211.381 365.054C207.383 363.188 190.779 353.407 187.555 348.972C184.011 344.105 176.664 329.938 176.664 329.938C176.713 330.017 170.609 320.192 176.003 316.435C180.524 313.284 184.205 316.915 186.967 320.874C189.139 323.992 198.668 342.741 198.668 342.741L216.808 355.985C216.808 355.985 217.918 358.608 216.066 362.334Z" fill="#585E60"/>
<path d="M219.787 348.779C221.344 349.49 224.104 348.748 225.101 347.55C225.452 347.138 228.121 348.949 229.555 349.11C231.061 349.276 231.317 347.795 231.167 347.393C231.048 347.077 226.531 345.161 225.413 344.638C223.082 343.543 221.877 343.42 220.902 343.828L220.534 345.912L219.787 348.779Z" fill="#FFE1CC"/>
</svg>
