<svg width="24" height="24" viewBox="0 0 24 24" fill="none" xmlns="http://www.w3.org/2000/svg">
<path d="M7.19771 20.1495C7.04354 20.1495 6.89921 20.1117 6.76471 20.0362C6.63021 19.9609 6.52804 19.8557 6.45821 19.7207L4.33421 15.9347H6.13896L7.00871 17.5665C7.07171 17.7026 7.16538 17.8051 7.28971 17.8737C7.41421 17.9424 7.54663 17.9767 7.68696 17.9767H9.09996C9.19996 17.9767 9.28746 17.9392 9.36246 17.8642C9.43746 17.7892 9.47496 17.7017 9.47496 17.6017C9.47496 17.5017 9.43746 17.4142 9.36246 17.3392C9.28746 17.2642 9.19996 17.2267 9.09996 17.2267H7.67671L6.80021 15.6007C6.73654 15.4647 6.64296 15.3614 6.51946 15.2907C6.39579 15.2201 6.26213 15.1847 6.11846 15.1847H3.93096L2.35921 12.4227C2.32454 12.3522 2.29621 12.2822 2.27421 12.2127C2.25221 12.1431 2.24121 12.0724 2.24121 12.0007C2.24121 11.9537 2.28054 11.8106 2.35921 11.5712L3.93096 8.81523H6.11846C6.26213 8.81523 6.39579 8.7799 6.51946 8.70923C6.64296 8.63856 6.73663 8.53515 6.80046 8.39898L7.67771 6.77148H9.10221C9.20171 6.77148 9.28871 6.73432 9.36321 6.65998C9.43771 6.58548 9.47496 6.49823 9.47496 6.39823C9.47496 6.29823 9.43746 6.21073 9.36246 6.13573C9.28746 6.06073 9.19996 6.02323 9.09996 6.02323H7.68696C7.54663 6.02323 7.41421 6.05806 7.28971 6.12773C7.16538 6.1974 7.07113 6.2999 7.00696 6.43523L6.13896 8.06523H4.33421L6.45821 4.27323C6.52804 4.14223 6.63021 4.03806 6.76471 3.96073C6.89921 3.88323 7.04354 3.84448 7.19771 3.84448H10.07C10.3105 3.84448 10.5125 3.92748 10.6762 4.09348C10.8399 4.25931 10.9217 4.46223 10.9217 4.70223V9.07723H8.75946C8.66029 9.07723 8.57321 9.11473 8.49821 9.18973C8.42321 9.26473 8.38571 9.35223 8.38571 9.45223C8.38571 9.55223 8.42321 9.63973 8.49821 9.71473C8.57321 9.78973 8.66029 9.82723 8.75946 9.82723H10.9217V13.1787H8.41721L7.63596 11.585C7.56596 11.4483 7.46713 11.3405 7.33946 11.2615C7.21179 11.1825 7.07596 11.143 6.93196 11.143H4.96896C4.86896 11.143 4.78146 11.1805 4.70646 11.2555C4.63146 11.3305 4.59396 11.418 4.59396 11.518C4.59396 11.618 4.63146 11.7055 4.70646 11.7805C4.78146 11.8555 4.86896 11.893 4.96896 11.893H6.92496L7.73696 13.4857C7.80363 13.6231 7.90079 13.7312 8.02846 13.8102C8.15613 13.8892 8.29188 13.9287 8.43571 13.9287H10.9217V19.2977C10.9217 19.5382 10.8399 19.7403 10.6762 19.904C10.5125 20.0676 10.3105 20.1495 10.07 20.1495H7.19771ZM14.3845 20.1495C13.8715 20.1495 13.4341 19.9681 13.0725 19.6055C12.7108 19.2428 12.53 18.8069 12.53 18.2977C12.53 17.9397 12.6216 17.6151 12.805 17.324C12.9883 17.0326 13.23 16.8143 13.53 16.669V7.33098C13.23 7.18565 12.9883 6.96731 12.805 6.67598C12.6216 6.38481 12.53 6.06406 12.53 5.71373C12.53 5.19106 12.7115 4.7489 13.0745 4.38723C13.4375 4.0254 13.8752 3.84448 14.3877 3.84448C14.9 3.84448 15.3367 4.0259 15.6977 4.38873C16.0587 4.7514 16.2392 5.18923 16.2392 5.70223C16.2392 6.06023 16.1475 6.38481 15.9642 6.67598C15.7809 6.96731 15.5392 7.18565 15.2392 7.33098V9.91798L17.6315 8.48373C17.5935 7.95506 17.757 7.49607 18.122 7.10673C18.4868 6.7174 18.938 6.52273 19.4757 6.52273C19.9899 6.52273 20.4282 6.70373 20.7907 7.06573C21.1534 7.4279 21.3347 7.8649 21.3347 8.37673C21.3347 8.88857 21.1534 9.32473 20.7907 9.68523C20.4279 10.0457 19.99 10.226 19.4772 10.226C19.2917 10.226 19.1171 10.2025 18.9535 10.1555C18.79 10.1085 18.6415 10.0443 18.5082 9.96298L15.9337 11.5162L18.7237 13.7575C18.8379 13.7115 18.9597 13.6728 19.0892 13.6415C19.2185 13.6101 19.3479 13.5945 19.4772 13.5945C19.99 13.5945 20.4279 13.7755 20.7907 14.1375C21.1534 14.4996 21.3347 14.9366 21.3347 15.4485C21.3347 15.9603 21.1532 16.3965 20.7902 16.757C20.4272 17.1175 19.9891 17.2977 19.476 17.2977C18.8775 17.2977 18.3984 17.0697 18.0387 16.6137C17.6792 16.1579 17.5561 15.6493 17.6695 15.088L15.2392 13.1337V16.69C15.5225 16.838 15.7559 17.0546 15.9392 17.3397C16.1225 17.6249 16.2142 17.9439 16.2142 18.2967C16.2142 18.8084 16.0361 19.2451 15.68 19.6067C15.3238 19.9686 14.892 20.1495 14.3845 20.1495Z" fill="#1E94D6"/>
</svg>
