<svg width="24" height="24" viewBox="0 0 24 24" fill="none" xmlns="http://www.w3.org/2000/svg">
<path d="M4.55384 3.55398V10.8752V10.7752V20.4465V3.55398ZM7.76084 13.5122H11.0213C11.2423 13.5122 11.4275 13.4366 11.5768 13.2852C11.7263 13.1339 11.8011 12.9463 11.8011 12.7225C11.8011 12.5005 11.7263 12.3156 11.5768 12.168C11.4275 12.0203 11.2423 11.9465 11.0213 11.9465H7.75509C7.53409 11.9465 7.34884 12.0216 7.19934 12.1717C7.04984 12.3219 6.97509 12.5081 6.97509 12.7302C6.97509 12.9522 7.05042 13.1381 7.20109 13.2877C7.35175 13.4374 7.53834 13.5122 7.76084 13.5122ZM7.76084 17.7622H9.52134C9.74234 17.7622 9.9275 17.6866 10.0768 17.5352C10.2263 17.3839 10.3011 17.1963 10.3011 16.9725C10.3011 16.7505 10.2263 16.5656 10.0768 16.418C9.9275 16.2703 9.74234 16.1965 9.52134 16.1965H7.75509C7.53409 16.1965 7.34884 16.2716 7.19934 16.4217C7.04984 16.5719 6.97509 16.7581 6.97509 16.9802C6.97509 17.2022 7.05042 17.3881 7.20109 17.5377C7.35175 17.6874 7.53834 17.7622 7.76084 17.7622ZM4.55384 22.1497C4.09384 22.1497 3.695 21.9808 3.35734 21.643C3.0195 21.3053 2.85059 20.9065 2.85059 20.4465V3.55398C2.85059 3.09231 3.0195 2.69206 3.35734 2.35323C3.695 2.01423 4.09384 1.84473 4.55384 1.84473H12.8761C13.1119 1.84473 13.3367 1.89239 13.5503 1.98773C13.764 2.08306 13.9474 2.20731 14.1006 2.36048L18.6398 6.89973C18.793 7.05289 18.9173 7.23631 19.0126 7.44998C19.1079 7.66364 19.1556 7.88839 19.1556 8.12423V10.3395C19.1556 10.5771 19.0712 10.7673 18.9023 10.91C18.7337 11.0528 18.5308 11.1242 18.2936 11.1242C18.0718 11.1242 17.8811 11.0543 17.7216 10.9145C17.5619 10.7746 17.4702 10.5946 17.4463 10.3742V8.20398H13.5728C13.3325 8.20398 13.1305 8.12214 12.9668 7.95848C12.8032 7.79481 12.7213 7.59281 12.7213 7.35248V3.55398H4.55384V20.4465H10.9746C11.2149 20.4465 11.4169 20.5287 11.5806 20.6932C11.7443 20.8577 11.8261 21.0608 11.8261 21.3025C11.8261 21.5441 11.7443 21.7457 11.5806 21.9072C11.4169 22.0689 11.2149 22.1497 10.9746 22.1497H4.55384Z" fill="#1E94D6"/>
<path fill-rule="evenodd" clip-rule="evenodd" d="M13 16.4917V14.4528C13 14.2928 13.0435 14.1439 13.1305 14.0063C13.2173 13.8688 13.3354 13.7627 13.4848 13.688L16.687 12.081C16.7942 12.027 16.9153 12 17.0503 12C17.1853 12 17.3107 12.027 17.4265 12.081L20.6228 13.688C20.7721 13.7627 20.8902 13.8688 20.977 14.0063C21.064 14.1439 21.1075 14.2928 21.1075 14.4528V16.4917C21.1075 17.7917 20.7773 18.8934 20.117 19.7968C19.4567 20.6999 18.5495 21.3932 17.3955 21.8765C17.3288 21.9098 17.2149 21.9305 17.0538 21.9385C17.0458 21.9385 16.9318 21.9178 16.712 21.8765C15.558 21.3932 14.6508 20.6999 13.9905 19.7968C13.3302 18.8934 13 17.7917 13 16.4917ZM15.344 16.375L16.5228 17.5538L19.0588 15.012C19.1588 14.912 19.2754 14.862 19.4088 14.862C19.5421 14.862 19.6588 14.912 19.7588 15.012C19.8588 15.112 19.9088 15.2297 19.9088 15.365C19.9088 15.5003 19.8588 15.618 19.7588 15.718L17.1255 18.363C16.9555 18.529 16.7556 18.613 16.5258 18.615C16.2959 18.617 16.096 18.533 15.926 18.363L14.644 17.081C14.544 16.981 14.494 16.8633 14.494 16.728C14.494 16.5927 14.544 16.475 14.644 16.375C14.744 16.275 14.8607 16.225 14.994 16.225C15.1273 16.225 15.244 16.275 15.344 16.375Z" fill="#1E94D6"/>
</svg>
