<svg width="48" height="48" viewBox="0 0 48 48" fill="none" xmlns="http://www.w3.org/2000/svg">
<path d="M23.9885 46.2751C20.2551 46.2751 16.6551 45.1871 13.1885 43.0111C9.72179 40.8348 6.97645 38.3459 4.95245 35.5446V40.6436C4.95245 41.1113 4.79779 41.5001 4.48845 41.8101C4.17879 42.1201 3.79045 42.2751 3.32345 42.2751C2.85679 42.2751 2.46779 42.1201 2.15645 41.8101C1.84512 41.5001 1.68945 41.1113 1.68945 40.6436V31.5716C1.68945 31.0826 1.85112 30.6766 2.17445 30.3536C2.49745 30.0303 2.90362 29.8686 3.39295 29.8686H12.4645C12.9321 29.8686 13.321 30.0234 13.631 30.3331C13.941 30.6424 14.096 31.0306 14.096 31.4976C14.096 31.9646 13.941 32.3536 13.631 32.6646C13.321 32.9759 12.9321 33.1316 12.4645 33.1316H7.24595C8.94595 35.6583 11.3611 37.9348 14.4915 39.9611C17.6215 41.9871 20.7856 43.0001 23.984 43.0001C28.9393 43.0001 33.2253 41.3406 36.842 38.0216C40.4586 34.7029 42.4908 30.6056 42.9385 25.7296C42.9718 25.2643 43.1458 24.8716 43.4605 24.5516C43.7755 24.2316 44.1679 24.0716 44.638 24.0716C45.066 24.0716 45.4438 24.2198 45.7715 24.5161C46.0995 24.8124 46.2468 25.1756 46.2135 25.6056C45.9918 28.5063 45.2601 31.2141 44.0185 33.7291C42.7768 36.2438 41.1581 38.4308 39.1625 40.2901C37.1668 42.1498 34.868 43.6121 32.266 44.6771C29.6636 45.7424 26.9045 46.2751 23.9885 46.2751ZM24.0005 5.0001C19.0481 5.0001 14.7636 6.6596 11.147 9.9786C7.53029 13.2973 5.50212 17.3946 5.06245 22.2706C5.02245 22.7329 4.84495 23.1248 4.52995 23.4461C4.21495 23.7678 3.82212 23.9286 3.35145 23.9286C2.91512 23.9286 2.53712 23.7736 2.21745 23.4636C1.89745 23.1536 1.75412 22.7774 1.78745 22.3351C2.00345 19.4604 2.73162 16.7691 3.97195 14.2611C5.21262 11.7531 6.82629 9.5721 8.81295 7.7181C10.7996 5.8641 13.0968 4.40176 15.7045 3.3311C18.3118 2.26043 21.0771 1.7251 24.0005 1.7251C27.7338 1.7251 31.3378 2.8151 34.8125 4.9951C38.2871 7.1751 41.0285 9.66193 43.0364 12.4556V7.3566C43.0364 6.88326 43.192 6.4931 43.503 6.1861C43.8143 5.87876 44.2066 5.7251 44.68 5.7251C45.153 5.7251 45.5431 5.87876 45.8505 6.1861C46.1578 6.4931 46.3115 6.88326 46.3115 7.3566V16.4286C46.3115 16.9176 46.1498 17.3236 45.8265 17.6466C45.5035 17.9699 45.0973 18.1316 44.608 18.1316H35.5364C35.0688 18.1316 34.68 17.9768 34.37 17.6671C34.06 17.3578 33.905 16.9696 33.905 16.5026C33.905 16.0356 34.06 15.6466 34.37 15.3356C34.68 15.0243 35.0688 14.8686 35.5364 14.8686H40.755C39.031 12.3179 36.6063 10.0354 33.481 8.0211C30.3556 6.0071 27.1955 5.0001 24.0005 5.0001Z" fill="#1E94D6"/>
<path fill-rule="evenodd" clip-rule="evenodd" d="M19.087 28.3565C19.6217 28.8312 20.189 29.2498 20.789 29.6125C21.389 29.9752 22.0227 30.2563 22.69 30.456L22.8405 31.3515C22.8982 31.7215 23.0592 32.0277 23.3235 32.27C23.5878 32.512 23.9017 32.633 24.265 32.633H24.665C25.0383 32.633 25.3635 32.5122 25.6405 32.2705C25.9175 32.0288 26.0883 31.7258 26.153 31.3615L26.249 30.4575C26.9103 30.2568 27.5493 29.9752 28.166 29.6125C28.7827 29.2498 29.3417 28.8312 29.843 28.3565L30.717 28.8065C31.0423 28.9732 31.3722 29.0168 31.7065 28.9375C32.0408 28.8582 32.307 28.6645 32.505 28.3565L32.655 28.0665C32.855 27.7722 32.9307 27.4517 32.882 27.105C32.833 26.7583 32.678 26.4708 32.417 26.2425L31.417 25.3925C31.5757 24.6965 31.655 24.0045 31.655 23.3165C31.655 22.6285 31.5757 21.9365 31.417 21.2405L32.417 20.3785C32.6757 20.1562 32.8383 19.8722 32.905 19.5265C32.9717 19.1808 32.905 18.8543 32.705 18.547L32.517 18.2645C32.309 17.9645 32.0383 17.7748 31.705 17.6955C31.3717 17.6162 31.0423 17.6558 30.717 17.8145L29.843 18.2645C29.3417 17.7978 28.7827 17.3832 28.166 17.0205C27.5493 16.6578 26.91 16.3733 26.248 16.167L26.1015 15.2815C26.0358 14.9115 25.8708 14.6053 25.6065 14.363C25.3422 14.121 25.0283 14 24.665 14H24.265C23.8917 14 23.5665 14.1208 23.2895 14.3625C23.0125 14.6042 22.8457 14.9088 22.789 15.2765L22.693 16.166C22.0237 16.373 21.389 16.6578 20.789 17.0205C20.189 17.3832 19.6217 17.7978 19.087 18.2645L18.213 17.8145C17.8877 17.6558 17.5578 17.6162 17.2235 17.6955C16.8892 17.7748 16.623 17.9658 16.425 18.2685L16.275 18.561C16.075 18.857 15.9993 19.1792 16.048 19.5275C16.097 19.8758 16.256 20.1595 16.525 20.3785L17.525 21.2445C17.3583 21.9342 17.275 22.624 17.275 23.314C17.275 24.0037 17.3583 24.6965 17.525 25.3925L16.525 26.2425C16.2583 26.4745 16.0917 26.7623 16.025 27.106C15.9583 27.45 16.025 27.7748 16.225 28.0805L16.425 28.3565C16.625 28.6645 16.8917 28.8582 17.225 28.9375C17.5583 29.0168 17.8877 28.9732 18.213 28.8065L19.087 28.3565ZM21.462 26.3195C22.282 27.1392 23.283 27.549 24.465 27.549C25.647 27.549 26.65 27.1392 27.474 26.3195C28.2977 25.4995 28.7095 24.4985 28.7095 23.3165C28.7095 22.1345 28.2977 21.1315 27.474 20.3075C26.65 19.4838 25.647 19.072 24.465 19.072C23.283 19.072 22.282 19.4838 21.462 20.3075C20.6423 21.1315 20.2325 22.1345 20.2325 23.3165C20.2325 24.4985 20.6423 25.4995 21.462 26.3195Z" fill="#1E94D6"/>
</svg>
