<svg width="24" height="24" viewBox="0 0 24 24" fill="none" xmlns="http://www.w3.org/2000/svg">
<path d="M11.9998 21.9066C11.852 21.9066 11.7063 21.8869 11.5628 21.8476C11.4193 21.8083 11.2831 21.7514 11.1541 21.6769L3.7198 17.4126C3.45014 17.2594 3.2398 17.0554 3.0888 16.8006C2.9378 16.5456 2.8623 16.2585 2.8623 15.9394V7.81085C2.8623 7.49169 2.94197 7.19944 3.1013 6.9341C3.26064 6.66894 3.47514 6.46177 3.7448 6.3126L11.1791 2.27335C11.3081 2.19885 11.4401 2.1461 11.5753 2.1151C11.7105 2.0841 11.852 2.0686 11.9998 2.0686C12.1476 2.0686 12.2891 2.0841 12.4243 2.1151C12.5595 2.1461 12.6936 2.19885 12.8266 2.27335L20.2548 6.3126C20.5245 6.46177 20.739 6.66894 20.8983 6.9341C21.0576 7.19944 21.1373 7.49169 21.1373 7.81085V15.9394C21.1373 16.2585 21.0618 16.5456 20.9108 16.8006C20.7598 17.0554 20.5495 17.2594 20.2798 17.4126L12.8516 21.6769C12.7186 21.7514 12.5803 21.8083 12.4368 21.8476C12.2933 21.8869 12.1476 21.9066 11.9998 21.9066ZM9.1378 9.46635C9.52514 9.08302 9.96364 8.77352 10.4533 8.53785C10.943 8.30219 11.4585 8.18435 11.9998 8.18435C12.5411 8.18435 13.0566 8.30219 13.5463 8.53785C14.036 8.77352 14.4745 9.08302 14.8618 9.46635L18.5373 7.3001L11.9998 3.82785L5.4623 7.3001L9.1378 9.46635ZM11.1841 19.7306V15.7229C10.3134 15.4895 9.59572 15.0324 9.03105 14.3514C8.46639 13.6705 8.18405 12.8868 8.18405 12.0001C8.18405 11.8414 8.19139 11.6734 8.20605 11.4961C8.22072 11.3188 8.26772 11.1237 8.34705 10.9109L4.56555 8.6636V15.9361L11.1841 19.7306ZM12.0006 14.1844C12.6134 14.1844 13.1306 13.9693 13.5521 13.5391C13.9734 13.1088 14.1841 12.5955 14.1841 11.9994C14.1841 11.3865 13.9731 10.8694 13.5513 10.4479C13.1293 10.0265 12.6119 9.81585 11.9991 9.81585C11.4029 9.81585 10.8899 10.0268 10.4601 10.4486C10.0304 10.8706 9.81556 11.388 9.81556 12.0009C9.81556 12.597 10.0306 13.11 10.4608 13.5399C10.8911 13.9695 11.4044 14.1844 12.0006 14.1844ZM12.8156 19.7306L19.4341 15.9361V8.6636L15.6586 10.9109C15.7339 11.1364 15.7789 11.3346 15.7936 11.5056C15.8082 11.6766 15.8156 11.8414 15.8156 12.0001C15.8156 12.8868 15.5332 13.6705 14.9686 14.3514C14.4039 15.0324 13.6862 15.4895 12.8156 15.7229V19.7306Z" fill="#1E94D6"/>
</svg>
