<svg width="48" height="48" viewBox="0 0 48 48" fill="none" xmlns="http://www.w3.org/2000/svg">
<path d="M5.10767 46.299C4.18767 46.299 3.39001 45.9611 2.71467 45.2855C2.03901 44.6101 1.70117 43.8125 1.70117 42.8925V38.4215C1.70117 37.9408 1.86567 37.5368 2.19467 37.2095C2.52367 36.8821 2.92984 36.7185 3.41317 36.7185C3.89651 36.7185 4.29984 36.8821 4.62317 37.2095C4.94617 37.5368 5.10767 37.9408 5.10767 38.4215V42.8925H9.57867C10.0593 42.8925 10.4633 43.057 10.7907 43.386C11.118 43.715 11.2817 44.1211 11.2817 44.6045C11.2817 45.0878 11.118 45.491 10.7907 45.814C10.4633 46.1373 10.0593 46.299 9.57867 46.299H5.10767ZM42.9047 46.299H38.4337C37.953 46.299 37.549 46.1345 37.2217 45.8055C36.8943 45.4765 36.7307 45.0703 36.7307 44.587C36.7307 44.1036 36.8943 43.7003 37.2217 43.377C37.549 43.054 37.953 42.8925 38.4337 42.8925H42.9047V38.4215C42.9047 37.9408 43.0692 37.5368 43.3982 37.2095C43.7272 36.8821 44.1333 36.7185 44.6167 36.7185C45.1 36.7185 45.5032 36.8821 45.8262 37.2095C46.1495 37.5368 46.3112 37.9408 46.3112 38.4215V42.8925C46.3112 43.8125 45.9733 44.6101 45.2977 45.2855C44.6223 45.9611 43.8247 46.299 42.9047 46.299ZM23.9467 37.001C20.2997 37.001 16.9603 36.0406 13.9287 34.12C10.8967 32.1993 8.47334 29.5556 6.65867 26.189C6.46834 25.8573 6.33384 25.5073 6.25517 25.139C6.17651 24.7706 6.13717 24.395 6.13717 24.012C6.13717 23.622 6.18067 23.2426 6.26767 22.874C6.35467 22.505 6.485 22.1506 6.65867 21.811C8.47334 18.411 10.8948 15.7486 13.9232 13.824C16.9515 11.8993 20.2898 10.937 23.9382 10.937C27.5865 10.937 30.9372 11.8973 33.9902 13.818C37.0432 15.7386 39.477 18.399 41.2917 21.799C41.482 22.1386 41.6185 22.4951 41.7012 22.8685C41.7838 23.2418 41.8252 23.615 41.8252 23.988C41.8252 24.3613 41.7818 24.7376 41.6952 25.117C41.6085 25.4963 41.47 25.8576 41.2797 26.201C39.473 29.5676 37.0442 32.2093 33.9932 34.126C30.9422 36.0426 27.5933 37.001 23.9467 37.001ZM23.9427 33.6785C27.0317 33.6785 29.9075 32.8093 32.5702 31.071C35.2328 29.333 37.2682 26.974 38.6762 23.994C37.2682 21.014 35.2333 18.6466 32.5717 16.892C29.91 15.1373 27.0322 14.26 23.9382 14.26C20.8502 14.26 17.9862 15.1373 15.3462 16.892C12.7062 18.6466 10.6822 21.014 9.27417 23.994C10.6822 26.974 12.7067 29.333 15.3477 31.071C17.9887 32.8093 20.8537 33.6785 23.9427 33.6785ZM23.9992 30.624C25.8412 30.624 27.4202 29.9738 28.7362 28.6735C30.0522 27.3731 30.7102 25.8116 30.7102 23.989C30.7102 22.1663 30.0533 20.6001 28.7397 19.2905C27.426 17.9808 25.8433 17.326 23.9917 17.326C22.156 17.326 20.6005 17.9756 19.3252 19.275C18.0498 20.5743 17.4122 22.1481 17.4122 23.9965C17.4122 25.8448 18.0535 27.4115 19.3362 28.6965C20.6192 29.9815 22.1735 30.624 23.9992 30.624ZM23.9917 27.3965C23.045 27.3965 22.2437 27.0663 21.5877 26.406C20.9317 25.7453 20.6037 24.9431 20.6037 23.9995C20.6037 23.0555 20.9313 22.2451 21.5867 21.5685C22.242 20.8918 23.0442 20.5535 23.9932 20.5535C24.9422 20.5535 25.753 20.8886 26.4257 21.559C27.0987 22.2293 27.4352 23.0431 27.4352 24.0005C27.4352 24.9445 27.1003 25.7465 26.4307 26.4065C25.761 27.0665 24.948 27.3965 23.9917 27.3965ZM46.3112 5.09546V9.56646C46.3112 10.0471 46.1467 10.4511 45.8177 10.7785C45.4887 11.1058 45.0825 11.2695 44.5992 11.2695C44.1158 11.2695 43.7125 11.1058 43.3892 10.7785C43.0662 10.4511 42.9047 10.0471 42.9047 9.56646V5.09546H38.4337C37.953 5.09546 37.549 4.93096 37.2217 4.60196C36.8943 4.27296 36.7307 3.8668 36.7307 3.38346C36.7307 2.90013 36.8943 2.49696 37.2217 2.17396C37.549 1.85063 37.953 1.68896 38.4337 1.68896H42.9047C43.8247 1.68896 44.6223 2.0268 45.2977 2.70246C45.9733 3.3778 46.3112 4.17546 46.3112 5.09546ZM5.10767 1.68896H9.57867C10.0593 1.68896 10.4633 1.85346 10.7907 2.18246C11.118 2.51146 11.2817 2.91763 11.2817 3.40096C11.2817 3.8843 11.118 4.28763 10.7907 4.61096C10.4633 4.93396 10.0593 5.09546 9.57867 5.09546H5.10767V9.56646C5.10767 10.0471 4.94317 10.4511 4.61417 10.7785C4.28517 11.1058 3.87901 11.2695 3.39567 11.2695C2.91234 11.2695 2.50917 11.1058 2.18617 10.7785C1.86284 10.4511 1.70117 10.0471 1.70117 9.56646V5.09546C1.70117 4.17546 2.03901 3.3778 2.71467 2.70246C3.39001 2.0268 4.18767 1.68896 5.10767 1.68896Z" fill="#1E94D6"/>
</svg>
