<svg width="24" height="24" viewBox="0 0 24 24" fill="none" xmlns="http://www.w3.org/2000/svg">
<path fill-rule="evenodd" clip-rule="evenodd" d="M5.93759 7.59798C5.32959 7.41548 4.82975 7.06806 4.43809 6.55573C4.04642 6.04356 3.85059 5.45481 3.85059 4.78948C3.85059 3.97148 4.1325 3.27623 4.69634 2.70373C5.26017 2.13106 5.95375 1.84473 6.77709 1.84473C7.60042 1.84473 8.299 2.13106 8.87284 2.70373C9.44684 3.27623 9.73384 3.97148 9.73384 4.78948C9.73384 5.45698 9.536 6.04631 9.14034 6.55748C8.74467 7.06864 8.24484 7.41548 7.64084 7.59798V7.89323C7.64884 8.81123 7.97075 9.58331 8.60659 10.2095C9.24242 10.8355 10.0216 11.1485 10.9441 11.1485H13.0371C14.4241 11.1485 15.6064 11.6284 16.5841 12.5882C17.5618 13.5479 18.0546 14.7126 18.0626 16.0822V16.4025C18.6706 16.5865 19.1714 16.9395 19.5651 17.4615C19.9587 17.9835 20.1556 18.575 20.1556 19.236C20.1556 20.0523 19.8717 20.7461 19.3038 21.3175C18.736 21.889 18.0465 22.1747 17.2353 22.1747C16.4118 22.1747 15.7122 21.889 15.1363 21.3175C14.5603 20.7461 14.2723 20.0523 14.2723 19.236C14.2723 18.5706 14.4692 17.9819 14.8628 17.4697C15.2565 16.9574 15.7573 16.61 16.3653 16.4275V16.0882C16.3533 15.1859 16.0238 14.4199 15.3766 13.7902C14.7294 13.1607 13.9496 12.846 13.0371 12.846H10.9441C10.3096 12.846 9.70775 12.7311 9.13859 12.5012C8.56942 12.2716 8.07017 11.9521 7.64084 11.5427C6.31586 10.2678 5.97378 9.37095 5.93759 7.59798ZM18.1358 20.114C17.897 20.3635 17.5996 20.4882 17.2436 20.4882C16.8876 20.4882 16.5803 20.3641 16.3218 20.1157C16.0632 19.8674 15.9338 19.5658 15.9338 19.211C15.9338 18.8561 16.0635 18.5536 16.3228 18.3035C16.5823 18.0531 16.89 17.928 17.2458 17.928C17.6018 17.928 17.8989 18.0531 18.1371 18.3035C18.3751 18.5538 18.4941 18.8558 18.4941 19.2095C18.4941 19.563 18.3747 19.8645 18.1358 20.114ZM7.68609 5.69223C7.44525 5.94173 7.14742 6.06648 6.79259 6.06648C6.43792 6.06648 6.13584 5.94231 5.88634 5.69398C5.63684 5.44564 5.51209 5.14406 5.51209 4.78923C5.51209 4.43439 5.63625 4.13189 5.88459 3.88173C6.13292 3.63139 6.43509 3.50623 6.79109 3.50623C7.14709 3.50623 7.44542 3.63139 7.68609 3.88173C7.92692 4.13206 8.04734 4.43406 8.04734 4.78773C8.04734 5.14123 7.92692 5.44273 7.68609 5.69223Z" fill="#1E94D6"/>
</svg>
