<svg width="48" height="48" viewBox="0 0 48 48" fill="none" xmlns="http://www.w3.org/2000/svg">
<path d="M24.0002 44.0871C23.7988 44.0871 23.6103 44.0684 23.4347 44.0311C23.2587 43.9937 23.0867 43.9377 22.9187 43.8631C18.2453 42.2964 14.5408 39.4519 11.8052 35.3296C9.06917 31.2069 7.70117 26.7119 7.70117 21.8446V12.1336C7.70117 11.4042 7.90434 10.7449 8.31067 10.1556C8.71701 9.56624 9.2515 9.14407 9.91417 8.88907L22.8067 4.07507C23.2133 3.92574 23.6112 3.85107 24.0002 3.85107C24.3892 3.85107 24.787 3.92574 25.1937 4.07507L38.0862 8.88907C38.7488 9.14407 39.2853 9.56624 39.6957 10.1556C40.106 10.7449 40.3112 11.4042 40.3112 12.1336V21.8446C40.3112 26.7119 38.9412 31.2069 36.2012 35.3296C33.4615 39.4519 29.755 42.2964 25.0817 43.8631C24.9137 43.9377 24.7417 43.9937 24.5657 44.0311C24.39 44.0684 24.2015 44.0871 24.0002 44.0871ZM24.0002 40.7546C27.7935 39.4479 30.8907 37.0542 33.2917 33.5736C35.6923 30.0926 36.8927 26.1859 36.8927 21.8536V12.1336L24.0002 7.26957L11.1077 12.1396V21.8481C11.1077 26.1841 12.308 30.0926 14.7087 33.5736C17.1097 37.0542 20.2068 39.4479 24.0002 40.7546Z" fill="#1E94D6"/>
<path fill-rule="evenodd" clip-rule="evenodd" d="M23.9985 32.0067C21.7785 32.0067 19.8903 31.2283 18.3341 29.6716C16.778 28.115 16 26.2248 16 24.0009C16 21.7771 16.7782 19.8877 18.3346 18.3327C19.8912 16.7776 21.7812 16 24.0047 16C26.2226 16 28.1097 16.7781 29.6659 18.3343C31.222 19.8906 32 21.7802 32 24.0034C32 26.2283 31.2214 28.1184 29.6643 29.6737C28.107 31.229 26.2184 32.0067 23.9985 32.0067ZM28.4054 28.4108C27.1975 29.6152 25.7284 30.2175 23.998 30.2175C22.2629 30.2175 20.7932 29.6135 19.589 28.4057C18.3847 27.1976 17.7825 25.7285 17.7825 23.9983C17.7825 22.2678 18.3866 20.7993 19.5946 19.5927C20.8025 18.3861 22.2727 17.7828 24.0052 17.7828C25.7376 17.7828 27.206 18.3878 28.4105 19.5978C29.6151 20.8078 30.2175 22.278 30.2175 24.0084C30.2175 25.7389 29.6134 27.2063 28.4054 28.4108ZM24.9042 23.8832V20.8833C24.9042 20.6345 24.817 20.4243 24.6426 20.2526C24.4682 20.0809 24.2546 19.9951 24.0017 19.9951C23.7489 19.9951 23.5378 20.0809 23.3687 20.2526C23.1997 20.4243 23.1152 20.6345 23.1152 20.8833V24.1847C23.1152 24.3025 23.1351 24.4144 23.175 24.5203C23.215 24.626 23.2841 24.7254 23.3821 24.8186L25.4739 26.9104C25.6397 27.0748 25.8447 27.1569 26.089 27.1569C26.3333 27.1569 26.5355 27.0736 26.6955 26.9069C26.8558 26.7401 26.9359 26.5331 26.9359 26.2859C26.9359 26.0386 26.8558 25.8327 26.6955 25.6681L24.9042 23.8832Z" fill="#1E94D6"/>
</svg>
