<svg width="48" height="48" viewBox="0 0 48 48" fill="none" xmlns="http://www.w3.org/2000/svg">
<path d="M20.3522 31.7475C21.1165 32.5158 22.222 32.875 23.6687 32.825C25.115 32.775 26.1755 32.2333 26.8502 31.2L35.6447 17.499C35.918 17.0843 35.891 16.7135 35.5637 16.3865C35.2367 16.0592 34.8658 16.0322 34.4512 16.3055L20.9002 25.2C19.9002 25.8747 19.3668 26.9435 19.3002 28.4065C19.2335 29.8695 19.5842 30.9832 20.3522 31.7475ZM23.9002 7.73901C25.3685 7.73901 26.9178 7.93501 28.5482 8.32701C30.1782 8.71868 31.789 9.35285 33.3807 10.2295C33.803 10.4708 34.053 10.8205 34.1307 11.2785C34.208 11.7365 34.1015 12.176 33.8112 12.597C33.5205 13.018 33.1728 13.2673 32.7682 13.345C32.3635 13.423 31.9332 13.362 31.4772 13.162C30.1665 12.4607 28.8313 11.9512 27.4717 11.6335C26.1123 11.3162 24.9218 11.1575 23.9002 11.1575C19.2572 11.1575 15.2977 12.8168 12.0217 16.1355C8.74567 19.4545 7.10767 23.4743 7.10767 28.195C7.10767 29.6983 7.31201 31.2007 7.72067 32.702C8.12934 34.2037 8.71301 35.6005 9.47167 36.8925H38.2767C39.0113 35.6925 39.5893 34.3103 40.0107 32.746C40.432 31.182 40.6427 29.6333 40.6427 28.1C40.6427 26.9857 40.5007 25.7823 40.2167 24.49C39.9323 23.1973 39.4562 21.9543 38.7882 20.761C38.5548 20.3303 38.4752 19.8685 38.5492 19.3755C38.6232 18.8825 38.8667 18.5023 39.2797 18.235C39.6833 17.9463 40.1245 17.8727 40.6032 18.014C41.0815 18.1553 41.4247 18.454 41.6327 18.91C42.3843 20.3997 42.9623 21.8847 43.3667 23.365C43.771 24.8457 44.0025 26.3223 44.0612 27.795C44.1198 29.8143 43.9128 31.7223 43.4402 33.519C42.9672 35.316 42.2748 36.9782 41.3632 38.5055C40.9235 39.3198 40.459 39.8223 39.9697 40.013C39.4807 40.2037 38.8742 40.299 38.1502 40.299H9.60017C8.97784 40.299 8.36767 40.1433 7.76967 39.832C7.17201 39.5207 6.72784 39.0785 6.43717 38.5055C5.56251 36.8975 4.88784 35.251 4.41317 33.566C3.93851 31.8813 3.70117 30.0923 3.70117 28.199C3.70117 25.393 4.23251 22.7495 5.29517 20.2685C6.35784 17.7875 7.80351 15.622 9.63217 13.772C11.4608 11.922 13.6057 10.454 16.0667 9.36801C18.5277 8.28201 21.1388 7.73901 23.9002 7.73901Z" fill="#1E94D6"/>
</svg>
