<svg width="24" height="24" viewBox="0 0 24 24" fill="none" xmlns="http://www.w3.org/2000/svg">
<path d="M4.6106 22.1495C3.78543 22.1495 3.08435 21.8636 2.50735 21.292C1.93018 20.7203 1.6416 20.0262 1.6416 19.2097C1.6416 18.5621 1.8321 17.9866 2.2131 17.4835C2.5941 16.9805 3.08027 16.6264 3.6716 16.4212V14.062C3.6716 13.2638 3.95702 12.5786 4.52785 12.0065C5.09885 11.4343 5.7826 11.1482 6.5791 11.1482H11.1486V7.59773C10.5408 7.41523 10.041 7.06781 9.64935 6.55548C9.25768 6.04331 9.06185 5.45457 9.06185 4.78923C9.06185 3.97123 9.3491 3.27598 9.9236 2.70348C10.4983 2.13082 11.196 1.84448 12.0169 1.84448C12.8377 1.84448 13.5309 2.13082 14.0966 2.70348C14.6621 3.27598 14.9449 3.97123 14.9449 4.78923C14.9449 5.45673 14.747 6.04606 14.3514 6.55723C13.9557 7.0684 13.4559 7.41523 12.8521 7.59773V11.1482H17.4224C18.222 11.1482 18.9074 11.4343 19.4786 12.0065C20.0496 12.5786 20.3351 13.2638 20.3351 14.062V16.4212C20.9224 16.6264 21.4066 16.9801 21.7876 17.4822C22.1686 17.9844 22.3591 18.5606 22.3591 19.2107C22.3591 20.0271 22.0758 20.7209 21.5091 21.2922C20.9424 21.8637 20.2544 22.1495 19.4449 22.1495C18.6197 22.1495 17.9186 21.8637 17.3416 21.2922C16.7644 20.7209 16.4759 20.0271 16.4759 19.2107C16.4759 18.5329 16.68 17.9336 17.0884 17.413C17.4967 16.8923 18.0112 16.5471 18.6319 16.3772V14.062C18.6319 13.7338 18.5122 13.4501 18.2729 13.2107C18.0334 12.9714 17.7496 12.8517 17.4216 12.8517H12.8521V16.4022C13.4559 16.5847 13.9557 16.9316 14.3514 17.4427C14.747 17.9539 14.9449 18.5432 14.9449 19.2107C14.9449 20.0271 14.6609 20.7209 14.0931 21.2922C13.5253 21.8637 12.8358 22.1495 12.0246 22.1495C11.2013 22.1495 10.5016 21.8637 9.9256 21.2922C9.34977 20.7209 9.06185 20.0271 9.06185 19.2107C9.06185 18.5454 9.25768 17.9566 9.64935 17.4445C10.041 16.9321 10.5408 16.5847 11.1486 16.4022V12.8517H6.5791C6.2511 12.8517 5.96735 12.9714 5.72785 13.2107C5.48852 13.4501 5.36885 13.7338 5.36885 14.062V16.3772C5.98952 16.5471 6.50402 16.8923 6.91235 17.413C7.32069 17.9336 7.52485 18.5329 7.52485 19.2107C7.52485 20.0271 7.24152 20.7209 6.67485 21.2922C6.10819 21.8637 5.4201 22.1495 4.6106 22.1495ZM4.6111 20.488C4.96827 20.488 5.26627 20.3632 5.5051 20.1137C5.74394 19.8642 5.86335 19.5627 5.86335 19.2092C5.86335 18.8556 5.74344 18.5536 5.5036 18.3032C5.26377 18.0529 4.96652 17.9277 4.61185 17.9277C4.25269 17.9277 3.94477 18.0529 3.6881 18.3032C3.43143 18.5534 3.3031 18.8559 3.3031 19.2107C3.3031 19.5656 3.43177 19.8671 3.6891 20.1155C3.9466 20.3638 4.25393 20.488 4.6111 20.488ZM12.0289 20.488C12.3835 20.488 12.6813 20.3632 12.9221 20.1137C13.1631 19.8642 13.2836 19.5627 13.2836 19.2092C13.2836 18.8556 13.1632 18.5536 12.9224 18.3032C12.6815 18.0529 12.3831 17.9277 12.0271 17.9277C11.6713 17.9277 11.365 18.0529 11.1084 18.3032C10.8515 18.5534 10.7231 18.8559 10.7231 19.2107C10.7231 19.5656 10.852 19.8671 11.1099 20.1155C11.3677 20.3638 11.674 20.488 12.0289 20.488ZM19.4454 20.488C19.8025 20.488 20.1005 20.3632 20.3394 20.1137C20.5782 19.8642 20.6976 19.5627 20.6976 19.2092C20.6976 18.8556 20.5777 18.5536 20.3379 18.3032C20.098 18.0529 19.8008 17.9277 19.4461 17.9277C19.0869 17.9277 18.779 18.0529 18.5224 18.3032C18.2657 18.5534 18.1374 18.8559 18.1374 19.2107C18.1374 19.5656 18.266 19.8671 18.5234 20.1155C18.7809 20.3638 19.0882 20.488 19.4454 20.488ZM12.0289 6.06623C12.3835 6.06623 12.6813 5.94148 12.9221 5.69198C13.1631 5.44248 13.2836 5.14098 13.2836 4.78748C13.2836 4.43382 13.1632 4.13182 12.9224 3.88148C12.6815 3.63115 12.3831 3.50598 12.0271 3.50598C11.6713 3.50598 11.365 3.63115 11.1084 3.88148C10.8515 4.13165 10.7231 4.43415 10.7231 4.78898C10.7231 5.14382 10.852 5.4454 11.1099 5.69373C11.3677 5.94207 11.674 6.06623 12.0289 6.06623Z" fill="#1E94D6"/>
</svg>
