<svg width="48" height="48" viewBox="0 0 48 48" fill="none" xmlns="http://www.w3.org/2000/svg">
<path d="M15.8017 40.299C15.499 40.299 15.2142 40.2223 14.9472 40.069C14.6798 39.9156 14.4717 39.7065 14.3227 39.4415L10.0747 31.8695H13.6752L15.8442 35.9535H20.3562V34.4535H16.7477L14.5847 30.3695H9.27467L6.12467 24.8455C6.04201 24.6961 5.98201 24.5561 5.94467 24.4255C5.90734 24.2945 5.88867 24.1531 5.88867 24.0015C5.88867 23.9075 5.96734 23.6211 6.12467 23.1425L9.27467 17.6305H14.5847L16.7477 13.5465H20.3562V12.0465H15.8492L13.6727 16.1305H10.0747L14.3227 8.54646C14.4717 8.28946 14.6798 8.0823 14.9472 7.92496C15.2142 7.76763 15.499 7.68896 15.8017 7.68896H21.5462C22.0355 7.68896 22.4417 7.8528 22.7647 8.18046C23.088 8.50813 23.2497 8.91613 23.2497 9.40446V18.1545H18.9282L17.4282 19.6545H23.2497V26.3575H18.2422L16.2517 22.286H11.3442L9.84417 23.786H15.2442L17.2917 27.8575H23.2497V38.5955C23.2497 39.0848 23.088 39.491 22.7647 39.814C22.4417 40.1373 22.0355 40.299 21.5462 40.299H15.8017ZM26.4532 40.299C25.9638 40.299 25.5577 40.1373 25.2347 39.814C24.9113 39.491 24.7497 39.0848 24.7497 38.5955V27.8575H30.7072L32.7552 23.786H38.1672L36.6672 22.286H31.7597L29.7572 26.3575H24.7497V19.6545H30.5712L29.0712 18.1545H24.7497V9.40446C24.7497 8.91613 24.9113 8.50813 25.2347 8.18046C25.5577 7.8528 25.9638 7.68896 26.4532 7.68896H32.2097C32.5123 7.68896 32.7972 7.76763 33.0642 7.92496C33.3312 8.0823 33.5393 8.28946 33.6887 8.54646L37.9247 16.1305H34.3312L32.1672 12.0465H27.6432V13.5465H31.2637L33.4147 17.6305H38.7247L41.8747 23.1545C41.954 23.3055 42.0132 23.4463 42.0522 23.577C42.0912 23.7076 42.1107 23.8486 42.1107 24C42.1107 24.0906 42.032 24.3725 41.8747 24.8455L38.7247 30.3695H33.4147L31.2637 34.4535H27.6432V35.9535H32.1672L34.3312 31.8695H37.9247L33.6887 39.4415C33.538 39.7031 33.3305 39.9115 33.0662 40.0665C32.8015 40.2215 32.516 40.299 32.2097 40.299H26.4532Z" fill="#1E94D6"/>
</svg>
