<svg width="24" height="24" viewBox="0 0 24 24" fill="none" xmlns="http://www.w3.org/2000/svg">
<path d="M11.4036 7.69637L9.3884 5.65612C9.21856 5.48612 9.13365 5.2862 9.13365 5.05637C9.13365 4.82654 9.21856 4.62662 9.3884 4.45662L11.4036 2.41637C11.5736 2.24654 11.7736 2.16162 12.0034 2.16162C12.2332 2.16162 12.4331 2.24654 12.6031 2.41637L14.6434 4.45662C14.8132 4.62662 14.8981 4.82654 14.8981 5.05637C14.8981 5.2862 14.8132 5.48612 14.6434 5.65612L12.6031 7.69637C12.4331 7.8662 12.2332 7.95112 12.0034 7.95112C11.7736 7.95112 11.5736 7.8662 11.4036 7.69637ZM1.67865 20.2931C1.43415 20.2931 1.23107 20.2123 1.0694 20.0506C0.907898 19.8891 0.827148 19.686 0.827148 19.4414V16.1914C0.827148 15.6802 1.0089 15.2438 1.3724 14.8821C1.73607 14.5206 2.17148 14.3399 2.67865 14.3399H6.23365C6.52482 14.3399 6.79465 14.4067 7.04315 14.5404C7.29148 14.674 7.50331 14.8599 7.67865 15.0979C8.16998 15.8099 8.79665 16.3615 9.55865 16.7529C10.3205 17.1442 11.1344 17.3399 12.0004 17.3399C12.8624 17.3399 13.6753 17.1442 14.4391 16.7529C15.2031 16.3615 15.8411 15.8099 16.3531 15.0979C16.5205 14.8599 16.7251 14.674 16.9671 14.5404C17.2093 14.4067 17.478 14.3399 17.7731 14.3399H21.3281C21.8393 14.3399 22.2757 14.5206 22.6374 14.8821C22.9989 15.2438 23.1796 15.6802 23.1796 16.1914V19.4414C23.1796 19.686 23.0989 19.8891 22.9374 20.0506C22.7757 20.2123 22.5726 20.2931 22.3281 20.2931H17.3281C17.0835 20.2931 16.8804 20.2123 16.7189 20.0506C16.5572 19.8891 16.4764 19.686 16.4764 19.4414V17.2821C15.8724 17.8123 15.1859 18.2234 14.4169 18.5154C13.6479 18.8074 12.8424 18.9534 12.0004 18.9534C11.1624 18.9534 10.3621 18.8084 9.5994 18.5184C8.83673 18.2284 8.14707 17.8163 7.5304 17.2821V19.4414C7.5304 19.686 7.44956 19.8891 7.2879 20.0506C7.12623 20.2123 6.92315 20.2931 6.67865 20.2931H1.67865ZM4.0004 12.4104C3.2384 12.4104 2.58257 12.1355 2.0329 11.5859C1.4834 11.0364 1.20865 10.3786 1.20865 9.61262C1.20865 8.83795 1.4834 8.17895 2.0329 7.63562C2.58257 7.09245 3.2384 6.82087 4.0004 6.82087C4.77907 6.82087 5.44007 7.09245 5.9834 7.63562C6.52657 8.17895 6.79815 8.83795 6.79815 9.61262C6.79815 10.3786 6.52657 11.0364 5.9834 11.5859C5.44007 12.1355 4.77907 12.4104 4.0004 12.4104ZM20.0004 12.4104C19.2384 12.4104 18.5826 12.1355 18.0329 11.5859C17.4834 11.0364 17.2086 10.3786 17.2086 9.61262C17.2086 8.83795 17.4834 8.17895 18.0329 7.63562C18.5826 7.09245 19.2384 6.82087 20.0004 6.82087C20.7791 6.82087 21.4401 7.09245 21.9834 7.63562C22.5266 8.17895 22.7981 8.83795 22.7981 9.61262C22.7981 10.3786 22.5266 11.0364 21.9834 11.5859C21.4401 12.1355 20.7791 12.4104 20.0004 12.4104Z" fill="#1E94D6"/>
</svg>
