<svg width="48" height="48" viewBox="0 0 48 48" fill="none" xmlns="http://www.w3.org/2000/svg">
<path d="M22.8063 15.3925L18.7758 11.312C18.4362 10.972 18.2663 10.5722 18.2663 10.1125C18.2663 9.65283 18.4362 9.253 18.7758 8.913L22.8063 4.8325C23.1463 4.49283 23.5462 4.323 24.0058 4.323C24.4655 4.323 24.8653 4.49283 25.2053 4.8325L29.2858 8.913C29.6255 9.253 29.7953 9.65283 29.7953 10.1125C29.7953 10.5722 29.6255 10.972 29.2858 11.312L25.2053 15.3925C24.8653 15.7322 24.4655 15.902 24.0058 15.902C23.5462 15.902 23.1463 15.7322 22.8063 15.3925ZM3.35632 40.586C2.86732 40.586 2.46115 40.4243 2.13782 40.101C1.81482 39.778 1.65332 39.3718 1.65332 38.8825V32.3825C1.65332 31.3602 2.01682 30.4873 2.74382 29.764C3.47115 29.041 4.34199 28.6795 5.35632 28.6795H12.4663C13.0487 28.6795 13.5883 28.8132 14.0853 29.0805C14.582 29.3478 15.0057 29.7195 15.3563 30.1955C16.339 31.6195 17.5923 32.7228 19.1163 33.5055C20.64 34.2882 22.2678 34.6795 23.9998 34.6795C25.7238 34.6795 27.3497 34.2882 28.8773 33.5055C30.4053 32.7228 31.6813 31.6195 32.7053 30.1955C33.04 29.7195 33.4493 29.3478 33.9333 29.0805C34.4177 28.8132 34.955 28.6795 35.5453 28.6795H42.6553C43.6777 28.6795 44.5505 29.041 45.2738 29.764C45.9968 30.4873 46.3583 31.3602 46.3583 32.3825V38.8825C46.3583 39.3718 46.1968 39.778 45.8738 40.101C45.5505 40.4243 45.1443 40.586 44.6553 40.586H34.6553C34.166 40.586 33.7598 40.4243 33.4368 40.101C33.1135 39.778 32.9518 39.3718 32.9518 38.8825V34.564C31.7438 35.6243 30.3708 36.4465 28.8328 37.0305C27.2948 37.6145 25.6838 37.9065 23.9998 37.9065C22.3238 37.9065 20.7232 37.6165 19.1978 37.0365C17.6725 36.4565 16.2932 35.6323 15.0598 34.564V38.8825C15.0598 39.3718 14.8982 39.778 14.5748 40.101C14.2515 40.4243 13.8453 40.586 13.3563 40.586H3.35632ZM7.99982 24.8205C6.47582 24.8205 5.16415 24.2708 4.06482 23.1715C2.96582 22.0725 2.41632 20.757 2.41632 19.225C2.41632 17.6757 2.96582 16.3577 4.06482 15.271C5.16415 14.1847 6.47582 13.6415 7.99982 13.6415C9.55715 13.6415 10.8792 14.1847 11.9658 15.271C13.0522 16.3577 13.5953 17.6757 13.5953 19.225C13.5953 20.757 13.0522 22.0725 11.9658 23.1715C10.8792 24.2708 9.55715 24.8205 7.99982 24.8205ZM39.9998 24.8205C38.4758 24.8205 37.1642 24.2708 36.0648 23.1715C34.9658 22.0725 34.4163 20.757 34.4163 19.225C34.4163 17.6757 34.9658 16.3577 36.0648 15.271C37.1642 14.1847 38.4758 13.6415 39.9998 13.6415C41.5572 13.6415 42.8792 14.1847 43.9658 15.271C45.0522 16.3577 45.5953 17.6757 45.5953 19.225C45.5953 20.757 45.0522 22.0725 43.9658 23.1715C42.8792 24.2708 41.5572 24.8205 39.9998 24.8205Z" fill="#1E94D6"/>
</svg>
