<svg width="24" height="24" viewBox="0 0 24 24" fill="none" xmlns="http://www.w3.org/2000/svg">
<g clip-path="url(#clip0_172_1271)">
<path fill-rule="evenodd" clip-rule="evenodd" d="M15.537 0.114952C15.4238 0.228014 15.4219 0.243577 15.4219 1.02269C15.4219 1.75361 15.4294 1.82495 15.519 1.93886C15.6379 2.08998 15.8495 2.10353 15.9844 1.96862C16.0711 1.88191 16.0781 1.81239 16.0781 1.03928C16.0781 0.226468 16.0752 0.200921 15.9697 0.10178C15.8275 -0.03172 15.6791 -0.02722 15.537 0.114952ZM10.9219 2.0155C10.8676 2.06978 10.8281 2.17173 10.8281 2.2577C10.8281 2.38506 10.9101 2.48809 11.4062 2.98426C11.8882 3.46623 12.0077 3.56237 12.1246 3.56237C12.3021 3.56237 12.4687 3.39166 12.4687 3.20987C12.4687 3.09901 12.3638 2.96941 11.8925 2.49803C11.395 2.00059 11.2956 1.92175 11.1659 1.92175C11.0781 1.92175 10.9766 1.96075 10.9219 2.0155ZM19.6266 2.52344C18.9867 3.17012 18.9465 3.24751 19.1463 3.4473C19.3651 3.66616 19.4632 3.61853 20.0956 2.98609C20.6163 2.46536 20.6719 2.39378 20.6719 2.24336C20.6719 2.04222 20.5555 1.92175 20.3612 1.92175C20.2449 1.92175 20.1237 2.02108 19.6266 2.52344ZM14.8359 3.35603C14.0873 3.52272 13.4471 3.8823 12.8839 4.45225C12.4515 4.88987 12.1447 5.39458 11.9433 5.99987C11.8041 6.41852 11.795 6.48733 11.793 7.14831C11.7908 7.82083 11.7973 7.87023 11.9406 8.28283C12.1394 8.85494 12.3848 9.33184 12.8138 9.97923L13.1677 10.5133L13.0128 10.6943C12.9276 10.7938 12.823 10.9831 12.7805 11.1148C12.6833 11.4158 12.681 11.955 12.7755 12.2733C12.8945 12.6742 13.2382 12.9842 13.5636 12.9842C13.6649 12.9842 13.696 13.036 13.8525 13.4647C14.0833 14.0965 14.1718 14.2654 14.3832 14.4768L14.5595 14.6531L13.8732 15.5413L13.187 16.4296L9.83958 16.4584C6.99858 16.4829 6.43922 16.4987 6.14198 16.5635C4.74122 16.8685 3.79486 17.5352 3.23817 18.6092C3.04167 18.9884 1.40625 23.4946 1.40625 23.6569C1.40625 23.7109 1.44656 23.8049 1.49578 23.8658L1.58536 23.9764L2.84344 23.9886C3.78769 23.9978 4.13081 23.986 4.21875 23.9413C4.3162 23.8918 4.38464 23.74 4.62558 23.0385L4.91517 22.1952L4.91855 22.9825C4.92183 23.7538 4.92422 23.7721 5.03695 23.8848L5.15198 23.9999H8.41406H11.6761L11.7912 23.8848L11.9062 23.7698V21.9235C11.9062 20.0811 11.9065 20.0767 12.0153 19.8705C12.0753 19.7569 12.2142 19.6007 12.3239 19.5233C12.5216 19.384 12.5309 19.3825 13.3047 19.3564C14.1814 19.327 14.3746 19.2826 14.7008 19.0361C14.9552 18.8439 16.7616 16.5223 16.9054 16.2028C17.0354 15.914 17.0228 15.3695 16.8797 15.0936C16.8195 14.9776 16.7359 14.8427 16.6937 14.7938C16.6324 14.7226 16.6297 14.7005 16.6803 14.6829C16.8038 14.6399 17.0576 14.3836 17.1691 14.1893C17.2314 14.0808 17.3647 13.7654 17.4654 13.4884C17.6424 13.0015 17.6531 12.9848 17.7891 12.9837C18.331 12.9797 18.7353 12.2024 18.6085 11.4085C18.5517 11.0531 18.4681 10.8645 18.2783 10.6639L18.1453 10.5233L18.5446 9.91394C18.993 9.22984 19.251 8.72177 19.4134 8.203C19.5092 7.89691 19.5233 7.75741 19.5228 7.12487C19.5222 6.42583 19.5163 6.38144 19.368 5.953C19.1426 5.30144 18.8995 4.92048 18.3798 4.40425C18.0165 4.04331 17.848 3.91506 17.506 3.73919C16.8836 3.41912 16.5014 3.32247 15.7734 3.30095C15.3357 3.28801 15.0716 3.30353 14.8359 3.35603ZM15.0234 4.00684C13.8474 4.2662 12.9495 5.0747 12.577 6.20983C12.4719 6.53017 12.4535 6.66906 12.4526 7.14831C12.4517 7.64125 12.4675 7.75717 12.5804 8.08581C12.7439 8.56173 13.0276 9.09695 13.4563 9.73769C13.9395 10.4601 13.8653 10.4061 14.3745 10.4061H14.8125V9.46863V8.53112L14.4961 8.53084C14.1067 8.53056 13.9116 8.47867 13.6314 8.30097C13.0185 7.91233 12.957 6.98814 13.5108 6.48789C13.753 6.26908 13.9552 6.18737 14.2548 6.18737C14.5901 6.18737 14.8274 6.26814 15.0488 6.45775C15.3356 6.70319 15.435 6.93569 15.4594 7.41784L15.4802 7.828H15.7557H16.0312V7.53184C16.0312 6.93348 16.25 6.53134 16.6966 6.30878C17.4806 5.91812 18.3717 6.46394 18.3735 7.33581C18.375 8.05291 17.847 8.53112 17.054 8.53112H16.7812V9.46863V10.4061L17.0977 10.4059L17.4141 10.4057L17.8738 9.71795C18.4176 8.90425 18.6677 8.40761 18.8029 7.87305C19.0053 7.07289 18.8413 6.13253 18.3749 5.41858C17.66 4.32409 16.2597 3.73426 15.0234 4.00684ZM9.00342 6.63901C8.94998 6.70694 8.90625 6.799 8.90625 6.84362C8.90625 6.88825 8.94998 6.98031 9.00342 7.04823L9.10055 7.17175H9.94092C10.7188 7.17175 10.7882 7.16476 10.875 7.078C11.0015 6.95153 10.9948 6.74383 10.8603 6.61741C10.7573 6.52075 10.7093 6.5155 9.92616 6.5155H9.10055L9.00342 6.63901ZM20.6463 6.63058C20.5057 6.77111 20.5008 6.88605 20.6284 7.04823L20.7255 7.17175H21.5659C22.3438 7.17175 22.4132 7.16476 22.5 7.078C22.6265 6.95153 22.6198 6.74383 22.4853 6.61741C22.3825 6.52094 22.3338 6.5155 21.5691 6.5155C20.774 6.5155 20.7596 6.51728 20.6463 6.63058ZM14.0745 6.89186C14.0167 6.91511 13.926 7.00342 13.8731 7.08808C13.7426 7.29667 13.7786 7.52847 13.9679 7.69909C14.097 7.81548 14.1449 7.828 14.4617 7.828H14.8125L14.8124 7.55847C14.8123 7.01177 14.4932 6.72353 14.0745 6.89186ZM16.9922 6.89805C16.7907 7.00881 16.7365 7.13345 16.7354 7.48816L16.7344 7.828H17.0656C17.445 7.828 17.5487 7.78642 17.648 7.59456C17.7662 7.36586 17.7388 7.18239 17.5594 7.003C17.3896 6.83322 17.1804 6.7945 16.9922 6.89805ZM15.4687 9.46863V10.4061H15.7969H16.125V9.46863V8.53112H15.7969H15.4687V9.46863ZM8.32031 9.92092C7.28967 10.086 6.41986 10.701 5.97727 11.5773C5.211 13.0946 5.82183 14.953 7.33284 15.7015C8.77266 16.4147 10.4637 15.9306 11.3338 14.5562C11.7076 13.9655 11.8589 13.0331 11.6981 12.3102C11.4605 11.2423 10.6369 10.3534 9.58908 10.0342C9.26916 9.93667 8.59659 9.87663 8.32031 9.92092ZM8.01562 10.682C7.58991 10.8197 7.35202 10.9663 7.02609 11.2922C6.54272 11.7755 6.3277 12.289 6.32869 12.9576C6.32967 13.636 6.55041 14.1821 7.01362 14.6523C7.55203 15.199 8.35608 15.4631 9.08508 15.3328C9.94528 15.1791 10.647 14.6016 10.9492 13.7988C11.4252 12.534 10.7186 11.0875 9.42867 10.6863C9.04177 10.566 8.38083 10.564 8.01562 10.682ZM13.4434 11.2147C13.3491 11.3807 13.3643 12.046 13.4659 12.2012L13.549 12.328H15.6501C18.1181 12.328 17.9182 12.3768 17.946 11.7674C17.9582 11.4978 17.9428 11.3658 17.8863 11.2566L17.8101 11.1093H15.6567H13.5033L13.4434 11.2147ZM14.5145 13.3241C14.7974 14.113 14.7918 14.1092 15.6697 14.1092H16.3687L16.5003 13.9683C16.6012 13.8603 16.9219 13.1277 16.9219 13.0052C16.9219 12.9937 16.3528 12.9842 15.6572 12.9842H14.3926L14.5145 13.3241ZM15.2805 14.945C15.1695 15.0033 14.8809 15.3368 14.3804 15.9852C13.9751 16.5101 13.6001 16.9831 13.5471 17.0362C13.4518 17.1315 13.4055 17.133 9.90108 17.1573C6.40777 17.1815 6.34566 17.1835 5.97909 17.2866C5.77425 17.3442 5.4262 17.4784 5.20566 17.5848C4.8803 17.7418 4.7287 17.8544 4.40156 18.182C3.87581 18.7087 3.77897 18.9107 2.97216 21.1639C2.62139 22.1436 2.30578 23.0243 2.27081 23.121L2.2073 23.2967H3.02414H3.84098L4.40677 21.5665C4.71797 20.6149 4.99819 19.815 5.0295 19.789C5.15648 19.6837 5.32261 19.6807 5.45067 19.7814L5.57695 19.8808L5.58928 21.6005L5.60156 23.3202H8.41406H11.2266L11.25 21.5858C11.2733 19.8612 11.2741 19.8501 11.3886 19.6171C11.5363 19.3165 11.8655 18.988 12.1641 18.8431C12.3727 18.7418 12.4833 18.7262 13.1719 18.7003C14.0543 18.6671 14.1721 18.6327 14.468 18.3216C14.8149 17.9568 16.2573 16.0344 16.3147 15.8602C16.451 15.4475 16.0025 14.8592 15.5516 14.8592C15.4923 14.8592 15.3704 14.8978 15.2805 14.945Z" fill="#1E94D6" stroke="#1E94D6" stroke-width="0.3"/>
</g>
<defs>
<clipPath id="clip0_172_1271">
<rect width="24" height="24" fill="white"/>
</clipPath>
</defs>
</svg>
