<svg width="24" height="24" viewBox="0 0 24 24" fill="none" xmlns="http://www.w3.org/2000/svg">
<path d="M11.9942 23.1375C10.1276 23.1375 8.32756 22.5935 6.59423 21.5055C4.86089 20.4174 3.48823 19.173 2.47623 17.7723V20.3218C2.47623 20.5556 2.39889 20.75 2.24423 20.9051C2.08939 21.0601 1.89523 21.1375 1.66173 21.1375C1.42839 21.1375 1.23389 21.0601 1.07823 20.9051C0.92256 20.75 0.844727 20.5556 0.844727 20.3218V15.7858C0.844727 15.5413 0.92556 15.3383 1.08723 15.1768C1.24873 15.0151 1.45181 14.9343 1.69648 14.9343H6.23223C6.46606 14.9343 6.66048 15.0117 6.81548 15.1665C6.97048 15.3212 7.04798 15.5153 7.04798 15.7488C7.04798 15.9823 6.97048 16.1768 6.81548 16.3323C6.66048 16.488 6.46606 16.5658 6.23223 16.5658H3.62298C4.47298 17.8291 5.68056 18.9674 7.24573 19.9805C8.81073 20.9935 10.3928 21.5 11.992 21.5C14.4696 21.5 16.6126 20.6703 18.421 19.0108C20.2293 17.3515 21.2454 15.3028 21.4692 12.8648C21.4859 12.6321 21.5729 12.4358 21.7302 12.2758C21.8877 12.1158 22.084 12.0358 22.319 12.0358C22.533 12.0358 22.7219 12.1099 22.8857 12.258C23.0497 12.4062 23.1234 12.5878 23.1067 12.8028C22.9959 14.2531 22.6301 15.607 22.0092 16.8645C21.3884 18.1219 20.5791 19.2154 19.5812 20.145C18.5834 21.0749 17.434 21.806 16.133 22.3385C14.8318 22.8712 13.4522 23.1375 11.9942 23.1375ZM12.0002 2.50005C9.52406 2.50005 7.38181 3.3298 5.57348 4.9893C3.76514 6.64863 2.75106 8.6973 2.53123 11.1353C2.51123 11.3665 2.42248 11.5624 2.26498 11.723C2.10748 11.8839 1.91106 11.9643 1.67573 11.9643C1.45756 11.9643 1.26856 11.8868 1.10873 11.7318C0.948727 11.5768 0.87706 11.3887 0.893727 11.1675C1.00173 9.73022 1.36581 8.38455 1.98598 7.13055C2.60631 5.87655 3.41314 4.78605 4.40648 3.85905C5.39981 2.93205 6.54839 2.20088 7.85223 1.66555C9.15589 1.13022 10.5386 0.862549 12.0002 0.862549C13.8669 0.862549 15.6689 1.40755 17.4062 2.49755C19.1436 3.58755 20.5142 4.83097 21.5182 6.2278V3.6783C21.5182 3.44163 21.596 3.24655 21.7515 3.09305C21.9071 2.93938 22.1033 2.86255 22.34 2.86255C22.5765 2.86255 22.7716 2.93938 22.9252 3.09305C23.0789 3.24655 23.1557 3.44163 23.1557 3.6783V8.2143C23.1557 8.4588 23.0749 8.6618 22.9132 8.8233C22.7517 8.98497 22.5486 9.0658 22.304 9.0658H17.7682C17.5344 9.0658 17.34 8.98838 17.185 8.83355C17.03 8.67888 16.9525 8.4848 16.9525 8.2513C16.9525 8.0178 17.03 7.8233 17.185 7.6678C17.34 7.51213 17.5344 7.4343 17.7682 7.4343H20.3775C19.5155 6.15897 18.3031 5.01771 16.7405 4.01055C15.1778 3.00355 13.5977 2.50005 12.0002 2.50005Z" fill="#1E94D6"/>
<path fill-rule="evenodd" clip-rule="evenodd" d="M11.9991 17C10.6115 17 9.43144 16.5137 8.4588 15.5411C7.48627 14.5687 7 13.3878 7 11.9985C7 10.6092 7.48638 9.4288 8.45913 8.45735C9.432 7.48578 10.6133 7 12.0029 7C13.3891 7 14.5686 7.48612 15.5412 8.45835C16.5137 9.43059 17 10.6111 17 12C17 13.39 16.5134 14.5708 15.5402 15.5425C14.5669 16.5142 13.3865 17 11.9991 17ZM14.7534 14.7535C13.9985 15.5059 13.0803 15.8822 11.9987 15.8822C10.9143 15.8822 9.99578 15.5049 9.2431 14.7503C8.49043 13.9956 8.11409 13.0778 8.11409 11.9968C8.11409 10.9158 8.4916 9.99832 9.24663 9.24451C10.0015 8.4907 10.9204 8.11379 12.0033 8.11379C13.086 8.11379 14.0038 8.49176 14.7566 9.2477C15.5095 10.0036 15.8859 10.9221 15.8859 12.0032C15.8859 13.0842 15.5084 14.001 14.7534 14.7535ZM12.5651 11.9249V10.0508C12.5651 9.89537 12.5106 9.76404 12.4016 9.65678C12.2926 9.54952 12.1591 9.49589 12.0011 9.49589C11.843 9.49589 11.7112 9.54952 11.6054 9.65678C11.4998 9.76404 11.447 9.89537 11.447 10.0508V12.1133C11.447 12.1869 11.4594 12.2568 11.4844 12.3229C11.5094 12.389 11.5525 12.4511 11.6138 12.5093L12.9212 13.8162C13.0248 13.9188 13.153 13.9702 13.3056 13.9702C13.4583 13.9702 13.5847 13.9181 13.6847 13.814C13.7849 13.7097 13.8349 13.5804 13.8349 13.426C13.8349 13.2715 13.7849 13.1428 13.6847 13.0401L12.5651 11.9249Z" fill="#1E94D6"/>
</svg>
