<svg width="48" height="48" viewBox="0 0 48 48" fill="none" xmlns="http://www.w3.org/2000/svg">
<path d="M24.0017 24C22.2847 24 20.8412 23.415 19.6712 22.245C18.5015 21.075 17.9167 19.6281 17.9167 17.9045C17.9167 16.2218 18.5023 14.7871 19.6737 13.6005C20.845 12.4138 22.2878 11.8205 24.0022 11.8205C25.6915 11.8205 27.1295 12.4138 28.3162 13.6005C29.5025 14.7871 30.0957 16.2218 30.0957 17.9045C30.0957 19.6281 29.5028 21.075 28.3172 22.245C27.1315 23.415 25.693 24 24.0017 24ZM23.9827 20.8205C24.8037 20.8205 25.4978 20.5435 26.0652 19.9895C26.6328 19.4351 26.9167 18.7466 26.9167 17.924C26.9167 17.1093 26.6353 16.4183 26.0727 15.851C25.5103 15.2836 24.8137 15 23.9827 15C23.1597 15 22.4727 15.2816 21.9217 15.845C21.371 16.4083 21.0957 17.101 21.0957 17.923C21.0957 18.7533 21.3735 19.4438 21.9292 19.9945C22.4848 20.5451 23.1693 20.8205 23.9827 20.8205ZM11.9167 34.3805V32.1945C11.9167 31.2791 12.2122 30.474 12.8032 29.779C13.3942 29.084 14.1105 28.5131 14.9522 28.0665C16.3668 27.3331 17.8283 26.7895 19.3367 26.4355C20.8453 26.0815 22.3997 25.9045 23.9997 25.9045C25.6 25.9045 27.1562 26.0815 28.6682 26.4355C30.1802 26.7895 31.6402 27.3331 33.0482 28.0665C33.8895 28.5078 34.6077 29.0775 35.2027 29.7755C35.798 30.4738 36.0957 31.2801 36.0957 32.1945V34.3805C36.0957 34.8611 35.9298 35.2651 35.5982 35.5925C35.2662 35.9198 34.8603 36.0835 34.3807 36.0835H13.6197C13.139 36.0835 12.735 35.9198 12.4077 35.5925C12.0803 35.2651 11.9167 34.8611 11.9167 34.3805ZM24.0002 29.0835C22.4915 29.0835 21.0162 29.2863 19.5742 29.692C18.1322 30.0973 16.743 30.7015 15.4067 31.5045V32.9045H32.5937V31.5045C31.2573 30.7015 29.8682 30.0973 28.4262 29.692C26.9842 29.2863 25.5088 29.0835 24.0002 29.0835ZM24.0002 32.9045H32.5937H15.4067H24.0002ZM7.10767 44.299C6.18767 44.299 5.39001 43.9611 4.71467 43.2855C4.03901 42.6101 3.70117 41.8125 3.70117 40.8925V34.1035C3.70117 33.6225 3.86567 33.2183 4.19467 32.891C4.52367 32.5636 4.92984 32.4 5.41317 32.4C5.89651 32.4 6.29984 32.5636 6.62317 32.891C6.94617 33.2183 7.10767 33.6225 7.10767 34.1035V40.8925H13.8967C14.3777 40.8925 14.7818 41.057 15.1092 41.386C15.4365 41.715 15.6002 42.1211 15.6002 42.6045C15.6002 43.0878 15.4365 43.491 15.1092 43.814C14.7818 44.1373 14.3777 44.299 13.8967 44.299H7.10767ZM3.70117 13.8965V7.10746C3.70117 6.18413 4.03901 5.38363 4.71467 4.70596C5.39001 4.02796 6.18767 3.68896 7.10767 3.68896H13.8967C14.3777 3.68896 14.7818 3.8558 15.1092 4.18946C15.4365 4.52346 15.6002 4.93163 15.6002 5.41396C15.6002 5.89663 15.4365 6.29963 15.1092 6.62296C14.7818 6.94596 14.3777 7.10746 13.8967 7.10746H7.10767V13.8965C7.10767 14.3775 6.94317 14.7816 6.61417 15.109C6.28517 15.4363 5.87901 15.6 5.39567 15.6C4.91234 15.6 4.50917 15.4363 4.18617 15.109C3.86284 14.7816 3.70117 14.3775 3.70117 13.8965ZM40.8927 44.299H34.1037C33.6227 44.299 33.2185 44.1345 32.8912 43.8055C32.5638 43.4765 32.4002 43.0703 32.4002 42.587C32.4002 42.1036 32.5638 41.7003 32.8912 41.377C33.2185 41.054 33.6227 40.8925 34.1037 40.8925H40.8927V34.1035C40.8927 33.6225 41.0572 33.2183 41.3862 32.891C41.7152 32.5636 42.121 32.4 42.6037 32.4C43.0863 32.4 43.4915 32.5636 43.8192 32.891C44.1472 33.2183 44.3112 33.6225 44.3112 34.1035V40.8925C44.3112 41.8125 43.9722 42.6101 43.2942 43.2855C42.6165 43.9611 41.816 44.299 40.8927 44.299ZM40.8927 13.8965V7.10746H34.1037C33.6227 7.10746 33.2185 6.94296 32.8912 6.61396C32.5638 6.28496 32.4002 5.87913 32.4002 5.39646C32.4002 4.9138 32.5638 4.50863 32.8912 4.18096C33.2185 3.85296 33.6227 3.68896 34.1037 3.68896H40.8927C41.816 3.68896 42.6165 4.02796 43.2942 4.70596C43.9722 5.38363 44.3112 6.18413 44.3112 7.10746V13.8965C44.3112 14.3775 44.1443 14.7816 43.8107 15.109C43.4767 15.4363 43.0685 15.6 42.5862 15.6C42.1035 15.6 41.7005 15.4363 41.3772 15.109C41.0542 14.7816 40.8927 14.3775 40.8927 13.8965Z" fill="#1E94D6"/>
</svg>
