<svg width="24" height="24" viewBox="0 0 24 24" fill="none" xmlns="http://www.w3.org/2000/svg">
<path d="M12.0028 21.1495C9.4405 21.1495 7.27459 20.748 5.50509 19.945C3.73542 19.1421 2.85059 18.1605 2.85059 17V6.99998C2.85059 5.85732 3.74375 4.87906 5.53009 4.06523C7.31625 3.2514 9.4725 2.84448 11.9988 2.84448C14.5212 2.84448 16.6778 3.2514 18.4688 4.06523C20.26 4.87906 21.1556 5.85732 21.1556 6.99998V17C21.1556 18.1605 20.2697 19.1421 18.4978 19.945C16.7262 20.748 14.5612 21.1495 12.0028 21.1495ZM12.0001 8.79398C13.4308 8.79398 14.8969 8.57415 16.3986 8.13448C17.9003 7.69482 18.8738 7.19998 19.3191 6.64998C18.8571 6.11665 17.8729 5.62598 16.3666 5.17798C14.8603 4.72998 13.4038 4.50598 11.9971 4.50598C10.5404 4.50598 9.07142 4.72265 7.59009 5.15598C6.10875 5.58931 5.13275 6.08732 4.66209 6.64998C5.13275 7.23331 6.09909 7.73648 7.56109 8.15948C9.02309 8.58248 10.5028 8.79398 12.0001 8.79398ZM11.9751 14.138C12.6711 14.138 13.3663 14.0995 14.0608 14.0225C14.7555 13.9455 15.422 13.831 16.0603 13.679C16.6987 13.527 17.3109 13.3406 17.8971 13.12C18.4831 12.8995 19.0154 12.6539 19.4941 12.3832V8.70548C19.0028 8.97215 18.4644 9.21381 17.8791 9.43048C17.2938 9.64715 16.6781 9.82948 16.0321 9.97748C15.3861 10.1255 14.7234 10.2401 14.0441 10.3215C13.3648 10.4028 12.6743 10.4435 11.9728 10.4435C11.2795 10.4435 10.5851 10.4028 9.88959 10.3215C9.19425 10.2401 8.52617 10.1245 7.88534 9.97448C7.2445 9.82448 6.63559 9.64215 6.05859 9.42748C5.48159 9.21281 4.96609 8.97215 4.51209 8.70548V12.3832C4.96209 12.6539 5.47242 12.8985 6.04309 13.117C6.61375 13.3356 7.21992 13.522 7.86159 13.676C8.50325 13.83 9.17234 13.9455 9.86884 14.0225C10.5655 14.0995 11.2676 14.138 11.9751 14.138ZM12.0001 19.488C12.7921 19.492 13.6091 19.4241 14.4511 19.2845C15.2933 19.1448 16.0685 18.9593 16.7768 18.728C17.4852 18.4966 18.0871 18.2383 18.5826 17.953C19.0783 17.6676 19.3821 17.375 19.4941 17.075V14.0815C19.0194 14.3521 18.4914 14.5936 17.9101 14.806C17.3288 15.0183 16.7169 15.1995 16.0746 15.3495C15.4321 15.4995 14.7666 15.612 14.0781 15.687C13.3896 15.762 12.6886 15.7995 11.9751 15.7995C11.2636 15.7995 10.5596 15.761 9.86309 15.684C9.16642 15.607 8.49825 15.4935 7.85859 15.3435C7.21892 15.1935 6.61475 15.0123 6.04609 14.8C5.47742 14.5876 4.96609 14.3481 4.51209 14.0815V17.0997C4.60742 17.3832 4.89867 17.6698 5.38584 17.9595C5.87317 18.2491 6.47417 18.5065 7.18884 18.7315C7.9035 18.9565 8.68192 19.1388 9.52409 19.2785C10.3661 19.4181 11.1914 19.488 12.0001 19.488Z" fill="#1E94D6"/>
</svg>
