<svg width="25" height="25" viewBox="0 0 25 25" fill="none" xmlns="http://www.w3.org/2000/svg">
<path d="M4.08887 2.20996C5.38372 2.01842 6.66246 2.78166 7.11133 4.0127L7.23438 4.34863H12.3242C14.6124 4.34863 15.9358 4.35299 16.7344 4.37109C17.5262 4.38904 17.8241 4.42041 18.043 4.48535C19.9572 5.05377 21.1678 6.6011 21.1445 8.49121C21.1314 9.55657 20.7571 10.4359 19.9854 11.2314C19.5221 11.7089 19.0652 11.9932 18.3008 12.29L17.7744 12.4941L17.7402 12.5078H17.7031L11.8516 12.5479L6.04297 12.5879L5.54688 12.8232C4.54186 13.2994 3.93189 14.1714 3.86621 15.1943C3.77665 16.5911 4.78221 17.8523 6.22559 18.124C6.27113 18.1326 6.40812 18.1433 6.63965 18.1533C6.86415 18.163 7.16318 18.1716 7.52148 18.1787C8.23847 18.193 9.18968 18.2012 10.248 18.2012H13.4014L12.7734 17.5654C12.507 17.2957 12.2582 17.0335 12.0723 16.8281C11.9795 16.7256 11.9005 16.6356 11.8428 16.5654C11.8142 16.5307 11.7891 16.4989 11.7695 16.4717C11.7624 16.4618 11.7517 16.447 11.7412 16.4297L11.7139 16.3711C11.6741 16.256 11.7005 16.1427 11.7373 16.0596C11.7754 15.9735 11.8348 15.894 11.9004 15.8291C11.9662 15.764 12.0465 15.7055 12.1328 15.667C12.2164 15.6297 12.3259 15.6025 12.4385 15.6318C12.4728 15.6408 12.5022 15.6574 12.5186 15.667C12.5378 15.6783 12.558 15.6913 12.5771 15.7051C12.6159 15.7331 12.6617 15.77 12.7119 15.8125C12.8128 15.8979 12.9416 16.0147 13.0869 16.1514C13.3783 16.4253 13.7435 16.7855 14.1006 17.1484C14.4577 17.5114 14.8082 17.8793 15.0703 18.168C15.201 18.3119 15.312 18.4379 15.3906 18.5352C15.4296 18.5834 15.4633 18.6285 15.4883 18.666C15.5004 18.6843 15.513 18.7047 15.5234 18.7256C15.5298 18.7385 15.5526 18.7827 15.5527 18.8379C15.5527 18.8885 15.5342 18.9294 15.5273 18.9443C15.5176 18.9653 15.5055 18.9861 15.4941 19.0039C15.4713 19.0398 15.4408 19.0818 15.4053 19.127C15.3332 19.2185 15.2306 19.3384 15.1045 19.4785C14.8516 19.7596 14.4959 20.1317 14.084 20.5459C13.5146 21.1184 13.147 21.4787 12.8984 21.6953C12.7747 21.8031 12.6733 21.8813 12.5869 21.9336C12.5013 21.9853 12.4115 22.0225 12.3154 22.0225C12.1443 22.0224 11.9824 21.9278 11.8721 21.8262C11.7643 21.7269 11.6514 21.57 11.6514 21.3945C11.6515 21.3553 11.6629 21.3254 11.667 21.3154C11.6725 21.3019 11.6794 21.2906 11.6836 21.2832C11.6921 21.2684 11.7015 21.2538 11.71 21.2422C11.7275 21.2181 11.7508 21.1887 11.7773 21.1572C11.8312 21.0933 11.908 21.008 12 20.9082C12.1845 20.708 12.4377 20.4431 12.7158 20.1621L13.3896 19.4795L9.93066 19.457C7.78636 19.4427 6.73902 19.4403 6.10449 19.375C5.78141 19.3417 5.55556 19.291 5.3418 19.2119C5.13371 19.1349 4.93993 19.0321 4.69141 18.9053C4.44647 18.7803 4.12913 18.5174 3.84473 18.2354C3.55858 17.9515 3.28232 17.6252 3.12793 17.3584C2.61506 16.4718 2.45502 15.3697 2.7041 14.4131C3.08684 12.9435 4.26189 11.8021 5.78613 11.4053C6.01541 11.3455 6.35109 11.3145 7.17871 11.2969C8.01288 11.2791 9.36692 11.2746 11.6484 11.2744C13.1496 11.2743 14.5334 11.2656 15.5742 11.252C16.0948 11.2451 16.5297 11.2376 16.8496 11.2285C17.1781 11.2192 17.3685 11.2091 17.417 11.2012C20.2583 10.7357 20.794 7.11042 18.2295 5.89551L17.7344 5.66113L12.4248 5.64062C9.8905 5.63047 8.55398 5.62692 7.8457 5.64258C7.48859 5.65048 7.30403 5.66346 7.20801 5.67969C7.20309 5.68052 7.19841 5.68086 7.19434 5.68164C6.63041 7.37138 4.92495 8.18584 3.33789 7.47363C2.28972 7.00303 1.60185 5.82189 1.7334 4.70215C1.88608 3.40241 2.8288 2.39658 4.08887 2.20996ZM19.7832 16.0664C20.1814 16.0837 20.5859 16.1703 20.8984 16.3311C21.4712 16.6257 21.9417 17.1079 22.21 17.6787C22.362 18.0022 22.4376 18.4122 22.4443 18.8096C22.451 19.2065 22.3893 19.6137 22.2461 19.9297C21.989 20.4972 21.4326 21.0656 20.8662 21.3428C20.1801 21.6784 19.2234 21.6854 18.5322 21.3594C17.9614 21.09 17.4485 20.592 17.1699 20.0342C16.8622 19.418 16.8264 18.4933 17.0781 17.8262C17.2038 17.4932 17.4354 17.1587 17.709 16.8789C17.9825 16.5993 18.3103 16.3619 18.6377 16.2324C18.9709 16.1007 19.3846 16.0492 19.7832 16.0664ZM19.6602 17.333C19.4046 17.3306 19.1744 17.3713 19.0361 17.4395V17.4404C18.4875 17.7109 18.1797 18.2088 18.1797 18.834C18.1798 19.3097 18.3424 19.6698 18.6973 19.9814C19.3733 20.575 20.4525 20.4249 20.9639 19.6523C21.0666 19.497 21.1437 19.2662 21.1768 19.0176C21.2098 18.7689 21.1953 18.5253 21.1367 18.3477C21.0818 18.1815 20.9675 17.9966 20.8174 17.8311C20.6673 17.6656 20.4921 17.531 20.3271 17.4561C20.1601 17.3802 19.9136 17.3354 19.6602 17.333ZM5.9834 4.79199C5.91446 3.83889 4.96648 3.20515 4.02637 3.50293C3.43837 3.6894 2.9786 4.31986 2.97559 4.95117C2.97352 5.39447 3.20009 5.81943 3.54492 6.1123C3.89013 6.40547 4.33182 6.54836 4.74121 6.45996C5.18077 6.36505 5.50269 6.16316 5.70801 5.8877C5.91345 5.61206 6.01612 5.244 5.9834 4.79199Z" fill="#1E94D6" stroke="#1E94D6" stroke-width="0.398069"/>
</svg>
