<svg width="48" height="48" viewBox="0 0 48 48" fill="none" xmlns="http://www.w3.org/2000/svg">
<path d="M5.13111 44.5501C4.21111 44.5501 3.41344 44.2111 2.73811 43.5331C2.06244 42.8554 1.72461 42.0549 1.72461 41.1316V19.8851C1.72461 19.4041 1.88911 18.9999 2.21811 18.6726C2.54711 18.3453 2.95328 18.1816 3.43661 18.1816C3.91994 18.1816 4.32311 18.3453 4.64611 18.6726C4.96944 18.9999 5.13111 19.4041 5.13111 19.8851V41.1316H33.7461C34.2271 41.1316 34.6313 41.2961 34.9586 41.6251C35.2859 41.9541 35.4496 42.3623 35.4496 42.8496C35.4496 43.3369 35.2859 43.7421 34.9586 44.0651C34.6313 44.3884 34.2271 44.5501 33.7461 44.5501H5.13111ZM11.3581 38.3351C10.4384 38.3351 9.64078 37.9961 8.96511 37.3181C8.28944 36.6401 7.95161 35.8396 7.95161 34.9166V10.8036C7.95161 10.3226 8.11528 9.91843 8.44261 9.5911C8.76994 9.26376 9.17411 9.1001 9.65511 9.1001H19.9441V5.1316C19.9441 4.2116 20.2819 3.41393 20.9576 2.7386C21.6329 2.06293 22.4306 1.7251 23.3506 1.7251H30.8756C31.7956 1.7251 32.5934 2.06293 33.2691 2.7386C33.9444 3.41393 34.2821 4.2116 34.2821 5.1316V9.1001H44.5711C45.0521 9.1001 45.4563 9.26376 45.7836 9.5911C46.1109 9.91843 46.2746 10.3226 46.2746 10.8036V34.9166C46.2746 35.8396 45.9368 36.6401 45.2611 37.3181C44.5858 37.9961 43.7881 38.3351 42.8681 38.3351H11.3581ZM11.3581 34.9166H42.8681V12.5066H11.3581V34.9166ZM23.3506 9.1001H30.8756V5.1316H23.3506V9.1001Z" fill="#1E94D6"/>
</svg>
