<svg width="48" height="73" viewBox="0 0 48 73" fill="none" xmlns="http://www.w3.org/2000/svg">
<path opacity="0.67" d="M23.9684 72.4542C19.4228 72.4542 15.3708 71.6737 11.8124 70.1125C8.27689 68.5514 5.46458 66.3819 3.37544 63.604C1.30925 60.8032 0.184328 57.5547 0.000667142 53.8585H8.67865C8.86231 56.1313 9.64287 58.0942 11.0203 59.7472C12.3978 61.3772 14.2 62.6398 16.4268 63.5352C18.6537 64.4305 21.1217 64.8782 23.8307 64.8782C26.8611 64.8782 29.5471 64.3502 31.8888 63.2941C34.2305 62.2381 36.0671 60.7688 37.3986 58.8863C38.7302 57.0037 39.3959 54.8228 39.3959 52.3433C39.3959 49.7491 38.7531 47.4648 37.4675 45.4905C36.1819 43.4932 34.2993 41.9321 31.8199 40.8071C29.3405 39.6822 26.3101 39.1197 22.7287 39.1197H17.0811V31.5437H22.7287C25.5295 31.5437 27.986 31.0387 30.0981 30.0285C32.2332 29.0184 33.8976 27.595 35.0914 25.7584C36.3081 23.9218 36.9165 21.7638 36.9165 19.2844C36.9165 16.8968 36.3885 14.8191 35.3324 13.0514C34.2764 11.2836 32.7841 9.90618 30.8557 8.91901C28.9502 7.93183 26.7004 7.43824 24.1062 7.43824C21.6727 7.43824 19.3769 7.88591 17.2189 8.78126C15.0838 9.65365 13.339 10.9278 11.9845 12.6037C10.63 14.2567 9.8954 16.254 9.78061 18.5956H1.51587C1.65362 14.8995 2.76706 11.6624 4.8562 8.88457C6.94535 6.08374 9.6773 3.90277 13.0521 2.34165C16.4498 0.780532 20.1804 -2.79322e-05 24.2439 -2.79322e-05C28.6059 -2.79322e-05 32.3479 0.88384 35.4702 2.65158C38.5924 4.39635 40.9915 6.7036 42.6674 9.5733C44.3433 12.443 45.1813 15.5423 45.1813 18.8711C45.1813 22.8428 44.1367 26.229 42.0475 29.0299C39.9814 31.8307 37.169 33.7706 33.6106 34.8496V35.4006C38.0644 36.1353 41.5425 38.0293 44.0449 41.0826C46.5472 44.113 47.7984 47.8666 47.7984 52.3433C47.7984 56.1773 46.7539 59.6209 44.6647 62.6743C42.5985 65.7047 39.7747 68.0923 36.1934 69.837C32.612 71.5818 28.537 72.4542 23.9684 72.4542Z" fill="#60B4FA"/>
</svg>
