<svg width="45" height="72" viewBox="0 0 45 72" fill="none" xmlns="http://www.w3.org/2000/svg">
<path opacity="0.67" d="M-0.000259169 71.49V65.2914L23.2788 39.8085C26.0107 36.824 28.2606 34.2298 30.0283 32.0258C31.796 29.799 33.1046 27.7098 33.9541 25.7584C34.8264 23.7841 35.2626 21.7179 35.2626 19.5599C35.2626 17.0804 34.6657 14.9339 33.4719 13.1203C32.3011 11.3066 30.6941 9.90618 28.6508 8.91901C26.6076 7.93183 24.3119 7.43824 21.7636 7.43824C19.0546 7.43824 16.6899 8.0007 14.6697 9.12563C12.6723 10.2276 11.1227 11.7772 10.0207 13.7745C8.94173 15.7719 8.40223 18.1135 8.40223 20.7996H0.275232C0.275232 16.6672 1.22797 13.0399 3.13346 9.91766C5.03894 6.79543 7.63315 4.36192 10.9161 2.61714C14.222 0.872361 17.9296 -2.79322e-05 22.0391 -2.79322e-05C26.1714 -2.79322e-05 29.8332 0.872361 33.0243 2.61714C36.2154 4.36192 38.7178 6.71507 40.5314 9.67661C42.3451 12.6381 43.2519 15.9326 43.2519 19.5599C43.2519 22.1541 42.7813 24.6909 41.84 27.1703C40.9217 29.6268 39.3147 32.3702 37.0189 35.4006C34.7461 38.4081 31.5894 42.0813 27.5489 46.4203L11.7081 63.363V63.914H44.4916V71.49H-0.000259169Z" fill="#60B4FA"/>
</svg>
