<svg width="7144" height="1292" viewBox="0 0 7144 1292" fill="none" xmlns="http://www.w3.org/2000/svg">
<g clip-path="url(#clip0_26_1431)">
<path d="M627.722 45.3576C633.171 45.3705 638.621 45.3539 644.071 45.3414C653.593 45.3235 663.115 45.3238 672.638 45.3366C686.798 45.3556 700.957 45.3458 715.117 45.3306C738.947 45.3054 762.777 45.3048 786.607 45.3185C787.693 45.3191 787.693 45.3191 788.8 45.3197C789.525 45.3201 790.25 45.3206 790.996 45.321C813.121 45.3336 835.246 45.3369 857.371 45.3309C858.855 45.3305 860.34 45.3301 861.824 45.3297C867.79 45.3282 873.756 45.3266 879.722 45.3249C896.395 45.3203 913.068 45.3175 929.741 45.316C930.5 45.3159 931.259 45.3159 932.042 45.3158C956.205 45.3137 980.369 45.3194 1004.53 45.3302C1005.32 45.3306 1006.1 45.3309 1006.91 45.3313C1019.62 45.337 1032.33 45.3431 1045.05 45.3493C1095.51 45.3736 1145.97 45.3724 1196.43 45.3481C1209.16 45.342 1221.88 45.3359 1234.61 45.3302C1235.39 45.3299 1236.18 45.3295 1236.99 45.3292C1261.14 45.3184 1285.29 45.3138 1309.45 45.316C1310.21 45.3161 1310.96 45.3161 1311.75 45.3162C1328.39 45.3178 1345.04 45.3209 1361.68 45.3255C1367.64 45.3272 1373.59 45.3288 1379.55 45.3303C1381.03 45.3307 1382.51 45.3311 1383.99 45.3315C1406.12 45.3374 1428.25 45.3324 1450.38 45.3197C1451.1 45.3193 1451.83 45.3189 1452.57 45.3185C1453.3 45.3181 1454.02 45.3177 1454.77 45.3172C1479.18 45.3034 1503.59 45.3085 1527.99 45.3349C1542.07 45.3496 1556.13 45.3505 1570.2 45.3317C1579.6 45.3204 1589 45.3274 1598.39 45.3492C1603.75 45.3611 1609.1 45.3651 1614.45 45.3471C1619.33 45.331 1624.2 45.3379 1629.08 45.363C1630.83 45.3681 1632.57 45.3648 1634.32 45.352C1652.29 45.2301 1666.07 50.0114 1679.53 62.3125C1686.38 69.4427 1695.11 80.8089 1695.13 91.0968C1695.13 91.9361 1695.14 92.7755 1695.14 93.6403C1695.14 94.5643 1695.14 95.4883 1695.14 96.4404C1695.14 97.4246 1695.15 98.4089 1695.15 99.4229C1695.16 102.753 1695.16 106.084 1695.16 109.414C1695.17 111.814 1695.17 114.213 1695.18 116.613C1695.19 122.537 1695.2 128.462 1695.2 134.387C1695.21 141.482 1695.22 148.577 1695.23 155.673C1695.27 173.654 1695.29 191.635 1695.3 209.616C1695.31 214.493 1695.31 219.37 1695.32 224.247C1695.35 254.555 1695.38 284.863 1695.39 315.171C1695.4 322.197 1695.4 329.223 1695.41 336.25C1695.41 337.559 1695.41 337.559 1695.41 338.895C1695.42 367.114 1695.46 395.334 1695.51 423.553C1695.56 452.598 1695.6 481.643 1695.6 510.687C1695.61 514.805 1695.61 518.922 1695.61 523.039C1695.61 524.254 1695.61 524.254 1695.61 525.494C1695.61 538.45 1695.64 551.407 1695.67 564.363C1695.7 577.438 1695.71 590.512 1695.7 603.586C1695.69 610.649 1695.7 617.712 1695.73 624.775C1695.86 655.389 1694.98 684.915 1689 715C1688.75 716.282 1688.49 717.565 1688.23 718.886C1676.98 774.577 1653.11 828.482 1615 871C1614.09 872.038 1613.17 873.075 1612.26 874.113C1592.94 895.837 1569.22 913.678 1544 928C1543.21 928.453 1542.42 928.907 1541.61 929.374C1495.03 956 1495.03 956 1481 956C1480.94 957.046 1480.94 957.046 1480.87 958.113C1478.25 995.064 1466.29 1032.64 1448.94 1065.21C1448.01 1066.98 1447.11 1068.78 1446.22 1070.57C1434.76 1093.29 1418.88 1114.05 1402 1133C1401.53 1133.53 1401.06 1134.05 1400.58 1134.59C1391.6 1144.64 1382.27 1154.26 1372 1163C1371.03 1163.86 1370.06 1164.72 1369.06 1165.6C1354.76 1178.21 1339.39 1189.29 1323 1199C1322.23 1199.47 1321.45 1199.93 1320.65 1200.41C1284.69 1221.97 1245.54 1235.53 1204.25 1242.38C1203.52 1242.5 1202.78 1242.62 1202.03 1242.74C1184.63 1245.59 1167.58 1247.3 1149.95 1247.27C1148.09 1247.27 1146.23 1247.28 1144.37 1247.28C1139.29 1247.3 1134.21 1247.3 1129.13 1247.29C1123.59 1247.29 1118.05 1247.31 1112.52 1247.32C1101.55 1247.34 1090.58 1247.34 1079.61 1247.35C1067.14 1247.35 1054.67 1247.37 1042.2 1247.39C1009.77 1247.43 977.332 1247.45 944.899 1247.47C934.382 1247.47 923.865 1247.48 913.348 1247.49C912.606 1247.49 911.863 1247.49 911.098 1247.49C908.093 1247.49 905.088 1247.49 902.084 1247.5C850.7 1247.53 799.316 1247.56 747.932 1247.58C743.9 1247.58 739.868 1247.58 735.836 1247.58C734.636 1247.58 734.636 1247.58 733.413 1247.58C725.31 1247.58 717.207 1247.59 709.105 1247.59C707.48 1247.59 705.855 1247.59 704.231 1247.59C652.032 1247.61 599.833 1247.65 547.634 1247.72C510.107 1247.76 472.579 1247.81 435.051 1247.82C434.279 1247.82 433.507 1247.82 432.712 1247.82C415.768 1247.83 398.823 1247.83 381.879 1247.83C375.061 1247.83 368.243 1247.84 361.426 1247.84C360.68 1247.84 359.934 1247.84 359.165 1247.84C335.145 1247.84 311.125 1247.87 287.106 1247.91C262.915 1247.95 238.725 1247.97 214.535 1247.95C199.53 1247.94 184.525 1247.95 169.52 1247.99C159.947 1248.02 150.375 1248.02 140.802 1247.99C135.347 1247.98 129.893 1247.98 124.439 1248.01C119.471 1248.04 114.505 1248.03 109.537 1248C107.756 1247.99 105.976 1248 104.196 1248.02C87.9423 1248.21 75.645 1243.38 63.895 1232.01C62.5822 1230.68 61.2902 1229.34 60 1228C59.3864 1227.39 58.7728 1226.79 58.1406 1226.16C49.3264 1216.85 45.6849 1204.82 45.7427 1192.32C45.7392 1191.35 45.7357 1190.39 45.7321 1189.4C45.7228 1186.17 45.7278 1182.94 45.7326 1179.71C45.7289 1177.37 45.7243 1175.04 45.7189 1172.7C45.7079 1166.94 45.7062 1161.19 45.7086 1155.43C45.7108 1148.54 45.7016 1141.65 45.692 1134.75C45.6727 1120.45 45.667 1106.14 45.6659 1091.84C45.665 1080.78 45.6609 1069.72 45.6545 1058.66C45.6527 1055.48 45.651 1052.29 45.6492 1049.11C45.6487 1048.31 45.6483 1047.52 45.6478 1046.71C45.6355 1024.42 45.6276 1002.13 45.6285 979.839C45.6285 978.999 45.6286 978.158 45.6286 977.292C45.6288 973.032 45.629 968.772 45.6292 964.511C45.6292 963.665 45.6292 962.819 45.6293 961.948C45.6294 960.237 45.6294 958.526 45.6295 956.815C45.6307 930.256 45.6158 903.697 45.5884 877.138C45.5576 847.269 45.5405 817.401 45.5423 787.532C45.5425 784.338 45.5425 781.143 45.5426 777.949C45.5426 777.163 45.5427 776.376 45.5427 775.566C45.5428 762.977 45.5301 750.387 45.5128 737.798C45.4957 725.105 45.4939 712.412 45.507 699.719C45.5136 692.86 45.5138 686 45.4963 679.14C45.4301 651.498 45.5414 624.341 50 597C50.3052 595.123 50.3052 595.123 50.6165 593.209C51.9044 585.432 53.3503 577.708 55 570C55.2082 569.025 55.4164 568.051 55.6309 567.047C64.9783 524.48 81.8453 483.65 107 448C107.486 447.309 107.972 446.618 108.472 445.907C115.454 436.07 123.18 427.244 131.532 418.554C133.344 416.636 135.054 414.645 136.75 412.625C140.768 407.977 145.364 404.016 150 400C150.956 399.156 151.913 398.311 152.898 397.441C185.344 369.099 224.652 349.25 265.313 335.687C266.058 335.438 266.804 335.189 267.572 334.933C275.986 332.137 284.441 329.531 292.98 327.144C294.141 326.82 294.141 326.82 295.324 326.488C300.744 325 300.744 325 303 325C303.075 324.147 303.15 323.293 303.227 322.414C306.291 293.269 315.243 264.737 327 238C327.353 237.191 327.706 236.382 328.069 235.549C341.448 205.2 360.621 178.331 383 154C384.48 152.334 385.959 150.667 387.438 149C393.87 141.861 400.594 135.059 407.906 128.82C410.309 126.731 412.614 124.551 414.938 122.375C431.224 107.55 449.851 94.8323 469 84C469.688 83.6099 470.377 83.2197 471.086 82.8178C490.62 71.8742 511.398 62.9394 533 57C533.877 56.7544 534.754 56.5088 535.658 56.2558C566.59 47.707 595.817 45.2494 627.722 45.3576ZM532 193C530.842 193.603 529.685 194.207 528.492 194.828C513.828 202.778 500.944 213.425 489 225C488.442 225.532 487.884 226.064 487.31 226.612C479.242 234.323 471.925 242.307 465.279 251.276C464.03 252.96 462.758 254.624 461.484 256.289C449.362 272.394 438.81 291.484 433.951 311.152C433.637 312.422 433.323 313.691 433 315C513.758 315.188 594.515 315.363 675.273 315.466C676.468 315.467 677.663 315.469 678.894 315.47C704.866 315.503 730.837 315.534 756.809 315.562C769.545 315.575 782.281 315.59 795.018 315.604C796.285 315.606 797.553 315.607 798.859 315.609C839.946 315.655 881.033 315.738 922.12 315.839C964.339 315.943 1006.56 316.011 1048.78 316.033C1054.74 316.036 1060.7 316.04 1066.66 316.044C1067.84 316.044 1069.01 316.045 1070.22 316.046C1089.12 316.059 1108.01 316.11 1126.91 316.175C1145.9 316.24 1164.89 316.265 1183.88 316.248C1195.17 316.24 1206.45 316.262 1217.74 316.329C1225.28 316.37 1232.82 316.371 1240.36 316.34C1244.66 316.323 1248.95 316.324 1253.25 316.374C1273.08 317.573 1273.08 317.573 1290.27 309.699C1291.89 307.841 1293.48 305.944 1295 304C1296.8 302.457 1298.63 300.95 1300.5 299.5C1304.54 296.212 1308.53 292.873 1312.5 289.5C1317.35 285.379 1322.25 281.33 1327.19 277.312C1330.32 274.738 1333.41 272.124 1336.5 269.5C1341.35 265.379 1346.25 261.33 1351.19 257.312C1354.88 254.276 1358.52 251.18 1362.17 248.084C1365.56 245.204 1368.98 242.368 1372.44 239.562C1376.68 236.107 1380.85 232.573 1385 229C1390.01 224.681 1395.09 220.449 1400.22 216.277C1403.34 213.718 1406.42 211.114 1409.5 208.5C1414.35 204.379 1419.25 200.33 1424.19 196.312C1427.87 193.282 1431.51 190.193 1435.14 187.101C1439.6 183.323 1444.11 179.633 1448.66 175.973C1450.9 174.083 1452.94 172.084 1455 170C1374.34 169.949 1293.68 169.901 1213.02 169.873C1211.83 169.873 1210.64 169.872 1209.41 169.872C1183.45 169.863 1157.5 169.854 1131.55 169.847C1118.82 169.843 1106.09 169.839 1093.37 169.835C1092.1 169.835 1090.83 169.834 1089.53 169.834C1048.49 169.821 1007.45 169.799 966.414 169.771C924.236 169.743 882.058 169.724 839.879 169.718C833.92 169.717 827.96 169.716 822 169.715C820.827 169.715 819.654 169.715 818.446 169.715C799.578 169.711 780.71 169.697 761.842 169.679C742.865 169.662 723.889 169.655 704.912 169.659C693.643 169.662 682.374 169.656 671.104 169.638C663.567 169.626 656.03 169.626 648.493 169.634C644.204 169.639 639.916 169.639 635.627 169.625C598.42 169.515 565.098 175.238 532 193ZM1566.25 240.812C1564.76 242.044 1564.76 242.044 1563.23 243.301C1559.41 246.479 1555.63 249.694 1551.84 252.911C1547.54 256.558 1543.18 260.129 1538.81 263.687C1535.68 266.261 1532.59 268.876 1529.5 271.5C1524.65 275.621 1519.75 279.67 1514.81 283.687C1511.12 286.724 1507.48 289.82 1503.83 292.916C1500.44 295.795 1497.02 298.632 1493.56 301.437C1489.32 304.893 1485.15 308.427 1481 312C1475.99 316.319 1470.91 320.551 1465.78 324.723C1462.66 327.282 1459.58 329.886 1456.5 332.5C1451.65 336.621 1446.75 340.67 1441.81 344.687C1438.68 347.261 1435.59 349.876 1432.5 352.5C1427.65 356.621 1422.75 360.67 1417.81 364.687C1414.12 367.724 1410.48 370.82 1406.83 373.916C1403.44 376.795 1400.02 379.632 1396.56 382.437C1392.32 385.893 1388.15 389.427 1384 393C1378.98 397.322 1373.91 401.558 1368.77 405.73C1366.26 407.788 1363.78 409.877 1361.32 411.983C1358.56 414.338 1355.78 416.673 1353 419C1352.42 419.483 1351.85 419.966 1351.25 420.464C1340.18 429.665 1328.48 438.242 1313.46 438.255C1312.17 438.261 1310.89 438.267 1309.56 438.273C1308.15 438.269 1306.73 438.266 1305.32 438.262C1303.8 438.265 1302.28 438.269 1300.76 438.274C1296.58 438.285 1292.4 438.283 1288.22 438.279C1283.68 438.278 1279.13 438.288 1274.59 438.296C1266.62 438.309 1258.66 438.315 1250.69 438.316C1238.84 438.317 1226.99 438.33 1215.15 438.345C1195.22 438.37 1175.29 438.386 1155.36 438.397C1135.63 438.407 1115.89 438.422 1096.15 438.442C1094.93 438.443 1093.7 438.444 1092.44 438.446C1086.21 438.452 1079.98 438.458 1073.75 438.465C1029.62 438.511 985.491 438.547 941.359 438.578C930.662 438.586 919.964 438.593 909.267 438.601C908.604 438.601 907.94 438.602 907.257 438.602C876.415 438.624 845.573 438.652 814.731 438.681C812.729 438.683 810.727 438.684 808.724 438.686C795.455 438.699 782.186 438.711 768.917 438.724C741.886 438.749 714.854 438.774 687.823 438.799C686.58 438.8 685.337 438.801 684.057 438.802C601.038 438.878 518.019 438.94 435 439C435.955 441.572 436.913 444.143 437.872 446.714C438.141 447.439 438.41 448.164 438.687 448.911C441.553 456.585 445.141 463.78 449 471C449.328 471.616 449.655 472.233 449.993 472.868C469.11 508.511 501.148 538.751 537 557C537.687 557.358 538.375 557.716 539.083 558.084C576.682 577.529 619.688 580.162 661.263 580.138C663.475 580.14 665.686 580.143 667.898 580.147C673.934 580.154 679.97 580.156 686.006 580.157C691.861 580.158 697.716 580.165 703.571 580.171C714.809 580.183 726.048 580.192 737.287 580.198C755.139 580.208 772.991 580.227 790.843 580.249C797.727 580.258 804.61 580.266 811.494 580.275C812.258 580.276 813.023 580.276 813.811 580.277C831.987 580.299 850.164 580.319 868.34 580.338C869.135 580.339 869.93 580.339 870.748 580.34C889.279 580.359 907.81 580.376 926.341 580.389C927.138 580.389 927.935 580.39 928.755 580.39C935.177 580.395 941.598 580.399 948.02 580.403C974.549 580.42 1001.08 580.447 1027.61 580.486C1031.36 580.491 1035.11 580.497 1038.87 580.502C1039.61 580.503 1040.35 580.504 1041.11 580.505C1052.94 580.521 1064.78 580.527 1076.62 580.528C1088.53 580.53 1100.45 580.542 1112.37 580.565C1118.81 580.577 1125.25 580.584 1131.7 580.578C1137.61 580.573 1143.53 580.582 1149.45 580.601C1151.57 580.605 1153.69 580.605 1155.81 580.599C1211.21 580.454 1268.94 596.612 1316 626C1316.73 626.454 1317.46 626.908 1318.21 627.376C1336.58 638.901 1353.89 651.48 1370 666C1370.97 666.855 1371.93 667.709 1372.93 668.59C1386.15 680.463 1399.13 692.91 1410 707C1410.87 708.054 1411.75 709.104 1412.63 710.152C1426.38 726.637 1438.25 744.886 1448 764C1448.41 764.799 1448.82 765.598 1449.24 766.421C1458.23 784.185 1465.64 802.81 1471 822C1510.22 804.743 1539.65 763.56 1554.85 724.84C1569.2 687.047 1572.64 648.787 1572.46 608.739C1572.45 603.73 1572.45 598.721 1572.46 593.712C1572.46 585.072 1572.45 576.432 1572.42 567.792C1572.39 555.301 1572.38 542.809 1572.38 530.318C1572.37 510.042 1572.34 489.766 1572.3 469.49C1572.26 449.816 1572.24 430.142 1572.22 410.468C1572.22 409.251 1572.22 408.035 1572.22 406.782C1572.21 400.677 1572.21 394.573 1572.2 388.469C1572.16 337.979 1572.09 287.49 1572 237C1569.89 237 1567.75 239.575 1566.25 240.812ZM297.5 458.375C296.239 458.911 296.239 458.911 294.952 459.457C280.118 465.881 266.113 473.542 253 483C252.153 483.603 252.153 483.603 251.289 484.219C235.821 495.37 221.847 509.313 211 525C210.282 526.023 209.564 527.047 208.824 528.102C179.836 571.249 170.336 620.469 170.451 671.585C170.456 675.828 170.438 680.071 170.423 684.314C170.4 691.643 170.391 698.972 170.392 706.301C170.394 716.953 170.373 727.605 170.348 738.257C170.307 755.623 170.283 772.989 170.271 790.355C170.259 807.076 170.239 823.796 170.208 840.516C170.206 841.542 170.204 842.569 170.202 843.627C170.192 848.785 170.182 853.944 170.172 859.103C170.051 921.735 169.978 984.368 170 1047C171.126 1046.04 172.252 1045.08 173.377 1044.11C174.004 1043.58 174.631 1043.04 175.277 1042.49C179.548 1038.79 183.405 1034.74 187.063 1030.44C190.514 1026.42 194.239 1022.72 198 1019C203.385 1013.69 203.385 1013.69 208.438 1008.06C212.501 1003.25 217.058 998.918 221.529 994.491C225.21 990.832 228.722 987.123 232.066 983.152C235.51 979.32 239.228 975.753 242.889 972.13C245.849 969.189 248.747 966.256 251.438 963.062C254.89 958.974 258.701 955.263 262.5 951.5C268.175 945.914 268.175 945.914 273.5 940C277.537 935.206 282.08 930.897 286.529 926.49C290.21 922.831 293.722 919.123 297.066 915.152C300.508 911.322 304.224 907.758 307.883 904.137C311.474 900.569 314.884 896.931 318.156 893.066C323.353 887.242 329.073 881.858 334.656 876.406C336.75 874.256 338.535 872.051 340.375 869.687C347.549 861.516 359.63 855.537 370.459 854.748C372.297 854.747 372.297 854.747 374.172 854.745C374.864 854.742 375.556 854.739 376.268 854.735C378.583 854.727 380.898 854.733 383.213 854.738C384.898 854.735 386.582 854.731 388.267 854.726C392.912 854.715 397.556 854.717 402.201 854.72C407.248 854.722 412.295 854.712 417.342 854.704C426.193 854.691 435.044 854.685 443.895 854.684C457.055 854.683 470.216 854.67 483.377 854.655C505.514 854.63 527.651 854.614 549.788 854.603C571.711 854.593 593.635 854.578 615.559 854.558C616.24 854.557 616.921 854.557 617.622 854.556C623.84 854.55 630.058 854.545 636.276 854.539C651.733 854.524 667.19 854.511 682.648 854.497C683.352 854.497 684.055 854.496 684.781 854.495C719.024 854.466 753.268 854.443 787.511 854.422C799.395 854.414 811.278 854.407 823.162 854.399C823.899 854.399 824.636 854.398 825.396 854.398C859.656 854.375 893.917 854.348 928.177 854.319C930.401 854.317 932.625 854.315 934.849 854.314C949.589 854.301 964.328 854.289 979.068 854.276C1008.4 854.251 1037.72 854.227 1067.05 854.203C1068.45 854.202 1069.84 854.201 1071.24 854.2C1158.22 854.128 1245.21 854.069 1350 854C1349.09 851.17 1348.17 848.342 1347.24 845.516C1346.99 844.726 1346.73 843.937 1346.47 843.123C1343.79 834.974 1340.09 827.52 1336 820C1335.68 819.397 1335.36 818.794 1335.02 818.173C1326.01 801.377 1314.47 786.024 1300.76 772.762C1299.06 771.059 1297.53 769.295 1296 767.437C1292.68 763.51 1288.96 760.272 1285 757C1284.49 756.57 1283.98 756.141 1283.45 755.699C1273.8 747.628 1263.75 740.533 1253 734C1252.34 733.596 1251.68 733.193 1251 732.777C1229.36 719.721 1204.95 710.98 1180 707C1178.82 706.808 1177.64 706.616 1176.42 706.418C1159.14 703.862 1141.68 703.851 1124.24 703.855C1122.11 703.852 1119.97 703.848 1117.84 703.844C1112.03 703.835 1106.22 703.831 1100.42 703.829C1094.13 703.825 1087.84 703.815 1081.56 703.806C1070.68 703.791 1059.79 703.78 1048.91 703.77C1032.42 703.756 1015.92 703.733 999.419 703.708C992.78 703.699 986.142 703.689 979.503 703.68C978.397 703.678 978.397 703.678 977.269 703.676C959.744 703.651 942.219 703.629 924.694 703.607C923.545 703.606 923.545 703.606 922.372 703.604C904.52 703.582 886.668 703.561 868.816 703.543C867.666 703.541 867.666 703.541 866.492 703.54C862.625 703.536 858.759 703.532 854.892 703.528C854.128 703.527 853.364 703.526 852.576 703.526C851.034 703.524 849.491 703.522 847.949 703.521C822.378 703.494 796.807 703.461 771.236 703.42C767.614 703.414 763.991 703.409 760.368 703.403C759.299 703.401 759.299 703.401 758.209 703.4C746.814 703.382 735.419 703.372 724.024 703.365C712.538 703.357 701.052 703.343 689.566 703.321C683.363 703.31 677.159 703.302 670.955 703.302C627.788 703.302 585.086 702.837 543 692C541.732 691.68 541.732 691.68 540.439 691.353C486.754 677.6 437.31 648.089 398.578 608.543C396.825 606.781 396.825 606.781 394 604.562C390.981 601.984 388.524 599.286 385.961 596.269C383.83 593.803 381.605 591.44 379.375 589.062C372.736 581.769 366.866 573.92 361 566C360.492 565.322 359.984 564.644 359.46 563.945C335.032 531.226 320.461 493.864 309 455C304.707 455 301.416 456.711 297.5 458.375ZM402 986C400.519 987.519 399.023 989.023 397.5 990.5C394.837 993.127 392.287 995.767 389.875 998.625C386.3 1002.8 382.404 1006.63 378.5 1010.5C374.135 1014.82 369.894 1019.15 365.934 1023.85C362.49 1027.68 358.772 1031.25 355.111 1034.87C352.151 1037.81 349.253 1040.74 346.562 1043.94C342.499 1048.75 337.942 1053.08 333.471 1057.51C329.79 1061.17 326.278 1064.88 322.934 1068.85C319.49 1072.68 315.772 1076.25 312.111 1079.87C309.151 1082.81 306.253 1085.74 303.562 1088.94C300.11 1093.03 296.299 1096.74 292.5 1100.5C287.451 1105.51 282.572 1110.55 278 1116C276.94 1117.24 275.879 1118.48 274.816 1119.72C274.286 1120.34 273.756 1120.95 273.209 1121.59C272.81 1122.06 272.411 1122.52 272 1123C355.473 1123.07 438.946 1123.13 522.419 1123.17C523.656 1123.17 524.892 1123.17 526.166 1123.17C553.04 1123.18 579.914 1123.19 606.788 1123.2C619.969 1123.21 633.149 1123.21 646.329 1123.22C648.296 1123.22 648.296 1123.22 650.303 1123.22C692.775 1123.24 735.247 1123.27 777.719 1123.31C821.383 1123.34 865.046 1123.37 908.71 1123.38C914.885 1123.38 921.059 1123.38 927.234 1123.38C928.449 1123.38 929.664 1123.38 930.916 1123.38C950.436 1123.39 969.957 1123.4 989.478 1123.43C1009.13 1123.45 1028.78 1123.46 1048.42 1123.45C1060.08 1123.45 1071.74 1123.46 1083.4 1123.48C1091.21 1123.5 1099.02 1123.5 1106.83 1123.49C1111.26 1123.48 1115.7 1123.48 1120.13 1123.5C1188.09 1123.76 1251.56 1106.25 1300.75 1057.5C1306.57 1051.63 1312.04 1045.62 1317 1039C1317.45 1038.39 1317.91 1037.79 1318.38 1037.17C1331.75 1019.2 1342.88 999.653 1349 978C1259.48 977.863 1169.96 977.736 1080.45 977.661C1079.11 977.66 1077.77 977.659 1076.43 977.658C1048.36 977.634 1020.28 977.613 992.208 977.593C978.106 977.583 964.003 977.573 949.9 977.562C947.773 977.56 945.645 977.559 943.518 977.557C910.755 977.533 877.992 977.502 845.229 977.451C844.172 977.449 844.172 977.449 843.094 977.447C831.734 977.43 820.374 977.411 809.014 977.393C776.299 977.34 743.583 977.292 710.868 977.271C710.195 977.27 709.523 977.27 708.83 977.27C694.728 977.261 680.627 977.253 666.526 977.249C659.922 977.246 653.319 977.244 646.715 977.241C644.766 977.24 644.766 977.24 642.777 977.239C621.827 977.23 600.878 977.193 579.928 977.145C558.884 977.098 537.839 977.08 516.795 977.092C504.281 977.098 491.767 977.082 479.253 977.034C470.903 977.004 462.553 977.003 454.202 977.025C449.439 977.037 444.676 977.037 439.912 977.001C435.581 976.969 431.251 976.973 426.92 977.007C425.36 977.013 423.8 977.005 422.241 976.982C412.744 976.853 407.281 977.531 402 986Z" fill="#60B4FA"/>
<path d="M4965 384C4963.12 382.344 4961.4 380.945 4959.23 379.707C4953.25 377.812 4945.99 377.495 4940.32 380.348C4933.37 388.287 4933.37 388.287 4933.49 411.462C4933.51 413.48 4933.51 415.498 4933.51 417.517C4933.49 423.101 4933.49 428.684 4933.51 434.268C4933.53 440.365 4933.53 446.463 4933.53 452.56C4933.52 463.817 4933.52 475.074 4933.54 486.331C4933.56 497.526 4933.58 508.722 4933.58 519.918L4933.58 522.026L4933.58 530.505C4933.59 556.246 4933.61 581.986 4933.64 607.726C4933.67 632.074 4933.7 656.422 4933.7 680.77L4933.7 683.046L4933.71 694.4L4933.71 696.664L4933.71 701.183C4933.72 725.172 4933.73 749.162 4933.75 773.151C4933.76 780.159 4933.76 787.168 4933.77 794.176C4933.77 808.359 4933.78 822.541 4933.8 836.724L4933.81 839.111C4933.81 844.475 4933.82 849.839 4933.83 855.203C4933.83 860.922 4933.83 866.64 4933.84 872.358C4933.85 874.432 4933.85 876.506 4933.85 878.579L4933.85 878.656C4933.85 881.508 4933.85 884.359 4933.86 887.211L4933.87 889.79L4933.87 890.049C4933.85 895.926 4933.84 900.414 4938 905C4942.85 908.325 4942.85 908.325 4953.01 908.442L4956.55 908.433C4959.05 908.444 4961.55 908.453 4964.04 908.459C4967.96 908.446 4971.88 908.437 4975.8 908.466C4978.36 908.487 4980.93 908.499 4983.49 908.5L4987.18 908.496C4994.6 908.568 5002.09 909.132 5008 904C5011.46 897.937 5011.46 897.937 5011.41 882.564C5011.4 881.147 5011.4 879.729 5011.41 878.312C5011.43 874.387 5011.44 870.461 5011.44 866.536C5011.43 862.252 5011.44 857.967 5011.45 853.682C5011.48 846.256 5011.5 838.831 5011.5 831.404C5011.51 820.575 5011.52 809.745 5011.55 798.915C5011.59 781.365 5011.63 763.815 5011.65 746.265C5011.67 729.16 5011.7 712.056 5011.73 694.952L5011.74 691.751C5011.75 686.445 5011.76 681.139 5011.77 675.833C5011.87 631.642 5011.94 587.451 5012 543.259L5012 541C5014.18 543.918 5016.41 546.785 5018.69 549.625C5020.13 551.414 5021.57 553.206 5023 555L5025.23 557.875L5027.38 560.625C5029.34 563.164 5029.34 563.164 5031 565H5033C5033 567 5033 567 5034.25 568.32C5036.09 570.027 5036.09 570.027 5037.88 572.242C5045.25 581.38 5052.84 590.325 5060.49 599.238C5067.43 607.331 5074.48 615.357 5081.15 623.684C5084.43 627.839 5087.75 631.892 5091.31 635.812C5097.55 642.664 5103.53 649.741 5109.38 656.922C5112.99 661.377 5116.64 665.758 5120.5 670C5123.56 673.363 5126.51 676.785 5129.38 680.312C5135.24 687.543 5141.17 694.725 5147.38 701.66C5151.13 705.781 5154.8 709.924 5158.31 714.25C5161.28 717.91 5164.28 721.525 5167.35 725.099C5174.42 733.315 5181.52 741.508 5188.37 749.906C5191.93 754.297 5195.51 758.626 5199.31 762.812C5207.44 771.756 5215.22 780.979 5222.81 790.375C5227.1 795.683 5231.42 800.941 5236 806C5240.52 810.897 5244.91 815.819 5248.99 821.084C5253.02 826.309 5257.12 831.364 5261.63 836.187C5265.02 839.821 5268.3 843.508 5271.44 847.375C5274.38 851.033 5277.38 854.636 5280.44 858.197L5280.63 858.408C5283.93 862.241 5287.24 866.071 5290.45 869.984C5294.04 874.42 5297.66 878.78 5301.5 883C5303.85 885.571 5306.13 888.154 5308.32 890.859C5311.54 894.898 5314.62 898.889 5318.56 902.25C5320.44 903.745 5322.26 905.234 5324.04 906.844C5326.95 909.501 5329.43 911.725 5333 913.437L5335 914C5338 914.5 5350 914 5350 914C5350 914 5352 914 5353.94 912.25C5359.48 903.519 5359.48 903.519 5359.38 879.616C5359.37 877.625 5359.37 875.634 5359.37 873.642C5359.38 868.129 5359.38 862.617 5359.37 857.104C5359.36 851.085 5359.36 845.067 5359.36 839.048C5359.37 827.935 5359.36 816.822 5359.35 805.708C5359.34 794.656 5359.33 783.604 5359.32 772.552L5359.32 770.469L5359.32 762.096C5359.32 736.678 5359.31 711.261 5359.28 685.843C5359.26 661.806 5359.24 637.77 5359.24 613.733L5359.24 611.486L5359.24 602.515L5359.24 598.043L5359.24 593.582C5359.23 569.892 5359.22 546.203 5359.21 522.513C5359.21 515.593 5359.2 508.674 5359.2 501.754C5359.2 487.754 5359.19 473.755 5359.18 459.755L5359.17 457.517C5359.17 452.18 5359.16 446.843 5359.16 441.507C5359.16 435.863 5359.16 430.22 5359.15 424.576C5359.15 422.526 5359.14 420.476 5359.14 418.426V418.354C5359.14 415.541 5359.14 412.727 5359.14 409.914L5359.13 407.359C5359.15 401.314 5359.44 396.161 5356 391C5349.88 385.923 5349.88 385.923 5333.81 385.861L5331.25 385.867C5329.41 385.865 5327.56 385.864 5325.72 385.863C5322.86 385.87 5319.99 385.875 5317.13 385.87C5315.24 385.865 5313.36 385.864 5311.47 385.864L5308.75 385.867C5301.99 385.851 5293.74 385.031 5287.63 388.25C5284.85 391.235 5283.15 393.832 5282.62 397.923L5282.62 401.222C5282.6 403.18 5282.59 405.138 5282.59 407.096C5282.6 408.539 5282.6 409.982 5282.59 411.425C5282.57 415.408 5282.56 419.391 5282.57 423.374C5282.57 427.727 5282.56 432.079 5282.55 436.432C5282.52 443.971 5282.5 451.51 5282.5 459.048C5282.49 470.05 5282.48 481.052 5282.45 492.053C5282.41 509.875 5282.37 527.696 5282.35 545.518C5282.33 562.893 5282.3 580.268 5282.27 597.644L5282.26 600.893C5282.25 606.279 5282.24 611.666 5282.23 617.052C5282.14 661.936 5282.06 706.82 5282 751.704L5282 754C5279.18 751.243 5276.7 748.411 5274.3 745.28C5270.18 739.889 5265.95 734.703 5261.31 729.75C5258.07 726.287 5254.94 722.785 5252 719.062C5246.08 711.51 5239.84 704.206 5233.5 697C5227.79 690.512 5222.14 683.95 5216.76 677.187C5214.34 674.097 5211.97 671.002 5209.23 668.18C5206.02 665.07 5203.08 661.952 5200.31 658.437C5197.49 654.84 5194.6 651.327 5191.62 647.863L5191 647.153C5187.84 643.491 5184.68 639.831 5181.62 636.082C5178.19 631.831 5174.74 627.669 5171.02 623.676C5166.56 618.909 5162.37 614.044 5158.38 608.875C5155.17 604.718 5151.92 600.693 5148.38 596.812C5146.16 594.402 5143.99 591.987 5141.9 589.469C5138.11 584.786 5134.29 580.144 5130.35 575.593L5128.69 573.687C5127.57 572.405 5126.46 571.122 5125.34 569.84L5124.52 568.898C5118.8 562.332 5113.09 555.764 5107.57 549.031C5104.68 545.469 5101.81 541.91 5098.76 538.484C5093.3 532.48 5088.1 526.321 5083 520C5078.52 514.435 5074.01 508.953 5069.19 503.687C5061.78 495.61 5054.56 487.366 5047.85 478.692C5043.73 473.347 5039.5 468.235 5034.88 463.312C5030.53 458.686 5026.4 453.963 5022.41 449.016C5015.89 440.86 5009.46 432.608 5002.44 424.875C4999.41 421.569 4996.44 418.227 4993.51 414.832L4991.94 413C4989.2 409.814 4986.49 406.628 4983.91 403.305C4978.75 396.53 4972.91 390.798 4966.46 385.253L4965 384Z" fill="#414052"/>
<path d="M3917.32 378.541C3913.54 378.554 3909.76 378.563 3905.98 378.533C3853.87 378.097 3800.36 391.068 3756.74 420.197C3753.72 422.221 3750.72 424.166 3747.57 425.996C3743.06 428.52 3738.82 430.946 3734.94 434.375C3732.8 436.366 3730.65 438.28 3728.38 440.125C3723.09 444.346 3718.08 448.661 3713.36 453.519L3711 456C3693.32 474.264 3677.84 494.646 3666.34 517.351C3665.21 519.596 3664.09 521.837 3662.92 524.061C3641.29 564.889 3632.69 611.901 3633.93 657.851L3634 660C3634.94 694.974 3641.58 731.965 3657.2 763.5C3658.15 765.354 3659.1 767.209 3660.03 769.074C3661.75 772.536 3663.46 775.994 3665.2 779.441L3667 783C3671.74 792.762 3677.92 801.619 3684.29 810.376L3686.12 812.875C3691.22 819.836 3696.53 826.457 3702.57 832.625C3703.84 833.87 3705.12 835.118 3706.36 836.391C3714.3 844.56 3722.52 852.281 3731.28 859.573L3733 861C3755.18 879.538 3783.84 894.734 3811.54 903.031L3814.87 904C3830.94 908.69 3846.92 912.969 3863.63 914.456C3865.42 914.613 3867.21 914.803 3869 915C3870 916 3935.26 914.88 3938 915C3938.86 915.012 3940.67 914.988 3941.5 915C3943.22 915.014 3943.31 914.986 3945 915C3962.5 914 3962.43 914.247 4000.72 905.58L4003 905.062C4019.75 901.307 4035.69 896.389 4051.59 889.897L4053.94 888.937C4064.08 884.803 4074.18 880.606 4084.12 876.006L4087.31 874.5C4093.51 871.626 4099.02 868.525 4104.33 864.217C4109.48 857.378 4109.48 857.378 4109.37 838.053C4109.36 836.337 4109.36 834.62 4109.36 832.903C4109.37 828.214 4109.36 823.525 4109.35 818.835C4109.33 813.853 4109.32 808.872 4109.32 803.89C4109.32 795.545 4109.31 787.2 4109.29 778.855C4109.26 768.065 4109.24 757.274 4109.24 746.484C4109.23 737.13 4109.23 727.776 4109.21 718.422C4109.21 715.433 4109.2 712.445 4109.2 709.456C4109.2 704.675 4109.19 699.894 4109.18 695.113C4109.17 693.353 4109.17 691.594 4109.16 689.835C4109.16 687.381 4109.16 684.926 4109.15 682.472L4109.14 680.254C4109.12 673.051 4108.71 668.682 4104 663C4098.31 660.219 4093.49 659.64 4087.19 659.583L4083.87 659.601C4081.51 659.596 4079.16 659.592 4076.8 659.59C4073.11 659.609 4069.42 659.625 4065.73 659.609C4063.31 659.596 4060.89 659.591 4058.47 659.593L4055 659.601C4048.05 659.563 4042.04 659.277 4036 663C4031.56 667.652 4031.56 667.652 4031.46 678.743V678.744C4031.47 680.751 4031.49 682.758 4031.48 684.766C4031.46 687.705 4031.44 690.644 4031.45 693.584C4031.46 698.307 4031.46 703.029 4031.44 707.751C4031.4 715.222 4031.38 722.693 4031.38 730.164C4031.37 743.676 4031.35 757.189 4031.3 770.701C4031.29 775.454 4031.27 780.207 4031.27 784.96C4031.28 787.965 4031.27 790.969 4031.27 793.973C4031.26 795.373 4031.26 796.773 4031.26 798.173L4031.26 798.309C4031.27 802.88 4031.28 807.436 4031 812C4030.4 815.569 4029.89 818.248 4027.03 820.664L4024 822C4010.65 827.909 3997.18 832.527 3982.87 835.426L3980 836C3956.38 840.882 3933.8 843.136 3909.7 843.185L3906.62 843.187C3903.65 843.191 3900.68 843.191 3897.71 843.181L3894.91 843.168C3852.03 843.107 3808.84 825.575 3777.25 796.875C3775.12 794.838 3773.32 793.176 3770.73 791.758L3769 791C3769 789 3769 789 3767.73 787.656C3765.93 785.994 3765.93 785.994 3764.27 783.906C3762.19 781.265 3760.1 778.625 3758 776C3750.36 767.092 3744.03 757.975 3738.74 747.517C3714.18 697.33 3706.02 636.787 3724.28 583.082L3725 581C3735.64 549.482 3751.61 518.137 3778.23 497.176C3780.05 495.746 3781.85 494.286 3783.61 492.793C3785.4 491.285 3787.19 489.794 3789 488.32C3829.99 456.58 3886.1 446.528 3936.87 452.701L3939 453C3951.89 454.705 3964.43 457.74 3976.96 461.166L3979.31 461.812C3994.69 465.958 4009.28 471.178 4023.32 478.781L4026.19 480.375C4032.89 484.045 4039.49 487.8 4045.87 492C4053.94 497.308 4060.95 502.516 4071 501C4076.3 498.35 4079.37 494.693 4082.56 489.812C4085.54 485.173 4088.64 480.683 4091.9 476.234C4097.5 468.58 4104.7 460.789 4106.81 451.375C4105.8 447.171 4104.12 445.086 4101.14 442.016L4099 440C4068.6 411.028 4019.86 394.624 3979.83 385.639L3977.81 385.187C3957.74 380.658 3937.91 378.557 3917.32 378.541Z" fill="#414052"/>
<path d="M4391.64 385.866C4393.37 385.863 4393.37 385.863 4395.14 385.86C4398.33 385.854 4401.52 385.854 4404.71 385.855C4408.15 385.855 4411.6 385.849 4415.05 385.845C4421.79 385.836 4428.54 385.834 4435.28 385.833C4440.77 385.833 4446.25 385.831 4451.74 385.827C4467.3 385.819 4482.86 385.814 4498.43 385.815C4499.26 385.815 4500.1 385.815 4500.97 385.815C4501.8 385.815 4502.64 385.815 4503.51 385.815C4517.11 385.815 4530.71 385.806 4544.31 385.792C4558.29 385.777 4572.27 385.77 4586.25 385.771C4594.09 385.772 4601.93 385.769 4609.78 385.758C4616.45 385.749 4623.13 385.747 4629.81 385.754C4633.21 385.757 4636.61 385.757 4640.02 385.748C4643.71 385.741 4647.41 385.745 4651.11 385.753C4652.17 385.748 4653.24 385.743 4654.34 385.737C4670 385.809 4670 385.809 4676 390.188C4680.38 396.35 4680.31 402.876 4680.3 410.176C4680.31 411.141 4680.31 412.106 4680.31 413.101C4680.32 415.135 4680.32 417.17 4680.32 419.205C4680.31 422.293 4680.34 425.379 4680.36 428.467C4680.36 430.453 4680.36 432.44 4680.36 434.426C4680.37 435.337 4680.38 436.247 4680.39 437.186C4680.35 443.162 4680.14 449.773 4677 455C4671.47 458.872 4667.43 459.579 4660.77 459.512C4659.86 459.519 4658.95 459.526 4658.02 459.533C4654.99 459.551 4651.95 459.54 4648.92 459.53C4646.74 459.537 4644.56 459.546 4642.39 459.557C4636.48 459.58 4630.57 459.579 4624.66 459.575C4618.48 459.574 4612.29 459.597 4606.11 459.617C4594.39 459.653 4582.68 459.669 4570.96 459.677C4553.76 459.69 4536.57 459.728 4519.37 459.771C4518.11 459.774 4516.85 459.777 4515.55 459.781C4513.03 459.787 4510.52 459.793 4508.01 459.8C4500.64 459.818 4493.27 459.829 4485.91 459.834C4481.33 459.838 4476.75 459.845 4472.17 459.854C4470.05 459.857 4467.92 459.858 4465.8 459.857C4462.9 459.857 4460 459.862 4457.1 459.869C4456.26 459.867 4455.42 459.865 4454.55 459.864C4450.28 459.88 4446.17 459.968 4442 461C4440.67 463.651 4440.87 465.641 4440.87 468.611C4440.87 469.805 4440.87 470.998 4440.86 472.227C4440.87 473.543 4440.87 474.859 4440.87 476.215C4440.87 477.609 4440.87 479.004 4440.87 480.398C4440.86 484.191 4440.86 487.985 4440.87 491.778C4440.87 495.743 4440.87 499.708 4440.86 503.673C4440.86 510.334 4440.87 516.995 4440.87 523.655C4440.88 531.36 4440.87 539.065 4440.87 546.77C4440.86 553.379 4440.86 559.988 4440.87 566.597C4440.87 570.546 4440.87 574.496 4440.86 578.446C4440.86 582.16 4440.86 585.874 4440.87 589.588C4440.87 591.605 4440.87 593.621 4440.86 595.638C4440.87 597.432 4440.87 597.432 4440.87 599.262C4440.87 600.304 4440.87 601.346 4440.87 602.419C4440.89 605.118 4440.89 605.118 4442 608C4445.62 609.554 4449.74 609.13 4453.61 609.107C4454.77 609.106 4454.77 609.106 4455.95 609.105C4458.53 609.102 4461.12 609.092 4463.71 609.082C4465.56 609.078 4467.41 609.075 4469.26 609.073C4473.26 609.066 4477.25 609.057 4481.24 609.045C4487.56 609.026 4493.89 609.017 4500.21 609.009C4518.18 608.985 4536.16 608.949 4554.14 608.904C4564.06 608.88 4573.99 608.862 4583.92 608.853C4590.19 608.846 4596.47 608.831 4602.74 608.808C4606.66 608.797 4610.58 608.793 4614.5 608.792C4616.31 608.79 4618.11 608.785 4619.92 608.775C4644.65 608.652 4644.65 608.652 4651.13 613.188C4655.27 619.4 4655.31 625.756 4655.3 632.992C4655.31 633.938 4655.31 634.883 4655.31 635.857C4655.32 637.849 4655.32 639.841 4655.32 641.833C4655.31 644.859 4655.34 647.884 4655.36 650.91C4655.36 652.854 4655.36 654.798 4655.36 656.742C4655.37 657.636 4655.38 658.53 4655.39 659.452C4655.34 666.318 4654.33 672.757 4650.25 678.438C4644.95 682.119 4638.86 682.295 4632.6 682.279C4631.79 682.284 4630.97 682.29 4630.12 682.296C4627.39 682.313 4624.67 682.316 4621.94 682.319C4619.98 682.328 4618.01 682.338 4616.05 682.349C4610.74 682.377 4605.42 682.392 4600.11 682.405C4594.55 682.421 4588.99 682.447 4583.43 682.473C4572.91 682.52 4562.39 682.556 4551.86 682.59C4539.88 682.628 4527.9 682.677 4515.92 682.728C4491.28 682.831 4466.64 682.92 4442 683C4440.92 686.24 4440.88 688.571 4440.88 691.98C4440.88 693.229 4440.88 694.478 4440.88 695.766C4440.88 697.153 4440.88 698.54 4440.89 699.927C4440.89 701.385 4440.89 702.844 4440.89 704.302C4440.89 708.265 4440.89 712.227 4440.9 716.19C4440.91 720.33 4440.91 724.47 4440.91 728.61C4440.91 736.451 4440.92 744.292 4440.93 752.133C4440.94 761.059 4440.94 769.985 4440.95 778.911C4440.96 797.274 4440.98 815.637 4441 834C4442.17 834.003 4443.34 834.005 4444.54 834.007C4472.29 834.065 4500.03 834.137 4527.78 834.229C4531.2 834.24 4534.61 834.252 4538.03 834.263C4538.71 834.265 4539.39 834.267 4540.09 834.269C4551.1 834.305 4562.1 834.329 4573.11 834.35C4584.41 834.372 4595.71 834.406 4607 834.449C4613.35 834.473 4619.69 834.491 4626.04 834.498C4632.01 834.504 4637.98 834.524 4643.95 834.554C4646.14 834.563 4648.33 834.567 4650.52 834.565C4653.52 834.564 4656.51 834.58 4659.5 834.601C4660.37 834.597 4661.24 834.592 4662.13 834.587C4667.49 834.649 4671.26 835.437 4676 838C4681.51 844.53 4681.16 851.556 4681.17 859.676C4681.17 860.601 4681.17 861.525 4681.18 862.478C4681.18 864.428 4681.19 866.379 4681.19 868.33C4681.19 871.292 4681.21 874.255 4681.22 877.217C4681.23 879.12 4681.23 881.023 4681.23 882.926C4681.24 883.801 4681.24 884.677 4681.25 885.578C4681.2 899.345 4681.2 899.345 4677.65 903.629C4673.58 907.144 4670.27 908.124 4665.03 908.134C4664 908.139 4662.97 908.143 4661.9 908.148C4660.2 908.148 4660.2 908.148 4658.46 908.147C4657.25 908.151 4656.04 908.155 4654.8 908.158C4651.45 908.168 4648.1 908.172 4644.74 908.175C4641.13 908.179 4637.52 908.188 4633.9 908.197C4625.17 908.217 4616.44 908.227 4607.71 908.236C4603.6 908.24 4599.49 908.245 4595.38 908.251C4581.72 908.268 4568.05 908.282 4554.39 908.289C4550.84 908.291 4547.29 908.293 4543.75 908.295C4542.43 908.296 4542.43 908.296 4541.08 908.297C4526.8 908.305 4512.52 908.33 4498.24 908.363C4483.58 908.396 4468.92 908.414 4454.26 908.417C4446.03 908.419 4437.8 908.428 4429.57 908.454C4422.56 908.475 4415.55 908.483 4408.54 908.474C4404.97 908.469 4401.39 908.471 4397.82 908.49C4393.94 908.511 4390.06 908.501 4386.18 908.488C4384.49 908.504 4384.49 908.504 4382.77 908.521C4376.79 908.472 4370.56 908.35 4366 904C4363.1 898.667 4362.57 894.345 4362.62 888.347C4362.62 887.496 4362.61 886.646 4362.61 885.77C4362.6 882.919 4362.61 880.068 4362.62 877.217C4362.62 875.153 4362.61 873.088 4362.61 871.024C4362.59 865.351 4362.6 859.678 4362.61 854.004C4362.61 847.886 4362.6 841.768 4362.6 835.65C4362.58 824.358 4362.58 813.065 4362.59 801.773C4362.6 791.341 4362.6 780.91 4362.6 770.479C4362.6 769.787 4362.6 769.095 4362.6 768.382C4362.6 765.574 4362.6 762.766 4362.6 759.957C4362.59 733.612 4362.59 707.267 4362.61 680.922C4362.62 657.512 4362.62 634.102 4362.61 610.691C4362.59 584.393 4362.59 558.095 4362.6 531.796C4362.6 528.994 4362.6 526.191 4362.6 523.388C4362.6 522.698 4362.6 522.008 4362.6 521.296C4362.6 510.87 4362.6 500.445 4362.59 490.019C4362.58 478.166 4362.59 466.313 4362.6 454.46C4362.61 448.409 4362.61 442.359 4362.6 436.309C4362.59 430.774 4362.6 425.24 4362.61 419.705C4362.62 417.699 4362.62 415.693 4362.61 413.687C4362.6 410.967 4362.61 408.248 4362.62 405.528C4362.62 404.743 4362.61 403.959 4362.6 403.151C4362.65 398.355 4363.44 395.065 4366 391C4373.23 384.78 4382.61 385.853 4391.64 385.866Z" fill="#414052"/>
<path d="M6325.95 385.746C6327.68 385.741 6327.68 385.741 6329.45 385.736C6333.29 385.729 6337.12 385.735 6340.96 385.741C6343.72 385.74 6346.48 385.735 6349.25 385.73C6355.95 385.722 6362.66 385.724 6369.37 385.729C6374.82 385.734 6380.28 385.734 6385.73 385.732C6386.9 385.732 6386.9 385.732 6388.09 385.731C6389.67 385.731 6391.25 385.73 6392.83 385.729C6407.63 385.724 6422.43 385.73 6437.24 385.741C6449.92 385.75 6462.61 385.748 6475.29 385.739C6490.04 385.728 6504.79 385.724 6519.54 385.73C6521.12 385.731 6522.69 385.732 6524.27 385.732C6525.04 385.733 6525.82 385.733 6526.62 385.733C6532.06 385.735 6537.5 385.732 6542.95 385.727C6549.59 385.722 6556.23 385.723 6562.87 385.734C6566.25 385.739 6569.63 385.74 6573.02 385.735C6576.69 385.729 6580.37 385.736 6584.05 385.746C6585.1 385.741 6586.16 385.737 6587.25 385.732C6605.19 385.826 6605.19 385.826 6610.64 390.843C6614.25 395.882 6613.82 401.533 6613.73 407.504C6613.73 409.299 6613.73 409.299 6613.73 411.13C6613.72 413.652 6613.71 416.175 6613.67 418.697C6613.62 422.553 6613.63 426.407 6613.64 430.264C6613.63 432.719 6613.62 435.174 6613.6 437.629C6613.6 438.779 6613.61 439.929 6613.61 441.114C6613.5 447.172 6613.35 451.379 6609 456C6604.47 459.537 6600.52 459.428 6595.02 459.392C6593.66 459.401 6593.66 459.401 6592.27 459.41C6589.24 459.426 6586.2 459.421 6583.16 459.416C6580.99 459.424 6578.81 459.432 6576.63 459.442C6570.72 459.466 6564.81 459.471 6558.9 459.473C6552.71 459.479 6546.52 459.502 6540.34 459.524C6528.61 459.562 6516.89 459.586 6505.16 459.605C6484.17 459.638 6463.17 459.696 6442.18 459.759C6434.81 459.78 6427.44 459.796 6420.08 459.806C6415.49 459.813 6410.91 459.824 6406.32 459.835C6404.2 459.84 6402.07 459.843 6399.94 459.844C6397.04 459.845 6394.14 459.853 6391.24 459.862C6390.4 459.861 6389.56 459.86 6388.69 459.859C6387.91 459.862 6387.12 459.866 6386.31 459.87C6385.31 459.871 6385.31 459.871 6384.29 459.873C6381.17 460.046 6378.09 460.559 6375 461C6375 509.51 6375 558.02 6375 608C6388.97 608.061 6402.94 608.121 6417.34 608.184C6426.19 608.224 6435.03 608.265 6443.88 608.307C6457.92 608.373 6471.96 608.438 6486.01 608.497C6496.24 608.54 6506.46 608.586 6516.69 608.637C6522.11 608.663 6527.52 608.688 6532.94 608.709C6538.03 608.729 6543.13 608.753 6548.23 608.78C6550.1 608.79 6551.97 608.797 6553.84 608.803C6556.4 608.812 6558.96 608.826 6561.51 608.842C6562.25 608.843 6562.98 608.844 6563.73 608.845C6579.44 608.968 6579.44 608.968 6585 614C6588.33 620.009 6588.45 625.341 6588.43 632.121C6588.44 633.18 6588.44 634.238 6588.45 635.329C6588.46 637.561 6588.45 639.792 6588.45 642.024C6588.44 645.423 6588.47 648.821 6588.5 652.221C6588.5 654.396 6588.5 656.571 6588.5 658.746C6588.51 659.755 6588.52 660.763 6588.53 661.802C6588.47 667.99 6587.66 672.877 6584 678C6578.67 682.13 6573.46 682.145 6566.93 682.12C6565.7 682.121 6565.7 682.121 6564.44 682.123C6561.69 682.124 6558.94 682.119 6556.19 682.113C6554.22 682.113 6552.24 682.113 6550.27 682.114C6544.92 682.114 6539.56 682.108 6534.21 682.101C6528.61 682.095 6523.02 682.094 6517.42 682.093C6506.83 682.09 6496.23 682.082 6485.64 682.072C6471.32 682.059 6457 682.053 6442.68 682.047C6420.12 682.038 6397.56 682.018 6375 682C6375 731.83 6375 781.66 6375 833C6378.33 834.666 6382.07 834.142 6385.74 834.138C6387.11 834.142 6387.11 834.142 6388.51 834.146C6391.6 834.155 6394.68 834.156 6397.77 834.158C6399.98 834.162 6402.18 834.167 6404.39 834.173C6409.15 834.184 6413.91 834.193 6418.67 834.199C6426.19 834.21 6433.72 834.23 6441.24 834.252C6451.79 834.283 6462.35 834.312 6472.9 834.338C6473.9 834.34 6473.9 834.34 6474.93 834.343C6485.78 834.369 6496.63 834.388 6507.47 834.404C6518.61 834.422 6529.75 834.451 6540.89 834.489C6547.14 834.51 6553.4 834.526 6559.65 834.528C6565.54 834.53 6571.42 834.546 6577.3 834.572C6579.46 834.58 6581.62 834.582 6583.78 834.578C6586.73 834.574 6589.68 834.589 6592.63 834.608C6593.48 834.602 6594.34 834.597 6595.22 834.591C6601.66 834.663 6606.61 835.692 6611.4 840.317C6613.27 843.452 6613.51 845.292 6613.53 848.92C6613.55 850.088 6613.56 851.256 6613.58 852.459C6613.57 854.338 6613.57 854.338 6613.57 856.254C6613.57 857.547 6613.58 858.84 6613.59 860.172C6613.6 862.903 6613.59 865.634 6613.58 868.365C6613.56 871.861 6613.58 875.356 6613.62 878.853C6613.65 882.195 6613.63 885.536 6613.63 888.879C6613.64 890.133 6613.66 891.387 6613.67 892.679C6613.66 893.844 6613.64 895.009 6613.63 896.209C6613.63 897.233 6613.63 898.257 6613.63 899.313C6612.77 903.001 6611.12 903.97 6608 906C6604.84 907.868 6602.55 908.251 6598.89 908.257C6597.85 908.264 6596.81 908.27 6595.74 908.277C6594.6 908.274 6593.46 908.27 6592.29 908.267C6591.08 908.272 6589.87 908.276 6588.62 908.281C6585.26 908.292 6581.89 908.293 6578.53 908.291C6574.9 908.29 6571.27 908.301 6567.65 908.311C6560.54 908.327 6553.43 908.333 6546.33 908.334C6540.55 908.335 6534.77 908.339 6528.99 908.345C6512.62 908.363 6496.24 908.372 6479.87 908.371C6478.54 908.371 6478.54 908.371 6477.19 908.37C6476.31 908.37 6475.42 908.37 6474.51 908.37C6460.18 908.369 6445.86 908.389 6431.53 908.417C6416.82 908.445 6402.11 908.459 6387.4 908.458C6379.14 908.457 6370.88 908.462 6362.62 908.484C6355.59 908.502 6348.56 908.507 6341.52 908.493C6337.94 908.486 6334.35 908.486 6330.76 908.504C6326.87 908.522 6322.98 908.51 6319.09 908.494C6317.96 908.505 6316.82 908.515 6315.66 908.526C6309.24 908.469 6305.13 907.994 6300 904C6296.65 899.733 6296.57 895.755 6296.61 890.533C6296.61 889.678 6296.6 888.824 6296.6 887.943C6296.58 885.066 6296.59 882.189 6296.6 879.312C6296.59 877.234 6296.59 875.155 6296.58 873.077C6296.56 867.356 6296.56 861.634 6296.56 855.913C6296.56 849.746 6296.55 843.58 6296.53 837.413C6296.51 825.328 6296.5 813.244 6296.5 801.159C6296.5 791.339 6296.49 781.518 6296.48 771.698C6296.48 768.873 6296.48 766.047 6296.47 763.222C6296.47 762.519 6296.47 761.817 6296.47 761.093C6296.45 741.333 6296.44 721.572 6296.44 701.812C6296.44 701.066 6296.44 700.321 6296.44 699.554C6296.44 695.777 6296.44 692 6296.44 688.223C6296.44 687.473 6296.44 686.723 6296.44 685.95C6296.44 684.433 6296.44 682.916 6296.44 681.399C6296.45 657.795 6296.42 634.19 6296.38 610.585C6296.34 584.073 6296.31 557.56 6296.31 531.048C6296.31 528.222 6296.31 525.395 6296.31 522.569C6296.31 521.873 6296.31 521.177 6296.31 520.46C6296.31 509.255 6296.29 498.049 6296.27 486.843C6296.24 475.585 6296.24 464.326 6296.26 453.067C6296.27 446.966 6296.27 440.865 6296.24 434.764C6296.22 429.182 6296.22 423.6 6296.25 418.017C6296.26 415.995 6296.25 413.973 6296.23 411.951C6296.21 409.206 6296.23 406.463 6296.25 403.718C6296.24 402.93 6296.22 402.141 6296.21 401.328C6296.31 396.071 6297.7 393.133 6301.37 389.344C6303.58 387.523 6305.3 386.921 6308.13 386.578C6309.08 386.459 6310.04 386.339 6311.03 386.216C6316.01 385.854 6320.96 385.725 6325.95 385.746Z" fill="#414052"/>
<path d="M2653.65 378.639C2650.12 378.664 2646.6 378.687 2643.07 378.684C2608.51 378.62 2571.87 384.45 2541.85 402.844L2540 404C2531.81 409.032 2524.22 414.291 2517.21 420.91C2515.78 422.264 2514.32 423.587 2512.82 424.871C2510.85 426.545 2508.9 428.241 2507 430C2480.77 456.578 2469 494.49 2468.75 531.062C2468.96 565.184 2479.19 597.073 2503.57 621.576L2505 623C2517.55 635.552 2532.58 645.072 2548.49 652.791L2551 654C2575.94 666.208 2602.8 673.556 2629.51 680.812C2663.9 690.14 2715.59 698.455 2737.17 730.086L2739 733C2741.14 736.252 2742.76 739.3 2744 743C2747.94 759.372 2749.29 779.328 2741.29 794.797L2740 797C2736.04 804.099 2732.05 810.679 2726.05 816.234L2724 818C2722.58 819.227 2721.14 820.436 2719.69 821.625C2690.93 843.109 2649.6 846.23 2614.9 842.547L2611 842C2569.24 836.245 2534.78 815.921 2501 792C2497.04 789.091 2493.67 786.359 2488.81 785.312C2481.58 787.08 2481.58 787.08 2466.02 809.327C2464.18 811.955 2462.33 814.564 2460.38 817.11L2458.7 819.289C2453.6 825.966 2448.17 831.872 2449.34 840.773C2453.17 853.682 2453.17 853.682 2487.98 873.832L2490 875C2522.49 893.96 2561.87 914.067 2600.56 914.188C2602.3 914.093 2635.8 914.48 2637.5 914.387C2638.34 914.289 2670.53 914.482 2671.35 914.387L2674.09 914.051C2698.69 911.043 2726.99 904.555 2748.22 891.148L2750 890L2750.6 889.618C2763.32 881.569 2776.58 873.184 2786.99 862.227L2789 860C2813.02 833.659 2827.52 800.657 2827.36 764.699C2827.34 762.466 2827.31 760.234 2827.32 758C2827.37 738.303 2824.16 718.58 2815.38 700.75C2794.99 661.387 2754.43 639.117 2713.48 626.094C2711.67 625.526 2709.87 624.957 2708.06 624.386C2692.49 619.453 2676.85 614.712 2661.18 610.104L2657.78 609.105C2652.16 607.458 2646.55 605.81 2640.93 604.178L2639.89 603.876C2630.66 601.197 2621.43 598.52 2612.3 595.532L2609.97 594.762C2594.81 589.763 2578.3 582.568 2567.38 570.527L2566 569C2562.37 565.905 2560.16 562.795 2557.94 558.625C2550.33 542.427 2547.66 523.047 2553.03 505.652L2554 503C2560.51 484.703 2571.07 471.878 2588.3 463.075C2622.06 446.734 2662.48 446.945 2697.7 458.559C2699.13 459.039 2700.57 459.52 2702 460C2724.45 467.322 2745.73 477.31 2764.5 491.875C2770.97 496.899 2777.69 501.153 2785.81 502.75C2792.44 501.19 2796.5 495.764 2799.97 490.19C2803.53 484.278 2807.25 478.532 2811.39 473.01C2817.14 465.387 2825.59 456.338 2824.76 446.18C2822.34 439.239 2822.34 439.239 2804.09 427.357L2802 426C2774.2 407.693 2746.71 394.399 2714.4 386.236L2710.69 385.312C2691.78 380.511 2673.15 378.582 2653.65 378.639Z" fill="#414052"/>
<path d="M5883.44 378.59C5879.68 378.609 5875.93 378.625 5872.18 378.609C5852.24 378.508 5833.12 379.885 5813.67 384.345L5810.19 385.187C5781.58 392.039 5756.32 401.859 5731.39 417.497L5729 419C5720.48 424.322 5712.03 429.609 5704.3 436.062L5702 438C5682.5 453.263 5666.93 471.682 5652.6 491.756L5651 494C5636.07 514.545 5625.85 538.049 5617.91 562.079C5597.09 627.363 5598.91 706.113 5630.8 767.855C5632.01 770.132 5633.21 772.411 5634.38 774.709C5640.88 787.471 5647.88 799.38 5656.64 810.719C5658.29 812.813 5659.93 814.906 5661.54 817.023C5666.49 823.57 5671.51 829.908 5677.45 835.609C5678.84 836.912 5680.23 838.216 5681.61 839.529C5684.74 842.51 5687.89 845.467 5691.07 848.394C5692.38 849.595 5693.69 850.797 5695 852C5732.73 887.608 5785.6 908.796 5836.71 914.457C5838.5 914.655 5846.84 916.011 5853.37 916.136C5854.96 916.167 5857.44 916.134 5857.44 916.134C5857.44 916.134 5863.07 916.138 5865.89 916.134C5869.57 916.128 5873.24 916.125 5876.92 916.13C5879.78 916.135 5882.64 916.137 5885.5 916.136C5886.87 916.134 5888.23 916.133 5889.59 916.133C5890.45 916.134 5891.32 916.136 5892.18 916.137L5893.61 916.139C5895.48 916.134 5905 915 5906.72 914.641C5944.21 910.767 5980.08 899.68 6013.08 881.608L6016 880C6026.44 874.253 6036.99 868.566 6046.78 861.762C6055.71 855.31 6072.45 844.894 6074.43 833.551L6074.31 831.312C6074.19 827.689 6073.68 825.003 6071.61 821.934L6071.39 821.645C6068.73 818.071 6066.07 814.497 6063.48 810.871C6057.05 801.813 6049.32 786.131 6038 783C6034.09 783.79 6031.32 784.786 6028 787.031C6020.64 793.087 6013.05 798.544 6005.03 803.698L6003 805C5982.71 818.092 5961.06 828.938 5937.51 834.701L5935.5 835.187C5912.06 840.891 5889.93 842.38 5865.85 842.225L5863.26 842.203C5838.44 842.066 5812.12 835.584 5790.13 824.118L5788 823C5779.16 818.433 5770.59 813.787 5762.75 807.625C5760.84 806.074 5758.92 804.532 5757 803C5748.51 797.484 5741.54 790.104 5735 782.398L5733 780C5710.86 754.021 5695.96 722.912 5689.42 689.274L5689 687C5684.79 664.333 5684.03 639.644 5687.38 616.766L5688 613C5694.78 570.413 5714.7 527.899 5747.41 499.211L5750 497C5774.53 476.031 5801 462.471 5832.71 455.488L5835 455C5847.51 452.272 5859.88 451.764 5872.64 451.748L5875.12 451.75C5898.82 451.767 5920.89 455.245 5943.55 462.234L5945.62 462.875C5959.31 467.046 5971.95 472.574 5984.48 479.527L5987.19 481.062C5995.87 485.971 6004.07 491.362 6012.18 497.159C6018.81 501.891 6026.66 509.259 6035.12 509.5C6042.45 508.226 6047.64 501.76 6051.81 496C6054.09 492.74 6056.36 489.493 6058.74 486.309C6065.2 477.666 6074.38 468.357 6074 457C6069.08 445.995 6069.08 445.995 6042.37 428.929L6039.69 427.25C6010.12 408.647 5980.51 394.682 5946.54 386.21L5944.44 385.687C5924.25 380.56 5904.26 378.569 5883.44 378.59Z" fill="#414052"/>
<path d="M3041.64 385.867C3043.15 385.866 3043.15 385.866 3044.68 385.864C3046.8 385.864 3048.91 385.865 3051.02 385.87C3054.23 385.875 3057.43 385.87 3060.63 385.863C3092.48 385.85 3092.48 385.85 3101.5 393.875C3105.92 398.589 3108.79 404.282 3111.85 409.914C3113.96 413.749 3116.17 417.527 3118.38 421.313C3119.08 422.527 3119.08 422.527 3119.8 423.765C3122.81 428.957 3125.83 434.14 3128.88 439.313C3129.48 440.336 3129.48 440.336 3130.09 441.381C3132.43 445.344 3134.77 449.3 3137.13 453.25C3142.98 463.084 3148.73 472.949 3154.13 483.04C3156.94 488.244 3160.01 493.219 3163.21 498.19C3166.12 502.763 3168.84 507.44 3171.56 512.125C3172.16 513.156 3172.76 514.188 3173.38 515.25C3177.65 522.602 3181.81 530.007 3185.94 537.438C3191.25 547.005 3196.8 556.409 3202.47 565.77C3206.58 572.575 3210.56 579.438 3214.44 586.375C3220.54 597.27 3226.88 608.006 3233.27 618.731C3236.89 624.797 3240.45 630.893 3244 637C3246.38 634.112 3248.52 631.328 3250.27 628.016C3250.68 627.259 3251.08 626.502 3251.5 625.722C3251.93 624.906 3252.37 624.09 3252.81 623.25C3257.1 615.304 3261.63 607.532 3266.31 599.813C3271.38 591.462 3276.27 583.044 3281 574.5C3286.25 565.031 3291.71 555.72 3297.32 546.459C3303.8 535.722 3310.05 524.854 3316.29 513.974C3324.79 499.168 3333.38 484.414 3342.13 469.75C3347.47 460.785 3352.71 451.797 3357.69 442.625C3361.32 435.938 3365.12 429.428 3369.23 423.024C3372.05 418.606 3374.65 414.101 3377.21 409.526C3388.08 390.146 3388.08 390.146 3399 387C3406.17 386.053 3413.35 385.841 3420.57 385.832C3422.01 385.827 3422.01 385.827 3423.47 385.822C3425.48 385.817 3427.5 385.815 3429.51 385.815C3432.56 385.813 3435.61 385.794 3438.66 385.775C3440.63 385.773 3442.6 385.771 3444.57 385.77C3445.91 385.759 3445.91 385.759 3447.29 385.748C3463.41 385.805 3463.41 385.805 3468.25 390.563C3470.37 394.725 3470 396.041 3468.9 400.38C3467.13 405.544 3464.35 410.165 3461.63 414.875C3461 415.972 3460.38 417.069 3459.73 418.199C3454.98 426.472 3449.97 434.553 3444.81 442.574C3442.02 446.92 3439.4 451.349 3436.81 455.813C3433.85 460.919 3430.8 465.937 3427.56 470.875C3424.1 476.167 3420.89 481.574 3417.75 487.063C3413.9 493.793 3409.92 500.424 3405.81 507C3400.82 514.995 3395.97 523.066 3391.19 531.188C3385.18 541.389 3379.03 551.498 3372.8 561.565C3368.53 568.474 3364.36 575.431 3360.25 582.438C3355.8 590.038 3351.19 597.522 3346.45 604.95C3341.27 613.107 3336.31 621.401 3331.37 629.708C3330.12 631.807 3328.86 633.902 3327.6 635.996C3327.23 636.613 3326.85 637.23 3326.47 637.866C3325.93 638.768 3325.93 638.768 3325.38 639.688C3323.09 643.478 3320.83 647.279 3318.61 651.106C3314.42 658.31 3310.14 665.41 3305.56 672.375C3300.17 680.587 3295.17 689.014 3290.42 697.613C3289 700 3289 700 3287.46 701.991C3281.54 710.085 3282.18 718.631 3282.27 728.19C3282.27 730.023 3282.27 731.855 3282.26 733.688C3282.24 737.617 3282.25 741.546 3282.27 745.475C3282.31 751.691 3282.3 757.906 3282.28 764.121C3282.26 773.951 3282.27 783.781 3282.29 793.611C3282.33 811.22 3282.33 828.83 3282.31 846.439C3282.3 852.616 3282.31 858.792 3282.33 864.969C3282.34 868.81 3282.34 872.652 3282.34 876.494C3282.34 878.273 3282.34 880.052 3282.35 881.831C3282.37 884.263 3282.37 886.694 3282.36 889.126C3282.37 889.827 3282.38 890.527 3282.39 891.249C3282.34 896.258 3281.23 899.609 3279 904C3273.54 909.273 3265.26 908.58 3258.21 908.531C3257 908.535 3255.78 908.539 3254.53 908.543C3251.97 908.546 3249.41 908.538 3246.86 908.522C3242.95 908.5 3239.04 908.521 3235.13 908.547C3232.64 908.544 3230.15 908.539 3227.65 908.531C3225.91 908.543 3225.91 908.543 3224.13 908.556C3217.6 908.481 3213.11 908.244 3208 904C3205.33 898.912 3204.64 895.209 3204.71 889.386C3204.72 888.283 3204.72 888.283 3204.72 887.159C3204.74 884.712 3204.78 882.266 3204.82 879.819C3204.84 878.057 3204.85 876.296 3204.87 874.534C3204.9 870.744 3204.94 866.954 3204.99 863.164C3205.06 857.145 3205.09 851.126 3205.11 845.107C3205.12 843.579 3205.12 843.579 3205.12 842.02C3205.13 839.936 3205.14 837.852 3205.15 835.768C3205.21 821.765 3205.29 807.764 3205.47 793.763C3205.59 784.307 3205.65 774.852 3205.65 765.395C3205.65 760.403 3205.68 755.416 3205.79 750.426C3206.25 726.483 3205.19 709.899 3189.95 690.592C3186.88 686.514 3184.49 682.105 3182.06 677.625C3177.35 669.253 3172.43 661.017 3167.44 652.813C3167.07 652.21 3166.7 651.608 3166.33 650.987C3162.84 645.264 3159.34 639.548 3155.82 633.848C3150.92 625.913 3146.18 617.937 3141.79 609.712C3139.31 605.142 3136.59 600.76 3133.76 596.402C3128.95 588.991 3124.42 581.425 3119.94 573.813C3119.11 572.421 3118.29 571.03 3117.47 569.638C3115.79 566.81 3114.12 563.98 3112.45 561.15C3109.04 555.378 3105.62 549.611 3102.21 543.844C3101.22 542.181 3100.24 540.518 3099.25 538.855C3094.31 530.517 3089.36 522.19 3084.27 513.943C3078.84 505.124 3073.6 496.201 3068.41 487.24C3064.34 480.248 3060.17 473.328 3055.94 466.438C3050.55 457.675 3045.41 448.799 3040.44 439.799C3037.65 434.778 3034.71 429.944 3031.48 425.193C3029 421.519 3026.65 417.767 3024.31 414C3023.84 413.258 3023.37 412.515 3022.88 411.75C3019.28 405.926 3015.46 399.639 3016.5 392.625C3018.35 389.386 3019.55 388.424 3023 387C3029.24 385.996 3035.33 385.854 3041.64 385.867Z" fill="#414052"/>
<path d="M6711 388C6715.95 388 6720.9 388 6726 388C6726.33 389.002 6726.66 390.003 6727.01 391.035C6728.27 394.839 6729.53 398.643 6730.8 402.447C6731.34 404.077 6731.88 405.707 6732.42 407.337C6736.16 418.603 6740.01 429.821 6744 441C6745.72 438.421 6746.67 436.466 6747.7 433.598C6748.02 432.717 6748.34 431.836 6748.67 430.928C6749 429.983 6749.34 429.037 6749.69 428.062C6750.04 427.088 6750.39 426.114 6750.75 425.111C6753.43 417.656 6756.06 410.184 6758.65 402.699C6760.36 397.771 6762.15 392.878 6764 388C6768.29 388 6772.58 388 6777 388C6777 410.77 6777 433.54 6777 457C6774.03 457 6771.06 457 6768 457C6767.67 440.83 6767.34 424.66 6767 408C6762.83 419.91 6758.67 431.819 6754.56 443.75C6754.11 445.056 6753.66 446.362 6753.21 447.668C6752.14 450.778 6751.07 453.889 6750 457C6746.04 457 6742.08 457 6738 457C6735.59 450.414 6733.21 443.841 6731.19 437.125C6727.98 426.689 6724.45 416.356 6721 406C6720.67 422.83 6720.34 439.66 6720 457C6717.03 457 6714.06 457 6711 457C6711 434.23 6711 411.46 6711 388Z" fill="#414052"/>
<path d="M6646 388C6664.15 388 6682.3 388 6701 388C6701 390.64 6701 393.28 6701 396C6693.41 396 6685.82 396 6678 396C6678 416.13 6678 436.26 6678 457C6674.7 457 6671.4 457 6668 457C6668 436.87 6668 416.74 6668 396C6660.74 396 6653.48 396 6646 396C6646 393.36 6646 390.72 6646 388Z" fill="black"/>
</g>
<defs>
<clipPath id="clip0_26_1431">
<rect width="7144" height="1292" fill="white"/>
</clipPath>
</defs>
</svg>
