<svg width="938" height="700" viewBox="0 0 938 700" fill="none" xmlns="http://www.w3.org/2000/svg">
<path d="M656.683 457.468C656.23 470.512 637.567 480.105 615.002 478.892C592.433 477.68 574.508 466.122 574.961 453.078C575.414 440.034 594.075 430.442 616.643 431.654C639.208 432.865 657.136 444.423 656.683 457.468Z" fill="#1E94D6"/>
<path d="M778.689 246.115C778.229 256.223 761.999 263.752 742.44 262.929C722.88 262.106 707.398 253.244 707.859 243.135C708.319 233.026 724.547 225.498 744.107 226.321C763.666 227.145 779.149 236.006 778.689 246.115Z" fill="#1E94D6"/>
<path d="M943.427 653.31C942.885 668.862 920.636 680.298 893.734 678.853C866.827 677.408 845.457 663.628 845.998 648.076C846.537 632.525 868.784 621.09 895.691 622.534C922.593 623.98 943.967 637.759 943.427 653.31Z" fill="#1E94D6"/>
<path d="M935.519 129.377C935.233 137.623 923.436 143.687 909.171 142.92C894.906 142.154 883.575 134.848 883.861 126.602C884.147 118.356 895.943 112.293 910.209 113.059C924.473 113.825 935.806 121.131 935.519 129.377Z" fill="#1E94D6"/>
<path d="M558.203 163.713C557.916 171.958 546.119 178.022 531.855 177.255C517.59 176.489 506.259 169.183 506.545 160.937C506.832 152.691 518.627 146.628 532.892 147.395C547.157 148.161 558.489 155.467 558.203 163.713Z" fill="#1E94D6"/>
<path d="M453.612 306.445C453.29 315.719 440.023 322.539 423.978 321.677C407.935 320.815 395.19 312.598 395.513 303.323C395.835 294.05 409.101 287.229 425.145 288.092C441.189 288.954 453.934 297.171 453.612 306.445Z" fill="#1E94D6"/>
<path d="M655.006 450.191L657.464 449.735" stroke="#1E94D6" stroke-width="3" stroke-linecap="round" stroke-linejoin="round"/>
<path d="M662.352 448.829L982.491 389.483" stroke="#1E94D6" stroke-width="3" stroke-linecap="round" stroke-linejoin="round" stroke-dasharray="4.97 4.97"/>
<path d="M1015.05 391.109L920.244 632.59" stroke="#1E94D6" stroke-width="3" stroke-linecap="round" stroke-linejoin="round" stroke-dasharray="5.04 5.04"/>
<path d="M919.323 634.935L918.41 637.262" stroke="#1E94D6" stroke-width="3" stroke-linecap="round" stroke-linejoin="round"/>
<path d="M861.661 637.262L859.641 635.789" stroke="#1E94D6" stroke-width="3" stroke-linecap="round" stroke-linejoin="round"/>
<path d="M855.53 632.792L643.819 478.433" stroke="#1E94D6" stroke-width="3" stroke-linecap="round" stroke-linejoin="round" stroke-dasharray="5.09 5.09"/>
<path d="M641.763 476.934L639.743 475.461" stroke="#1E94D6" stroke-width="3" stroke-linecap="round" stroke-linejoin="round"/>
<path d="M631.621 434.12L632.81 431.92" stroke="#1E94D6" stroke-width="3" stroke-linecap="round" stroke-linejoin="round"/>
<path d="M635.241 427.419L721.559 267.647" stroke="#1E94D6" stroke-width="3" stroke-linecap="round" stroke-linejoin="round" stroke-dasharray="5.12 5.12"/>
<path d="M722.774 265.397L723.962 263.197" stroke="#1E94D6" stroke-width="3" stroke-linecap="round" stroke-linejoin="round"/>
<path d="M770.963 243.284L773.448 243.004" stroke="#1E94D6" stroke-width="3" stroke-linecap="round" stroke-linejoin="round"/>
<path d="M778.412 242.444L1063.89 210.251" stroke="#1E94D6" stroke-width="3" stroke-linecap="round" stroke-linejoin="round" stroke-dasharray="5 5"/>
<path d="M767.949 256.791L770.185 257.91" stroke="#1E94D6" stroke-width="3" stroke-linecap="round" stroke-linejoin="round"/>
<path d="M774.564 260.101L973.871 359.805" stroke="#1E94D6" stroke-width="3" stroke-linecap="round" stroke-linejoin="round" stroke-dasharray="4.9 4.9"/>
<path d="M718.945 237.501L716.634 236.547" stroke="#1E94D6" stroke-width="3" stroke-linecap="round" stroke-linejoin="round"/>
<path d="M712.033 234.647L557.854 171.003" stroke="#1E94D6" stroke-width="3" stroke-linecap="round" stroke-linejoin="round" stroke-dasharray="4.98 4.98"/>
<path d="M555.553 170.053L553.242 169.099" stroke="#1E94D6" stroke-width="3" stroke-linecap="round" stroke-linejoin="round"/>
<path d="M889.934 136.788L887.875 138.206" stroke="#1E94D6" stroke-width="3" stroke-linecap="round" stroke-linejoin="round"/>
<path d="M883.857 140.974L757.319 228.15" stroke="#1E94D6" stroke-width="3" stroke-linecap="round" stroke-linejoin="round" stroke-dasharray="4.88 4.88"/>
<path d="M755.31 229.534L753.251 230.952" stroke="#1E94D6" stroke-width="3" stroke-linecap="round" stroke-linejoin="round"/>
<path d="M520.935 170.851L519.396 172.821" stroke="#1E94D6" stroke-width="3" stroke-linecap="round" stroke-linejoin="round"/>
<path d="M516.26 176.836L430.022 287.234" stroke="#1E94D6" stroke-width="3" stroke-linecap="round" stroke-linejoin="round" stroke-dasharray="5.09 5.09"/>
<path d="M428.455 289.241L426.916 291.211" stroke="#1E94D6" stroke-width="3" stroke-linecap="round" stroke-linejoin="round"/>
<path d="M424.562 314.076L426.516 315.635" stroke="#1E94D6" stroke-width="3" stroke-linecap="round" stroke-linejoin="round"/>
<path d="M430.475 318.795L578.906 437.288" stroke="#1E94D6" stroke-width="3" stroke-linecap="round" stroke-linejoin="round" stroke-dasharray="5.06 5.06"/>
<path d="M580.885 438.869L582.839 440.428" stroke="#1E94D6" stroke-width="3" stroke-linecap="round" stroke-linejoin="round"/>
<path d="M590.846 472.948L584.757 475.355" stroke="#1E94D6" stroke-width="3" stroke-linecap="round" stroke-linejoin="round"/>
<path d="M572.475 480.212L13.7305 701.164" stroke="#1E94D6" stroke-width="3" stroke-linecap="round" stroke-linejoin="round" stroke-dasharray="5.04 5.04"/>
<path d="M933.844 131.053L936.082 132.166" stroke="#1E94D6" stroke-width="3" stroke-linecap="round" stroke-linejoin="round"/>
<path d="M503.968 154.162L497.812 151.237" stroke="#1E94D6" stroke-width="3" stroke-linecap="round" stroke-linejoin="round"/>
<path d="M485.738 145.504L153.693 -12.2073" stroke="#1E94D6" stroke-width="3" stroke-linecap="round" stroke-linejoin="round" stroke-dasharray="4.9 4.9"/>
<path d="M600.892 465.129H698.806L683.28 449.604H596.64L600.892 465.129Z" fill="url(#paint0_linear_273_1156)"/>
<path d="M609.725 337.584L593.13 285.384L595.266 279.515L614.702 280.842L617.288 282.668L609.725 337.584Z" fill="#E3E3E3"/>
<path d="M640.766 346.952C638.344 346.621 636.077 345.869 633.931 344.833C633.898 345.078 633.864 345.326 633.829 345.577C633.748 345.48 633.777 345.544 633.812 345.7C633.744 346.198 633.676 346.696 633.612 347.165C633.102 348.528 631.984 349.763 631.984 349.763C631.966 349.697 631.946 349.59 631.926 349.487C631.918 349.447 631.909 349.386 631.902 349.341C631.664 350.28 631.479 351.234 631.366 352.194C631.213 353.505 631.061 354.819 631.167 356.142C631.231 356.956 631.346 357.766 631.606 358.542C631.754 358.987 632.202 360.273 632.759 359.992L632.731 359.591C632.776 359.532 632.822 359.427 632.87 359.294C633.215 358.328 633.6 355.737 633.6 355.737C636.2 355.486 632.888 361.275 632.856 361.33C632.575 362.296 632.657 363.374 632.933 364.331C633.094 364.888 633.314 365.432 633.601 365.939C634.098 366.322 635.341 365.193 635.341 365.193C636.586 365.937 638.454 363.573 638.454 363.573C639.45 363.823 641.44 360.463 641.44 360.463L642.062 357.847C642.559 356.479 640.692 350.755 640.692 350.755C640 349.977 640.482 347.918 640.766 346.952Z" fill="#F7C7AC"/>
<path d="M578.219 356.357C576.851 354.616 577.598 352.251 577.598 352.251C577.626 352.158 577.658 352.042 577.691 351.917C576.046 352.301 574.396 352.616 572.714 352.671C572.654 352.985 572.582 353.189 572.496 353.247C571.75 353.744 572.745 355.737 572.372 358.227C571.998 360.712 572.867 365.938 573.493 367.807C574.114 369.674 574.861 372.537 575.485 373.283C576.106 374.029 580.463 377.762 580.463 377.762C581.334 378.636 581.459 376.644 581.459 376.644C582.205 376.517 580.711 373.783 579.839 373.034C578.968 372.286 578.843 369.923 578.594 369.299C578.347 368.68 578.096 367.308 578.221 366.686C578.347 366.065 578.594 365.567 579.466 365.441C580.34 365.317 581.085 368.802 581.085 368.802C581.708 370.791 583.572 371.536 583.572 371.536C585.193 371.417 582.204 365.194 582.204 365.194C581.952 362.953 579.59 358.099 578.219 356.357Z" fill="#F7C7AC"/>
<path d="M612.204 280.985C612.204 280.297 613.255 279.605 614.107 278.739C613.271 278.29 612.445 277.703 612.445 277.703C612.445 277.703 613.191 279.074 612.069 277.703C610.951 276.337 611.82 273.97 611.82 273.97C612.567 272.478 613.81 269.241 613.81 269.241C616.674 266.255 614.684 261.401 614.684 261.401C614.839 260.833 614.799 259.232 614.702 257.557C614.388 255.4 613.545 253.299 610.474 252.519C608.224 252.834 606.149 253.847 604.079 255.227C601.968 253.819 599.494 253.17 597.034 253.418C597.053 253.552 597.138 253.702 597.309 253.872C595.144 254.955 594.69 257.752 593.219 259.527C593.423 261.821 593.897 263.518 593.897 263.518C591.411 265.259 594.522 270.114 594.522 270.114C594.273 271.483 596.512 274.593 596.512 274.593C597.26 275.463 596.636 278.575 596.636 278.575C596.636 278.575 596.026 278.817 595.071 279.209C598.262 284.762 607.06 282.271 612.204 280.985Z" fill="#F7C7AC"/>
<path d="M629.806 344.28C630.182 344.013 630.557 343.739 630.93 343.443C630.839 342.974 630.741 342.53 630.643 342.131C630.448 342.51 630.186 342.891 629.806 343.269C629.806 343.728 629.806 344.026 629.806 344.28Z" fill="#A5D7D3"/>
<path d="M595.816 454.101C596.026 454.35 596.38 454.606 596.637 454.676C598.633 455.219 596.016 459.528 596.016 459.528C593.898 462.017 594.771 465.254 594.771 465.254C596.266 468.49 604.479 467.243 604.479 467.243C606.844 466.497 607.59 464.009 607.59 464.009C607.59 463.26 609.333 456.665 609.58 455.673C609.755 454.975 609.451 453.32 609.456 452.082C604.953 453.115 600.278 454.929 595.816 454.101Z" fill="#685849"/>
<path d="M615.341 434.182C617.069 436.086 618.542 441.607 618.542 441.607C618.292 446.087 623.519 449.203 623.519 449.203C626.882 451.564 630.615 447.706 630.615 447.706C632.48 443.723 628.747 441.982 628.248 439.616C627.752 437.252 626.257 433.146 626.008 430.656C625.955 430.121 625.989 429.681 626.071 429.273C623.17 431.293 618.937 434.352 615.341 434.182Z" fill="#685849"/>
<path d="M635.095 386.973C634.97 385.603 634.721 383.985 634.348 379.257C634.011 374.976 633.57 367.455 633.49 366.061C632.598 364.55 632.23 362.586 632.832 361.013L632.77 360.151C631.94 360.502 631.294 358.094 631.205 357.529C630.94 355.871 631.004 354.265 631.185 352.602C631.318 351.381 631.517 350.16 631.838 348.974C631.631 347.707 631.313 345.375 630.93 343.442C616.498 354.975 599.558 342.684 585.012 349.419C585.03 349.45 585.042 349.479 585.067 349.513C585.438 350.01 588.797 348.519 586.932 350.634C585.067 352.747 586.061 369.177 586.683 375.398C587.305 381.621 589.794 396.427 589.794 396.427C589.794 396.427 590.418 407.256 590.912 409.374C591.412 411.487 592.778 408.75 591.91 416.218C591.039 423.688 593.528 440.488 594.15 442.355C594.772 444.218 595.146 447.205 595.269 447.953C595.393 448.699 595.585 453.829 595.816 454.1C600.278 454.928 604.953 453.114 609.458 452.08C609.462 451.544 609.517 451.078 609.705 450.813C610.329 449.943 609.831 449.071 609.956 447.455C610.079 445.837 610.079 442.476 609.705 440.111C609.334 437.751 608.214 425.676 608.339 423.062C608.461 420.45 607.84 412.112 607.467 410.491C607.093 408.878 606.221 407.008 607.341 405.638C608.46 404.273 608.587 400.04 608.587 400.04C609.581 398.173 610.452 379.007 610.452 379.007C612.195 379.256 615.679 387.471 615.181 388.837C614.685 390.207 615.181 390.083 616.053 391.204C616.924 392.324 617.423 392.699 617.171 394.065C616.924 395.436 616.675 396.682 617.297 397.424C617.918 398.173 618.044 399.167 617.548 400.663C617.049 402.155 618.17 401.033 618.914 402.777C619.661 404.519 618.665 403.898 617.796 406.135C616.924 408.378 611.198 425.179 611.198 425.179C611.198 425.179 611.198 425.179 610.451 426.672C609.703 428.164 615.305 434.138 615.305 434.138C615.317 434.151 615.329 434.169 615.34 434.181C618.936 434.351 623.386 434.325 626.286 432.304C626.583 430.824 627.448 426.872 628.62 424.43C630.113 421.319 629.741 419.701 629.867 417.712C629.99 415.721 632.357 409.124 633.353 407.878C634.347 406.632 633.974 406.887 633.727 405.638C633.475 404.392 632.979 405.393 634.473 403.649C635.966 401.906 633.849 401.654 634.97 401.033C636.089 400.411 635.219 399.294 634.97 397.179C634.721 395.062 635.592 394.438 636.339 391.701C637.087 388.963 635.219 388.341 635.095 386.973Z" fill="#342B1E"/>
<path d="M614.703 257.557C614.565 255.198 614.31 252.689 614.31 252.689C614.31 252.683 614.307 252.678 614.306 252.674C614.305 252.672 614.301 252.672 614.298 252.671C613.372 246.137 601.992 247.246 601.992 247.246C596.284 247.472 594.096 250.856 593.405 254.48C593.402 254.481 593.399 254.483 593.397 254.483C593.071 256.22 593.087 258.005 593.221 259.527C594.692 257.752 595.146 254.955 597.311 253.872C597.152 253.714 597.074 253.576 597.048 253.449C599.504 253.205 601.973 253.855 604.081 255.259C606.173 253.864 608.272 252.847 610.551 252.545C613.555 253.34 614.392 255.418 614.703 257.557Z" fill="#DC7901"/>
<path d="M578.398 285.384L594.592 279.514C594.592 279.514 615.34 406.352 615.357 279.783L629.805 282.583C629.805 282.583 642.603 319.002 642.146 325.048C641.689 331.093 640.692 350.756 640.692 350.756C640.692 350.756 636.195 351.056 631.218 345.036C631.218 345.036 633.047 336.867 632.33 331.853C631.613 326.838 627.315 306.065 627.315 306.065L630.365 350.758L616.928 355.134L612.988 351.873L610.277 356.567L584.587 351.873L586.843 316.088C586.843 316.088 580.947 344.74 580.396 351.873L580.754 354.776L570.368 358.716C570.368 358.716 568.935 346.897 570.368 332.928C571.8 318.96 578.398 285.384 578.398 285.384Z" fill="#342B1E"/>
<path d="M592.934 280.278L587.918 288.874L594.592 296.753L591.616 302.842L610.763 343.443L621.455 300.014L615.357 296.037L622.237 287.441L621.455 280.965L614.106 278.739L609.725 334.002L594.592 279.515L592.934 280.278Z" fill="#292218"/>
<path d="M596.637 278.574L604.147 280.994L614.107 278.739L615.358 279.784L609.726 288.874L603.916 283.724L599.738 288.874L592.935 280.278L596.637 278.574Z" fill="white"/>
<path d="M614.418 353.105C604.522 353.439 595.547 353.13 585.816 351.078C585.666 351.046 585.47 351.215 585.676 351.298C594.352 354.802 605.398 355.146 614.524 353.571C614.945 353.499 614.782 353.093 614.418 353.105Z" fill="#292218"/>
<path d="M630.49 349.289C628.851 349.482 627.148 349.903 625.71 350.728C625.461 350.871 625.862 351.029 626.011 350.97C627.521 350.376 629.133 350.1 630.636 349.505C630.854 349.418 630.626 349.273 630.49 349.289Z" fill="#292218"/>
<path d="M887.977 662.328H1012.87L993.065 642.525H882.551L887.977 662.328Z" fill="url(#paint1_linear_273_1156)"/>
<path d="M881.266 437.666C872.631 442.847 870.904 456.663 879.538 461.844C886.446 468.753 890.485 458.747 891.627 449.755C884.72 448.028 879.538 444.574 881.266 437.666Z" fill="#F7C7AC"/>
<path d="M876.405 459.035C876.408 458.996 875.889 458.342 875.92 458.33C871.769 451.993 874.167 441.924 881.265 437.667C879.537 444.575 884.719 448.029 891.626 449.756C890.759 453.395 888.779 459.468 886.355 462.396C886.51 464.793 887.689 467.645 889.9 468.753C889.894 468.325 889.9 467.445 889.9 467.025C892.431 468.29 895.882 469.55 897.548 469.457C896.625 468.774 895.966 468.343 895.966 468.343C897.22 467.557 896.594 465.052 896.594 465.052C895.966 467.088 894.088 466.304 894.088 466.304C895.189 465.679 893.773 463.642 893.773 463.642C891.579 466.935 890.954 463.016 890.954 463.016C899.57 454.712 894.714 440.61 894.714 440.61C887.821 426.195 880.301 428.704 880.301 428.704C868.548 428.233 866.669 445.781 865.886 446.408C865.104 447.034 865.572 451.109 865.886 451.89C866.2 452.676 867.296 454.397 866.669 456.904C866.043 459.413 862.908 459.098 862.908 459.098C862.435 460.352 863.534 461.45 863.534 461.45C862.435 461.763 861.652 460.352 861.652 460.352C860.872 462.391 863.066 464.74 863.066 464.74C863.066 464.74 862.775 464.818 862.297 464.952C865.606 465.352 868.881 466.553 872.045 468.227C872.075 468.243 872.957 468.735 872.99 468.753C876.007 466.829 876.184 462.245 876.405 459.035Z" fill="#3E3C3C"/>
<path d="M886.446 465.299C886.735 465.009 886.897 464.654 887.01 464.277C886.885 463.82 886.782 463.359 886.716 462.888C886.681 462.626 886.657 462.363 886.632 462.098C884.791 464.199 882.459 464.765 879.538 461.844C879.012 461.528 878.54 461.169 878.094 460.791C879.005 464.564 882.12 466.74 886.446 465.299Z" fill="#F5BB99"/>
<path d="M889.915 468.448C889.894 468.456 889.88 468.479 889.853 468.468C888.572 467.838 887.773 466.573 887.306 465.258C887.193 464.935 887.098 464.608 887.009 464.277C886.897 464.655 886.734 465.009 886.444 465.299C882.118 466.74 879.003 464.565 878.092 460.791C877.287 460.11 876.595 459.345 876.026 458.509C876.021 458.503 876.019 458.499 876.018 458.495C875.793 461.734 875.289 466.415 872.312 468.376C878.195 471.545 883.675 476.344 888.173 480.841C890.277 478.254 889.985 473.233 889.915 468.448Z" fill="#F7C7AC"/>
<path d="M850.53 550.605C851.151 550.763 854.444 554.525 854.444 554.525C856.324 557.187 859.928 556.875 859.928 556.875C861.964 556.717 858.83 554.992 858.83 554.992C861.022 554.992 858.677 552.334 858.677 552.334C859.145 551.861 858.988 549.041 858.988 549.041C861.028 548.412 858.519 547.316 858.519 547.316C858.519 546.376 857.578 544.812 857.578 544.812L857.603 544.781C854.782 544.863 852.21 545.222 849.669 545.754C849.151 547.326 850.53 550.605 850.53 550.605Z" fill="#F7C7AC"/>
<path d="M901.764 547.941C903.016 542.457 901.451 535.251 901.451 535.251L901.607 534.778L901.622 534.754C887.807 536.049 874.811 540.134 860.75 536.608C860.823 536.74 860.869 536.818 860.869 536.818C859.17 542.614 861.85 554.962 865.01 565.991C877.17 561.727 891.004 564.501 902.608 560.645C901.32 558.93 901.764 547.941 901.764 547.941Z" fill="#333E5D" stroke="#333E5D" stroke-width="0.4118" stroke-miterlimit="10"/>
<path d="M888.76 637.727C888.806 637.579 888.846 637.44 888.887 637.295C890.009 633.026 887.664 628.479 887.664 628.479C887.567 628.124 887.595 627.557 887.69 626.893C884.416 633.614 881.504 641.616 886.446 644.911C886.826 645.29 887.204 645.597 887.583 645.87H888.132C887.509 644.773 887.351 642.107 888.76 637.727Z" fill="#312F2E" stroke="#292827" stroke-width="0.4118" stroke-miterlimit="10"/>
<path d="M887.69 626.893C888.066 624.319 889.544 620.174 889.544 620.174C892.52 607.951 892.988 590.403 892.677 588.524C892.364 586.641 893.46 580.376 893.46 580.376C896.28 574.737 898.004 562.517 898.004 562.517L898.32 562.044L902.707 560.788C902.671 560.757 902.64 560.69 902.608 560.647C891.004 564.502 877.17 561.729 865.01 565.993C868.252 577.329 871.993 587.272 871.993 587.272C871.682 588.68 872.462 591.497 872.462 591.497C870.425 597.298 878.574 622.372 879.516 626.755C880.458 631.142 877.164 638.511 877.164 638.511C877.113 638.532 877.07 638.575 877.02 638.601C878.62 641.605 879.483 646.535 881.264 650.091C882.861 651.691 885.915 650.327 887.735 648.751C887.111 647.024 886.565 645.87 886.565 645.87H887.582C887.203 645.597 886.825 645.29 886.445 644.911C881.505 641.615 884.416 633.613 887.69 626.893Z" fill="#3E3C3C"/>
<path d="M881.266 650.09C879.485 646.533 878.621 641.604 877.022 638.6C873.854 640.26 872.936 650.575 872.936 650.575C874.033 652.141 878.265 651.518 878.265 651.518C879.517 662.797 887.977 662.328 887.977 662.328C890.892 659.197 889.121 652.572 887.737 648.75C885.917 650.326 882.862 651.689 881.266 650.09Z" fill="#292827" stroke="#292827" stroke-width="0.4118" stroke-miterlimit="10"/>
<path d="M891.627 475.661C892.31 475.526 892.901 475.36 893.46 475.183C892.906 475.188 892.302 475.325 891.627 475.661Z" fill="#3E3C3C"/>
<path d="M893.46 475.183C892.901 475.36 892.31 475.526 891.627 475.661C892.302 475.325 892.906 475.188 893.46 475.183C896.711 474.143 897.987 472.407 898.437 470.136C898.124 469.89 897.825 469.661 897.548 469.458C895.881 469.551 892.431 468.29 889.9 467.026C889.952 473.576 889.972 477.747 888.173 480.842C881.194 473.863 871.862 466.112 862.297 464.952C862.062 465.017 861.773 465.099 861.457 465.188C860 468.105 858.542 471.02 857.086 473.934C860.54 473.934 863.995 470.48 867.447 472.207C865.72 475.661 865.72 477.388 865.72 480.842C873.86 481.922 882.743 489.477 891.625 496.385C893.354 489.477 895.079 482.569 898.533 477.388C897.146 477.388 895.752 475.151 893.46 475.183Z" fill="#333E5D"/>
<path d="M893.46 475.183C892.901 475.36 892.31 475.526 891.627 475.661C892.302 475.325 892.906 475.188 893.46 475.183ZM893.46 475.183C896.711 474.143 897.987 472.407 898.437 470.136C898.124 469.89 897.825 469.661 897.548 469.458C895.881 469.551 892.431 468.29 889.9 467.026C889.952 473.576 889.972 477.747 888.173 480.842C881.194 473.863 871.862 466.112 862.297 464.952C862.062 465.017 861.773 465.099 861.457 465.188C860 468.105 858.542 471.02 857.086 473.934C860.54 473.934 863.995 470.48 867.447 472.207C865.72 475.661 865.72 477.388 865.72 480.842C873.86 481.922 882.743 489.477 891.625 496.385C893.354 489.477 895.079 482.569 898.533 477.388C897.146 477.388 895.752 475.151 893.46 475.183Z" stroke="#333E5D" stroke-width="0.4118" stroke-miterlimit="10"/>
<path d="M902.824 474.477C901.72 472.89 899.921 471.299 898.436 470.135C897.986 472.406 896.709 474.143 893.459 475.182C895.751 475.15 897.145 477.387 898.534 477.387C895.08 482.569 893.354 489.476 891.626 496.384C887.009 489.336 873.86 480.841 865.721 480.841C865.721 477.387 865.721 475.66 867.448 472.206C863.996 470.479 860.541 473.933 857.087 473.933C858.543 471.018 860.001 468.103 861.458 465.187C859.074 465.866 854.637 467.186 852.408 468.191C849.276 469.599 849.901 484.642 849.901 484.642C851.313 490.124 847.082 544.966 847.082 544.966L849.901 545.279C849.791 545.406 849.727 545.576 849.671 545.754C852.211 545.223 854.783 544.863 857.605 544.781L858.207 544.023C855.859 525.536 860.399 501.408 860.399 501.408C862.125 503.6 859.461 527.417 859.461 527.417C858.506 532.049 860.273 535.726 860.752 536.609C874.813 540.134 887.809 536.049 901.624 534.755L903.018 532.588C904.744 529.137 896.903 515.202 896.903 515.202C888.853 502.646 897.834 486.754 902.824 474.477Z" fill="#475580" stroke="#475580" stroke-width="0.4118" stroke-miterlimit="10"/>
<path d="M902.549 492.941C900.984 492.629 903.803 477.431 903.803 477.431C903.959 476.525 903.534 475.503 902.825 474.477C897.835 486.754 888.854 502.646 896.902 515.201L899.415 512.685C900.04 515.978 908.817 520.048 908.817 520.048C914.012 518.413 913.021 506.809 912.903 505.597C909.921 506.531 907.208 506.184 903.717 505.021C901.989 503.293 900.263 498.113 901.989 496.385C906.968 492.649 911.04 494.312 913.58 498.109C913.611 497.849 913.673 497.644 913.673 497.644L918.217 491.689L912.735 485.578L902.549 492.941Z" fill="#333E5D" stroke="#333E5D" stroke-width="0.4118" stroke-miterlimit="10"/>
<path d="M914.244 499.223C914.598 499.879 914.912 500.58 915.186 501.314C915.983 501.535 918.544 502.236 919.467 502.499C920.566 502.814 919.937 501.406 919.937 501.406C919.937 501.406 915.371 499.341 914.244 499.223Z" fill="#3E3C3C"/>
<path d="M914.145 499.211C913.546 499.211 913.52 498.571 913.582 498.109C911.042 494.312 906.97 492.65 901.991 496.385C900.264 498.113 901.991 503.293 903.719 505.021C907.209 506.185 909.923 506.531 912.905 505.597C912.899 505.531 912.893 505.477 912.893 505.477C914.456 504.067 914.926 501.244 914.926 501.244C914.926 501.244 915.035 501.275 915.19 501.314C914.916 500.58 914.602 499.879 914.248 499.223C914.216 499.217 914.172 499.211 914.145 499.211Z" fill="#F7C7AC"/>
<path d="M751.691 104.717C751.131 103.878 750.554 103.213 749.97 102.694C748.737 102.133 747.468 101.576 746.788 101.279C744.664 103.768 743.791 101.095 739.512 106.3C738.487 102.203 734.659 104.261 732.651 100.81C731.644 101.459 730.558 101.573 730.558 101.573C728.172 102.516 724.771 103.009 724.771 103.009C724.498 102.819 724.155 102.766 723.793 102.77C724.885 108.437 724.191 114.441 723.506 120.232C723.622 121.839 723.889 124.597 724.512 125.843C725.249 127.309 725.897 133.098 725.897 135.217C725.897 137.131 726.029 140.567 725.517 141.455C725.652 141.66 725.784 141.865 725.934 142.065C730.911 148.285 743.09 143.698 752.04 142.217C751.109 139.534 750.231 137.226 749.817 136.396C749.193 135.152 749.667 131.608 750.134 129.016C751.303 120.395 755.9 111.455 751.691 104.717Z" fill="#696A6F"/>
<path d="M761.963 159.761C760.475 160.848 758.93 162.168 757.229 162.495C757.362 164.202 757.777 166.169 757.908 166.461C758.114 166.923 758.114 168.153 758.114 169.38C758.114 170.608 759.547 169.175 759.441 169.738C759.341 170.299 758.114 171.274 758.114 171.274C757.804 173.324 760.775 169.944 760.775 169.944C760.775 169.944 760.775 169.738 760.826 170.15C760.877 170.558 760.672 171.735 760.672 171.735C760.364 175.525 762.261 170.453 762.261 170.453C762.772 169.381 763.336 166.667 763.336 164.823C763.336 164.757 763.335 164.688 763.33 164.615C763.261 163.36 762.601 161.47 761.963 159.761Z" fill="#F7C7AC"/>
<path d="M750.736 126.054L751.862 120.912C751.2 123.594 750.499 126.321 750.134 129.017C750.437 127.339 750.736 126.054 750.736 126.054Z" fill="#F7C7AC"/>
<path d="M751.862 120.913C751.866 120.894 751.871 120.875 751.876 120.856V120.852L751.862 120.913Z" fill="#F7C7AC"/>
<path d="M761.083 157.394C760.364 155.347 759.854 150.534 760.055 146.231C760.261 141.932 759.953 132.966 758.724 130.509C757.493 128.049 757.957 122.672 758.317 119.499C758.672 116.324 759.546 112.43 758.826 107.515C758.108 102.597 753.039 104.186 753.039 104.186C752.582 103.904 751.298 103.299 749.968 102.694C750.552 103.214 751.129 103.878 751.689 104.717C754.573 109.332 753.323 114.982 751.875 120.855C752.08 121.792 752.016 132.151 751.863 134.759C751.709 137.371 755.599 148.382 756.623 151.661C757.649 154.937 758.009 158.985 757.393 160.162C757.167 160.595 757.15 161.5 757.227 162.494C758.928 162.167 760.473 160.847 761.961 159.76C761.637 158.889 761.316 158.061 761.083 157.394Z" fill="#2B2B2B"/>
<path d="M741.387 85.401C736.886 87.651 732.841 89.471 731.248 92.375C731.756 93.022 733.853 100.039 732.649 100.811C733.134 102.694 738.401 105.159 738.401 106.174C739.347 105.026 746.649 102.694 746.785 101.279C746.473 101.142 746.28 101.059 746.28 101.059C745.664 100.394 746.035 78.291 741.385 78.96C741.387 81.536 742.674 84.111 741.387 85.401Z" fill="#F7C7AC"/>
<path d="M750.283 91.521C750.788 92.223 752.206 93.005 751.249 92.249C750.072 91.33 749.198 80.933 749.198 80.933C746.282 74.894 742.797 75.811 742.797 75.811C741.927 75.914 740.136 75.096 740.136 75.096C734.5 72.329 729.575 76.906 728.189 78.291C726.001 80.478 726.87 83.086 726.411 84.878C725.95 86.67 723.543 88.361 723.543 88.361C723.543 88.361 726.617 86.619 723.543 88.563C720.47 90.507 721.853 95.835 721.853 95.835C721.853 95.835 721.853 97.577 722.06 95.681C722.263 93.788 724.877 92.763 724.877 92.763C724.877 92.763 724.877 92.507 724.977 92.969C725.08 93.427 724.312 95.324 724.312 95.324C724.312 95.324 726.412 93.327 724.363 95.479C722.316 97.628 724.877 99.473 724.877 99.473C724.877 99.473 725.03 101.521 724.977 99.678C724.927 97.836 726.307 97.118 726.307 97.118C726.307 97.118 726.718 96.607 726.563 97.268C726.464 97.714 727.436 98.955 728.108 99.748C728.449 100.15 728.717 100.443 728.717 100.443C728.56 100.274 728.437 99.918 728.34 99.485C728.058 98.224 728 96.296 728 96.296C728 97.046 728.808 97.795 729.608 98.353C730.394 98.902 731.175 99.266 731.175 99.266C730.743 98.896 730.418 98.514 730.153 98.134C727.971 94.98 733.01 99.838 733.01 99.838C733.044 100.167 733.44 97.189 731.986 92.566C731.515 90.189 736.888 87.65 741.389 85.4C742.676 84.11 741.389 81.535 741.389 78.959C746.388 85.377 742.667 103.394 747.774 99.439C748.114 99.253 748.433 98.907 748.433 98.907C747.204 96.246 748.997 96.295 748.997 96.295C748.997 96.295 749.712 94.093 749.2 96.346C748.69 98.599 751.353 99.114 751.353 99.114C749.617 98.447 750.122 92.958 750.283 91.521Z" fill="#84776B"/>
<path d="M736.275 213.477C736.377 213.172 736.473 212.867 736.579 212.564C736.383 213.025 736.253 213.315 736.253 213.315C736.283 213.225 736.283 213.393 736.275 213.477Z" fill="#28364D"/>
<path d="M736.275 213.477C736.283 213.392 736.283 213.225 736.253 213.315C736.256 213.438 736.259 213.491 736.265 213.513C736.268 213.501 736.271 213.489 736.275 213.477Z" fill="#28364D"/>
<path d="M728.989 229.32C728.391 230.339 728.287 234.651 728.718 238.468C729.178 242.563 734.424 241.493 734.63 241.696C734.733 241.799 735.233 239.658 736.236 238.653C735.135 235.715 734.451 232.899 734.122 230.151C732.855 231.146 730.348 231.108 728.989 229.32Z" fill="#3E3C3C"/>
<path d="M736.265 213.514C736.259 213.493 736.256 213.439 736.253 213.316C734.307 218.897 733.424 224.365 734.121 230.151C734.131 230.142 734.147 230.136 734.157 230.128C734.145 230.137 734.131 230.142 734.121 230.151C734.45 232.9 735.134 235.716 736.235 238.653C732.944 229.881 733.654 221.463 736.265 213.514Z" fill="#28364D"/>
<path d="M734.158 230.127C734.148 230.136 734.132 230.141 734.122 230.15C734.132 230.142 734.146 230.136 734.158 230.127Z" fill="#28364D"/>
<path d="M755.191 153.042C754.885 150.909 753.405 146.158 752.039 142.219C743.088 143.699 730.909 148.287 725.933 142.067C725.784 141.867 725.651 141.662 725.516 141.457C725.459 141.553 725.398 141.627 725.327 141.659C724.91 141.843 723.73 146.361 723.289 148.099C723.541 156.035 723.063 155.103 721.186 159.242C720.664 163.904 721.931 177.406 723.08 181.109C724.464 185.566 725.386 192.529 725.386 194.938C725.386 197.343 725.95 197.343 724.925 199.394C723.9 201.443 725.848 215.115 725.642 219.212C725.436 223.309 729.125 229.15 729.125 229.15C729.076 229.188 729.031 229.247 728.988 229.32C730.345 231.106 733.112 230.929 734.121 230.151C733.424 224.365 734.307 218.897 736.253 213.316C736.253 213.316 736.382 213.026 736.579 212.565C736.519 209.613 735.437 201.907 735.437 201.907C734.867 200.764 735.68 197.749 735.68 197.749C736.253 194.814 736.826 186.335 736.415 181.442C736.009 176.553 738.454 170.767 738.454 170.767C739.19 172.639 739.679 183.728 739.19 185.032C738.701 186.335 739.027 193.508 738.943 195.384C738.861 197.258 737.719 200.113 739.108 201.986C740.257 203.541 737.54 210.303 736.579 212.565C736.474 212.868 736.377 213.173 736.275 213.478C736.274 213.517 736.268 213.535 736.265 213.514C733.654 221.464 732.944 229.881 736.235 238.654C736.235 238.654 738.73 241.139 741.264 238.763C741.831 235.699 743.933 229.044 744.183 227.509C744.488 225.615 748.02 217.318 749.047 212.093C750.072 206.871 749.919 197.957 750.02 195.807C750.122 193.655 750.02 190.683 750.994 187.256C751.967 183.822 754.27 174.294 755.193 170.095C756.113 165.898 755.703 156.627 755.191 153.042Z" fill="#383838"/>
<path d="M734.122 230.151C733.113 230.929 730.346 231.106 728.989 229.32C730.348 231.108 732.855 231.146 734.122 230.151Z" fill="#28364D"/>
<path d="M736.235 238.653C735.232 239.657 734.815 240.859 734.527 242.101C734.63 242.242 734.658 249.326 734.658 249.326C734.811 252.959 740.749 252.245 740.749 252.245C744.388 252.295 741.568 241.331 741.16 240.206C741.082 239.995 741.132 239.475 741.263 238.762C738.73 241.138 736.235 238.653 736.235 238.653Z" fill="#3E3C3C"/>
<path d="M722.975 147.869C720.65 148.504 718.325 148.917 716 148.056C716.269 149.642 715.913 151.46 714.736 152.942C713.353 154.683 716.219 156.886 717.604 158.576C718.986 160.266 719.446 157.858 719.446 157.858C720.164 158.628 719.729 159.772 721.189 159.242C724.396 158.082 723.292 148.099 723.292 148.099C723.174 148.027 723.081 147.945 722.975 147.869Z" fill="#F7C7AC"/>
<path d="M722.974 147.869C719.691 145.481 721.739 140.516 721.739 140.516C722.151 136.604 720.762 132.61 720.762 132.61C721.495 130.899 723.373 119.16 723.373 119.16C723.373 119.16 723.373 118.182 723.454 119.487C723.467 119.684 723.485 119.945 723.505 120.234C724.19 114.443 724.883 108.439 723.792 102.772C722.394 102.789 720.623 103.931 720.623 103.931C717.14 105.214 716.728 116.837 716.474 119.142C716.217 121.447 714.684 132.152 714.684 132.152C712.122 134.152 715.246 145.516 715.809 147.257C715.892 147.514 715.951 147.783 715.998 148.056C718.324 148.917 720.648 148.504 722.974 147.869Z" fill="#2B2B2B"/>
<path d="M739.611 250.451H832.741L817.974 235.684H735.566L739.611 250.451Z" fill="url(#paint2_linear_273_1156)"/>
<path d="M732.324 100.684L738.231 104.223L745.923 99.839L748.453 102.031L745.176 112.508L738.558 106.819L733.027 112.508L728.663 102.645L732.324 100.684Z" fill="white"/>
<path d="M905.776 131.229H976.242L965.069 121.411H902.715L905.776 131.229Z" fill="url(#paint3_linear_273_1156)"/>
<path d="M897.305 26.634C897.833 26.575 898.478 25.049 898.537 24.64C898.594 24.23 898.36 23.996 899.181 23.352C900.003 22.706 899.945 20.773 899.945 20.773C900.179 19.072 901.703 16.726 901.703 16.726C900.121 11.979 901.35 12.213 901.35 12.213C901.35 8.871 904.633 6.234 904.633 6.234C911.903 3.42 913.603 9.224 913.603 9.224C913.662 9.75 914.247 10.337 914.247 10.337C915.771 11.04 913.837 14.265 913.837 14.265C915.009 14.207 913.426 17.605 913.426 17.605C913.72 17.84 914.424 19.188 914.424 19.658C914.424 20.127 913.662 20.303 914.13 20.715C914.6 21.124 914.657 22.004 914.424 23.058C914.189 24.114 913.954 24.172 915.067 24.465C916.182 24.759 915.83 27.045 915.83 27.045C915.83 27.045 915.899 27.227 916.457 27.616C915.864 28.968 914.817 29.956 912.811 30.206C912.729 29.631 912.634 29.056 912.539 28.48C911.638 23.052 914.585 19.054 910.242 11.364C908.529 12.22 907.673 12.22 905.96 12.22C905.96 13.076 905.96 13.933 905.96 14.789C905.104 14.789 904.247 14.789 903.391 14.789C905.96 17.358 902.534 19.928 904.247 22.497C903.391 22.497 902.534 22.497 901.678 22.497C901.678 24.21 904.247 22.497 904.247 23.354C903.415 25.435 903.391 27.515 903.193 29.498C902.974 29.448 902.76 29.405 902.534 29.349C902.761 29.406 902.975 29.449 903.193 29.498C902.984 31.595 902.583 33.583 900.821 35.344C900.142 32.625 899.457 28.3 897.064 26.624C897.213 26.625 897.305 26.634 897.305 26.634Z" fill="#F59E4C"/>
<path d="M917.235 57.232C917.499 58.098 911.616 40.476 919.483 41.348C919.504 42.207 919.522 43.013 919.522 43.574C919.522 45.333 918.933 46.563 920.107 47.911C921.279 49.261 921.924 54.36 921.749 56.411C921.572 58.464 922.394 66.846 922.921 67.138C923.448 67.431 925.384 70.539 925.384 70.539C925.384 70.539 925.384 70.539 925.325 70.831C925.265 71.125 924.797 73.822 924.797 73.822L923.624 74.466C923.331 75.229 921.749 73.997 921.749 73.997C920.929 73.764 921.572 73.059 921.572 73.059C920.986 71.945 921.691 72.356 921.691 72.356C921.866 72.003 921.28 71.125 921.28 71.125C919.872 70.012 919.93 67.022 919.93 67.022C920.226 65.205 917.235 57.232 917.235 57.232Z" fill="#F7C5A9"/>
<path d="M902.395 128.395C898.792 128.445 899.887 123.643 900.179 122.362C900.47 121.072 899.708 119.429 899.708 119.429C899.357 117.496 900.881 114.623 901.174 114.213C901.468 113.804 901.409 112.278 901.585 111.634C901.62 111.505 901.566 111.155 901.463 110.683C902.336 111.181 903.092 111.556 904.205 111.566C904.081 117.219 903.636 122.854 902.395 128.395Z" fill="#F59E4C" stroke="#F59E4C" stroke-width="0.2141" stroke-miterlimit="10"/>
<path d="M898.36 86.954C898.051 85.975 897.743 84.375 897.359 82.563C899.416 83.595 901.792 84.149 904.236 84.397C903.762 93.281 904.405 102.445 904.205 111.565C903.092 111.555 902.336 111.18 901.463 110.682C901.045 108.78 899.768 104.833 899.768 104.833C897.482 98.266 899.122 94.164 898.828 92.521C898.537 90.882 898.36 86.954 898.36 86.954Z" fill="#F5BC9B"/>
<path d="M904.237 84.397C907.233 84.701 910.329 84.543 913.069 84.229C912.548 85.808 912.058 87.167 911.726 87.833C910.612 90.06 909.849 91.703 910.612 94.047C911.376 96.392 907.858 107.589 907.271 108.996C906.907 109.871 906.905 112.762 907.139 114.993C905.99 114.993 905.201 114.993 904.086 114.993C904.584 104.749 903.705 94.396 904.237 84.397Z" fill="#F7C5A9"/>
<path d="M904.086 114.993C905.201 114.993 905.989 114.993 907.139 114.993C907.281 116.35 907.51 117.464 907.799 117.729C908.56 118.433 909.087 123.65 908.913 125.467C908.736 127.285 909.382 129.159 909.264 131.446C909.146 133.733 906.569 133.733 904.574 133.262C902.58 132.795 902.463 128.398 902.463 128.398C902.44 128.398 902.42 128.393 902.395 128.393C903.385 123.976 903.866 119.495 904.086 114.993Z" fill="#F59E4C" stroke="#F59E4C" stroke-width="0.2141" stroke-miterlimit="10"/>
<path d="M894.141 60.984C894.217 60.536 894.312 60.068 894.417 59.588C901.228 63.67 910.406 65.229 917.949 61.037C917.995 60.991 918.029 60.946 918.061 60.901C919.326 69.428 915.711 75.582 915.711 75.582C915.711 75.582 914.314 80.456 913.091 84.161C913.083 84.184 913.076 84.206 913.068 84.229C910.328 84.543 907.232 84.701 904.236 84.397C901.792 84.149 899.416 83.595 897.359 82.563C896.869 80.252 896.258 77.6 895.371 75.464C893.788 71.653 893.437 65.146 894.141 60.984Z" fill="#F59E4C"/>
<path d="M908.528 23.354C909.385 24.21 910.241 22.497 911.097 22.497C910.434 21.17 912.335 21.894 912.828 21.493C912.81 23.609 912.623 25.881 912.537 28.479C909.298 28.344 907.695 25.852 908.528 23.354Z" fill="#F7B373"/>
<path d="M903.191 29.498C903.388 27.515 903.413 25.435 904.245 23.354C904.245 22.497 901.676 24.21 901.676 22.497C902.532 22.497 903.389 22.497 904.245 22.497C902.532 19.928 905.958 17.358 903.389 14.789C904.245 14.789 905.102 14.789 905.958 14.789C905.958 13.933 905.958 13.076 905.958 12.22C907.671 12.22 908.527 12.22 910.24 11.364C912.281 14.616 912.793 17.55 912.825 20.822C912.827 21.046 912.831 21.268 912.828 21.494C912.335 21.895 909.384 24.211 908.527 23.354C907.694 25.853 909.297 28.344 912.537 28.48C912.633 29.056 912.727 29.63 912.809 30.206H911.952C908.754 30.205 906.293 30.196 903.191 29.498Z" fill="#F7C5A9"/>
<path d="M887.81 66.531C889.04 65.064 888.982 61.49 889.393 57.797C889.803 54.105 889.685 50.176 890.973 48.534C892.246 46.915 892.263 41.142 892.263 40.987C893.952 41.546 895.145 42.796 896.59 44.147C896.362 45.256 896.182 46.437 896.25 47.479C896.427 50.175 893.905 57.678 892.85 60.317C891.795 62.955 890.389 64.889 890.858 66.531C891.327 68.173 889.217 70.574 889.159 70.987C889.1 71.396 888.631 72.627 889.159 72.451C889.686 72.275 888.807 73.156 888.807 73.156C888.807 73.156 888.807 73.156 888.631 73.448C888.455 73.741 887.518 73.507 887.518 73.507C887.224 73.684 885.876 73.331 885.701 73.156C885.525 72.98 885.407 70.459 885.407 70.459C885.228 69.462 886.577 67.995 887.81 66.531Z" fill="#F7C5A9"/>
<path d="M892.262 41.465C891.794 38.123 892.03 31.616 892.03 31.616C892.635 26.91 896.12 26.616 897.063 26.624C899.456 28.3 900.141 32.625 900.82 35.344C902.582 33.583 902.983 31.595 903.192 29.498C906.294 30.196 908.755 30.205 911.954 30.205H912.811C914.817 29.955 915.864 28.968 916.457 27.615C916.796 27.852 917.316 28.167 918.116 28.567C920.225 29.623 919.581 36.13 919.464 36.89C919.384 37.41 919.441 39.506 919.485 41.348C912.045 41.54 917.093 53.37 917.093 58.467C917.093 58.9 917.531 59.334 917.855 59.767C917.928 60.148 918.007 60.53 918.062 60.901C918.03 60.946 917.996 60.991 917.95 61.037C910.407 65.228 901.229 63.67 894.418 59.588C895.3 55.599 897.115 50.636 897.951 47.444C898.889 43.867 897.249 40.76 897.249 40.76C897.418 41.269 896.999 42.7 896.649 44.339C896.629 44.437 896.611 44.538 896.59 44.638C894.883 44.113 893.952 42.038 892.263 41.478C892.262 41.478 892.262 41.465 892.262 41.465Z" fill="#C5452B"/>
<path d="M533.178 166.092H602.113L591.184 155.164H530.183L533.178 166.092Z" fill="url(#paint4_linear_273_1156)"/>
<path d="M514.648 72.413C514.653 72.401 514.659 72.389 514.664 72.377C514.849 72.392 514.96 72.409 514.648 72.413Z" fill="#3E3C3C"/>
<path d="M514.318 72.444C514.311 72.391 514.306 72.352 514.306 72.352C514.306 72.352 514.505 72.364 514.665 72.377C514.66 72.389 514.655 72.401 514.649 72.413C514.6 72.414 514.562 72.415 514.49 72.415C514.441 72.415 514.381 72.429 514.318 72.444Z" fill="#3E3C3C"/>
<path d="M516.477 50.96C516.332 51.519 516.029 51.326 516.029 51.326C516.029 51.326 511.191 52.975 509.666 54.198C509.638 56.522 509.449 58.831 508.776 61.035C508.781 61.423 508.794 62.008 508.834 62.208C508.834 62.208 507.819 63.028 507.64 63.92C511.195 61.3 515.03 58.402 516.221 54.697C516.594 53.536 516.716 52.298 516.477 50.96Z" fill="#432D1D" stroke="#432D1D" stroke-width="0.2383" stroke-miterlimit="10"/>
<path d="M516.817 43.226C518.133 44.987 518.938 46.981 519.362 49.116C518.094 47.579 517.17 45.56 516.707 43.346C516.746 43.304 516.787 43.258 516.817 43.226Z" fill="#F5BB99" stroke="#F5BB99" stroke-width="0.2383" stroke-miterlimit="10"/>
<path d="M516.708 43.346C517.171 45.56 518.095 47.579 519.363 49.116C519.459 49.603 519.535 50.098 519.592 50.597C519.396 49.981 519.199 49.364 519.017 48.732C519.199 49.364 519.395 49.981 519.592 50.597C519.77 52.126 519.775 53.716 519.634 55.338C518.496 55.232 517.359 55 516.219 54.698C516.592 53.537 516.714 52.299 516.475 50.961C516.492 50.905 516.507 50.849 516.517 50.774C516.642 49.974 515.35 45.67 515.35 45.67C515.209 45.05 516.236 43.854 516.708 43.346Z" fill="#F5BB99"/>
<path d="M519.592 50.597C519.535 50.098 519.459 49.603 519.363 49.116C518.095 47.579 517.171 45.56 516.708 43.346C516.236 43.854 515.209 45.05 515.35 45.67C515.35 45.67 516.642 49.974 516.517 50.774C516.507 50.849 516.492 50.905 516.475 50.961C516.714 52.299 516.592 53.537 516.219 54.698C517.359 55 518.496 55.232 519.634 55.338C519.775 53.716 519.77 52.126 519.592 50.597ZM519.592 50.597C519.396 49.981 519.199 49.364 519.017 48.732C519.199 49.364 519.395 49.981 519.592 50.597Z" stroke="#F5BB99" stroke-width="0.2383" stroke-miterlimit="10"/>
<path d="M507.604 64.176C507.604 64.091 507.624 64.005 507.64 63.92C511.195 61.3 515.03 58.402 516.221 54.697C517.36 54.999 518.498 55.231 519.636 55.337C519.341 58.77 518.419 62.342 517.242 65.78C516.911 65.846 516.557 65.89 516.159 65.89C516.557 65.89 516.911 65.847 517.242 65.78C516.461 68.065 515.57 70.292 514.665 72.376C514.505 72.363 514.306 72.351 514.306 72.351C514.306 72.351 514.31 72.39 514.318 72.443C513.181 72.748 509.82 75.61 509.82 75.61C508.221 76.041 508.035 75.488 508.035 75.488C504.839 75.18 504.409 70.691 504.409 70.691C503.98 67.742 507.604 64.176 507.604 64.176Z" fill="#2C2417"/>
<path d="M517.242 65.78C518.419 62.342 519.341 58.77 519.636 55.337C518.498 55.231 517.36 54.999 516.221 54.697C515.03 58.402 511.195 61.3 507.64 63.92C507.624 64.005 507.604 64.091 507.604 64.176C507.604 64.176 503.98 67.742 504.409 70.691C504.409 70.691 504.839 75.18 508.035 75.488C508.035 75.488 508.221 76.041 509.82 75.61C509.82 75.61 513.181 72.748 514.318 72.443C514.31 72.39 514.306 72.351 514.306 72.351C514.306 72.351 514.505 72.363 514.665 72.376C515.57 70.292 516.461 68.065 517.242 65.78ZM517.242 65.78C516.911 65.846 516.557 65.89 516.159 65.89C516.557 65.89 516.911 65.847 517.242 65.78Z" stroke="#2C2417" stroke-width="0.2383" stroke-miterlimit="10"/>
<path d="M516.381 40.815C516.4 41.209 516.43 41.599 516.476 41.986C516.299 41.455 516.308 41.08 516.381 40.815Z" fill="#3E3C3C"/>
<path d="M549.523 101.163C550.608 100.078 552.309 99.919 554.102 99.984C554.095 99.995 554.086 100.004 554.082 100.017C553.958 100.386 554.022 100.632 554.204 101.123C554.389 101.616 554.204 102.106 553.834 102.353C553.469 102.599 551.992 105.058 551.992 105.058C550.886 105.916 549.04 104.567 549.04 104.567C549.04 104.567 548.98 98.788 548.98 104.874C548.98 105.469 548.93 105.968 548.858 106.42C548.69 105.815 548.527 105.21 548.365 104.604C548.161 103.162 548.374 101.927 549.523 101.163Z" fill="#F5BB99" stroke="#F5BB99" stroke-width="0.2383" stroke-miterlimit="10"/>
<path d="M548.364 104.604C548.527 105.21 548.689 105.815 548.857 106.42C548.848 106.482 548.842 106.555 548.831 106.614C548.617 105.914 548.455 105.242 548.364 104.604Z" fill="#3E3C3C"/>
<path d="M517.241 65.781C518.418 62.343 519.34 58.77 519.635 55.338C519.776 53.716 519.77 52.127 519.593 50.597C521.476 56.481 524.056 61.666 526.644 66.844C528.489 60.389 528.557 53.047 531.147 46.535L534.347 48.807C534.451 48.773 534.578 48.756 534.705 48.737C536.784 50.674 538.865 53.064 540.944 54.451C538.085 53.498 536.177 56.358 533.318 55.404C535.224 57.311 537.132 61.124 539.038 63.03C528.552 63.983 529.505 76.376 526.645 84.956C524.739 80.189 524.739 74.47 519.972 70.657C519.019 68.75 521.878 65.89 521.878 63.031C520.237 63.851 519.294 65.372 517.241 65.781Z" fill="#282012"/>
<path d="M519.635 55.338C519.34 58.77 518.418 62.343 517.241 65.781C519.294 65.372 520.237 63.851 521.878 63.031C521.878 65.89 519.019 68.75 519.972 70.657C524.739 74.47 524.739 80.189 526.645 84.956C529.505 76.376 528.552 63.983 539.038 63.03C537.132 61.124 535.224 57.311 533.318 55.404C536.177 56.358 538.085 53.498 540.944 54.451C538.865 53.064 536.784 50.674 534.705 48.737C534.578 48.756 534.451 48.773 534.347 48.807L531.147 46.535C528.557 53.047 528.489 60.389 526.644 66.844C524.056 61.666 521.476 56.481 519.593 50.597C519.77 52.127 519.776 53.716 519.635 55.338ZM519.635 55.338C520.066 55.377 520.495 55.405 520.924 55.405" stroke="#282012" stroke-width="0.2383" stroke-miterlimit="10"/>
<path d="M512.639 73.407C512.724 73.214 514.565 72.607 514.65 72.412C514.961 72.409 514.851 72.392 514.666 72.376C515.571 70.292 516.462 68.065 517.243 65.78C519.297 65.371 520.239 63.851 521.879 63.03C521.879 65.89 519.02 68.75 519.973 70.656C524.74 74.469 524.74 80.189 526.646 84.955C529.506 76.375 528.553 63.982 539.039 63.029C537.133 61.123 535.225 57.309 533.319 55.403C536.178 56.357 538.086 53.497 540.945 54.45C538.866 53.063 536.785 50.673 534.706 48.736C537.296 48.373 544.493 51.325 544.493 51.325L545.538 51.449C547.136 51.202 547.935 55.26 549.103 60.24C550.27 65.219 550.825 69.524 552.237 73.58C553.654 77.637 554.082 86.366 554.143 89.196C554.204 92.024 554.819 99.832 554.819 99.832C554.819 99.832 554.252 99.665 554.102 99.983C552.309 99.918 550.608 100.077 549.523 101.162C548.374 101.927 548.162 103.162 548.365 104.603C545.148 92.653 542.851 80.702 542.851 68.75C533.76 80.567 542.54 93.289 548.365 104.603C547.881 106.342 543.274 108.786 542.393 108.865C526.166 108.865 523.959 108.325 514.492 108.65L513.752 100.868C513.752 100.869 512.701 73.785 512.639 73.407Z" fill="#432D1D"/>
<path d="M548.365 104.603C548.162 103.162 548.374 101.927 549.523 101.162C550.608 100.077 552.309 99.918 554.102 99.983C554.252 99.665 554.819 99.832 554.819 99.832C554.819 99.832 554.204 92.024 554.143 89.196C554.082 86.366 553.654 77.637 552.237 73.58C550.825 69.524 550.27 65.219 549.103 60.24C547.935 55.26 547.136 51.202 545.538 51.449L544.493 51.325C544.493 51.325 537.296 48.373 534.706 48.736C536.785 50.673 538.866 53.063 540.945 54.45C538.086 53.497 536.178 56.357 533.319 55.403C535.225 57.309 537.133 61.123 539.039 63.029C528.553 63.982 529.506 76.375 526.646 84.955C524.74 80.189 524.74 74.469 519.973 70.656C519.02 68.75 521.879 65.89 521.879 63.03C520.239 63.851 519.297 65.371 517.243 65.78C516.462 68.065 515.571 70.292 514.666 72.376C514.851 72.392 514.961 72.409 514.65 72.412C514.565 72.607 512.724 73.214 512.639 73.407C512.701 73.785 513.752 100.869 513.752 100.868L514.492 108.65C523.959 108.325 526.166 108.865 542.393 108.865C543.274 108.786 547.881 106.342 548.365 104.603ZM548.365 104.603C545.148 92.653 542.851 80.702 542.851 68.75C533.76 80.567 542.54 93.289 548.365 104.603Z" stroke="#432D1D" stroke-width="0.2383" stroke-miterlimit="10"/>
<path d="M546.443 106.388C547.051 105.795 547.668 105.216 548.396 104.768C548.387 104.714 548.373 104.657 548.365 104.604C545.148 92.654 542.851 80.703 542.851 68.751C533.76 80.568 540.47 95.107 546.295 106.42C546.301 106.396 546.359 106.388 546.443 106.388Z" fill="#282012" stroke="#282012" stroke-width="0.2383" stroke-miterlimit="10"/>
<path d="M538.128 159.242C538.386 159.912 538.772 161.557 538.772 161.557C539.386 162.6 539.203 164.444 539.203 164.444C538.956 166.045 534.716 165.921 534.716 165.921C530.966 166.045 531.336 164.691 531.336 164.691C530.966 163.83 531.641 161.865 531.767 161.25C531.858 160.783 531.81 159.889 531.754 159.243C533.949 158.787 536.133 159.207 538.128 159.242Z" fill="#432D1D"/>
<path d="M528.692 169.303C529.245 169.979 529.306 172.93 529.306 172.93C529.736 173.054 529.306 173.791 529.306 173.791C525.739 174.652 521.07 173.482 521.07 173.482C520.516 172.869 521.07 172.747 521.07 172.747C520.638 172.253 521.929 168.81 521.929 168.81C521.929 168.81 521.929 168.81 521.746 167.827C521.732 167.751 521.702 167.649 521.677 167.553C524.134 168.345 526.384 168.647 528.719 168.764C528.602 169.003 528.692 169.303 528.692 169.303Z" fill="#432D1D"/>
<path d="M514.491 108.65C525.09 108.286 535.799 104.413 546.294 106.42C545.798 106.458 545.32 109.462 544.859 109.299C543.888 118.317 542.504 126.901 541.6 135.919C540.992 142.017 540.132 147.563 540.779 153.656C541.012 155.849 540.942 156.388 538.128 159.242C532.994 162.48 526.999 158.258 531.029 152.497C532.023 151.076 531.348 146.487 531.342 144.004C531.32 133.89 530.831 124.351 528.874 114.404C527.64 140.459 527.603 141.324 529.372 153.334C530.007 157.647 530.428 161.499 529.997 165.898C529.849 167.407 529.125 168.31 528.753 168.688C527.569 169.891 520.355 169.954 519.909 167.553C516.711 150.175 519.906 125.617 514.491 108.65Z" fill="#543520" stroke="#432D1D" stroke-width="0.2383" stroke-miterlimit="10"/>
<path d="M520.924 50.638C522.81 51.58 527.481 50.659 527.588 49.717C527.719 49.601 527.837 49.467 527.935 49.336C528.337 48.812 528.644 48.215 528.912 47.612C529.554 46.17 529.978 44.7 530.265 43.153C530.28 43.072 530.299 42.994 530.314 42.916C530.435 43.429 530.104 45.793 530.104 45.793L531.146 46.533C528.556 53.045 528.488 60.388 526.643 66.842C524.055 61.664 521.475 56.479 519.592 50.595C519.535 50.095 519.459 49.6 519.363 49.114C519.838 49.695 520.358 50.213 520.924 50.638Z" fill="#F6C0A1" stroke="#F6C0A1" stroke-width="0.2383" stroke-miterlimit="10"/>
<path d="M517.38 30.855C521.621 27.227 526.23 29.565 526.23 29.565C530.536 30.547 530.166 37.249 530.166 37.249C531.255 37.307 530.266 41.824 530.272 42.706C530.062 43.754 529.855 44.803 529.509 45.82C529.205 46.711 528.863 47.603 528.405 48.428C528.22 48.762 527.978 49.227 527.655 49.549C531.367 41.016 527.542 32.542 517.111 35.387C516.708 36.598 516.484 37.852 516.404 39.104C516.102 38.294 515.72 37.373 515.72 37.373C514.305 33.315 517.38 30.855 517.38 30.855Z" fill="#393B41" stroke="#393B41" stroke-width="0.2383" stroke-miterlimit="10"/>
<path d="M520.924 50.638C520.359 50.213 519.839 49.695 519.363 49.115C518.939 46.98 518.134 44.987 516.818 43.225C516.895 43.146 516.949 43.089 516.949 43.089L516.767 42.658C516.639 42.41 516.546 42.188 516.476 41.985C516.431 41.598 516.4 41.208 516.381 40.814C516.497 40.405 516.766 40.26 516.766 40.26C516.766 40.114 516.602 39.632 516.404 39.102C516.484 37.85 516.707 36.596 517.111 35.385C527.598 32.525 531.41 41.104 527.598 49.684C527.598 50.638 522.831 51.591 520.924 50.638Z" fill="#F7C7AC" stroke="#F7C7AC" stroke-width="0.2383" stroke-miterlimit="10"/>
<path d="M514.648 72.413C514.563 72.607 514.478 72.805 514.394 72.997C514.356 72.757 514.329 72.554 514.316 72.444C514.38 72.429 514.44 72.415 514.488 72.415C514.561 72.415 514.6 72.413 514.648 72.413Z" fill="#3E3C3C"/>
<path d="M516.334 39.993H515.349L519.593 50.597L519.911 49.728L516.334 39.993Z" fill="black"/>
<defs>
<linearGradient id="paint0_linear_273_1156" x1="596.64" y1="457.367" x2="698.805" y2="457.367" gradientUnits="userSpaceOnUse">
<stop stop-opacity="0.3"/>
<stop offset="1" stop-color="white" stop-opacity="0"/>
</linearGradient>
<linearGradient id="paint1_linear_273_1156" x1="882.551" y1="652.427" x2="1012.87" y2="652.427" gradientUnits="userSpaceOnUse">
<stop stop-opacity="0.3"/>
<stop offset="1" stop-color="white" stop-opacity="0"/>
</linearGradient>
<linearGradient id="paint2_linear_273_1156" x1="735.566" y1="243.067" x2="832.742" y2="243.067" gradientUnits="userSpaceOnUse">
<stop stop-opacity="0.3"/>
<stop offset="1" stop-color="white" stop-opacity="0"/>
</linearGradient>
<linearGradient id="paint3_linear_273_1156" x1="902.715" y1="126.32" x2="976.242" y2="126.32" gradientUnits="userSpaceOnUse">
<stop stop-opacity="0.3"/>
<stop offset="1" stop-color="white" stop-opacity="0"/>
</linearGradient>
<linearGradient id="paint4_linear_273_1156" x1="530.183" y1="160.628" x2="602.113" y2="160.628" gradientUnits="userSpaceOnUse">
<stop stop-opacity="0.3"/>
<stop offset="1" stop-color="white" stop-opacity="0"/>
</linearGradient>
</defs>
</svg>
